<mxfile host="app.diagrams.net" modified="2023-11-16T16:14:37.491Z" agent="Mozilla/5.0 (Windows NT 10.0; Win64; x64) AppleWebKit/537.36 (KHTML, like Gecko) Chrome/119.0.0.0 Safari/537.36" etag="Bo47krBgm_hcJL_BTGSa" version="22.1.1" type="device" pages="3">
  <diagram name="Страница — 1" id="at9tyh_6-Y7YbDzYb8iG">
    <mxGraphModel dx="1887" dy="853" grid="0" gridSize="10" guides="1" tooltips="1" connect="1" arrows="1" fold="1" page="0" pageScale="1" pageWidth="827" pageHeight="1169" math="0" shadow="0">
      <root>
        <mxCell id="0" />
        <mxCell id="1" parent="0" />
        <mxCell id="QsHZgy6GQxsVxsIJGLhV-5" style="edgeStyle=orthogonalEdgeStyle;rounded=0;orthogonalLoop=1;jettySize=auto;html=1;exitX=0.5;exitY=1;exitDx=0;exitDy=0;exitPerimeter=0;entryX=0.5;entryY=0;entryDx=0;entryDy=0;" parent="1" source="QsHZgy6GQxsVxsIJGLhV-1" target="QsHZgy6GQxsVxsIJGLhV-2" edge="1">
          <mxGeometry relative="1" as="geometry" />
        </mxCell>
        <mxCell id="QsHZgy6GQxsVxsIJGLhV-1" value="Начало" style="strokeWidth=2;html=1;shape=mxgraph.flowchart.terminator;whiteSpace=wrap;" parent="1" vertex="1">
          <mxGeometry x="450" y="70" width="100" height="60" as="geometry" />
        </mxCell>
        <mxCell id="QsHZgy6GQxsVxsIJGLhV-4" style="edgeStyle=orthogonalEdgeStyle;rounded=0;orthogonalLoop=1;jettySize=auto;html=1;exitX=0.5;exitY=1;exitDx=0;exitDy=0;entryX=0.5;entryY=0;entryDx=0;entryDy=0;" parent="1" source="QsHZgy6GQxsVxsIJGLhV-2" target="QsHZgy6GQxsVxsIJGLhV-3" edge="1">
          <mxGeometry relative="1" as="geometry" />
        </mxCell>
        <mxCell id="QsHZgy6GQxsVxsIJGLhV-2" value="Открытие приложения" style="rounded=1;whiteSpace=wrap;html=1;absoluteArcSize=1;arcSize=14;strokeWidth=2;" parent="1" vertex="1">
          <mxGeometry x="435" y="150" width="130" height="70" as="geometry" />
        </mxCell>
        <mxCell id="QsHZgy6GQxsVxsIJGLhV-8" style="edgeStyle=orthogonalEdgeStyle;rounded=0;orthogonalLoop=1;jettySize=auto;html=1;exitX=0;exitY=0.5;exitDx=0;exitDy=0;entryX=1;entryY=0.5;entryDx=0;entryDy=0;" parent="1" source="QsHZgy6GQxsVxsIJGLhV-3" target="QsHZgy6GQxsVxsIJGLhV-6" edge="1">
          <mxGeometry relative="1" as="geometry" />
        </mxCell>
        <mxCell id="QsHZgy6GQxsVxsIJGLhV-13" style="edgeStyle=orthogonalEdgeStyle;rounded=0;orthogonalLoop=1;jettySize=auto;html=1;exitX=1;exitY=0.5;exitDx=0;exitDy=0;entryX=0.5;entryY=1;entryDx=0;entryDy=0;" parent="1" source="QsHZgy6GQxsVxsIJGLhV-3" target="QsHZgy6GQxsVxsIJGLhV-12" edge="1">
          <mxGeometry relative="1" as="geometry" />
        </mxCell>
        <mxCell id="QsHZgy6GQxsVxsIJGLhV-26" style="edgeStyle=orthogonalEdgeStyle;rounded=0;orthogonalLoop=1;jettySize=auto;html=1;exitX=0.5;exitY=1;exitDx=0;exitDy=0;entryX=0.5;entryY=0;entryDx=0;entryDy=0;" parent="1" source="QsHZgy6GQxsVxsIJGLhV-3" target="QsHZgy6GQxsVxsIJGLhV-17" edge="1">
          <mxGeometry relative="1" as="geometry" />
        </mxCell>
        <mxCell id="QsHZgy6GQxsVxsIJGLhV-3" value="Авторизация" style="rounded=1;whiteSpace=wrap;html=1;absoluteArcSize=1;arcSize=14;strokeWidth=2;" parent="1" vertex="1">
          <mxGeometry x="435" y="270" width="130" height="70" as="geometry" />
        </mxCell>
        <mxCell id="QsHZgy6GQxsVxsIJGLhV-6" value="Ввод данных" style="html=1;strokeWidth=2;shape=manualInput;whiteSpace=wrap;rounded=1;size=26;arcSize=11;" parent="1" vertex="1">
          <mxGeometry x="265" y="230" width="120" height="70" as="geometry" />
        </mxCell>
        <mxCell id="QsHZgy6GQxsVxsIJGLhV-7" value="BookingHotelDB" style="strokeWidth=2;html=1;shape=mxgraph.flowchart.database;whiteSpace=wrap;" parent="1" vertex="1">
          <mxGeometry x="275" y="320" width="110" height="60" as="geometry" />
        </mxCell>
        <mxCell id="QsHZgy6GQxsVxsIJGLhV-9" style="edgeStyle=orthogonalEdgeStyle;rounded=0;orthogonalLoop=1;jettySize=auto;html=1;exitX=0;exitY=0.5;exitDx=0;exitDy=0;entryX=1;entryY=0.5;entryDx=0;entryDy=0;entryPerimeter=0;" parent="1" source="QsHZgy6GQxsVxsIJGLhV-3" target="QsHZgy6GQxsVxsIJGLhV-7" edge="1">
          <mxGeometry relative="1" as="geometry" />
        </mxCell>
        <mxCell id="QsHZgy6GQxsVxsIJGLhV-12" value="" style="verticalLabelPosition=bottom;verticalAlign=top;html=1;shape=offPageConnector;rounded=0;size=0.5;rotation=90;" parent="1" vertex="1">
          <mxGeometry x="630" y="242.5" width="60" height="125" as="geometry" />
        </mxCell>
        <mxCell id="QsHZgy6GQxsVxsIJGLhV-14" value="Ответ пользователю" style="text;html=1;strokeColor=none;fillColor=none;align=center;verticalAlign=middle;whiteSpace=wrap;rounded=0;" parent="1" vertex="1">
          <mxGeometry x="650" y="285" width="60" height="30" as="geometry" />
        </mxCell>
        <mxCell id="QsHZgy6GQxsVxsIJGLhV-15" style="edgeStyle=orthogonalEdgeStyle;rounded=0;orthogonalLoop=1;jettySize=auto;html=1;exitX=0;exitY=0.5;exitDx=0;exitDy=0;entryX=1;entryY=0.5;entryDx=0;entryDy=0;" parent="1" source="QsHZgy6GQxsVxsIJGLhV-17" target="QsHZgy6GQxsVxsIJGLhV-18" edge="1">
          <mxGeometry relative="1" as="geometry" />
        </mxCell>
        <mxCell id="QsHZgy6GQxsVxsIJGLhV-16" style="edgeStyle=orthogonalEdgeStyle;rounded=0;orthogonalLoop=1;jettySize=auto;html=1;exitX=1;exitY=0.5;exitDx=0;exitDy=0;entryX=0.5;entryY=1;entryDx=0;entryDy=0;" parent="1" source="QsHZgy6GQxsVxsIJGLhV-17" target="QsHZgy6GQxsVxsIJGLhV-21" edge="1">
          <mxGeometry relative="1" as="geometry" />
        </mxCell>
        <mxCell id="QsHZgy6GQxsVxsIJGLhV-39" style="edgeStyle=orthogonalEdgeStyle;rounded=0;orthogonalLoop=1;jettySize=auto;html=1;exitX=0.5;exitY=1;exitDx=0;exitDy=0;entryX=0.5;entryY=0;entryDx=0;entryDy=0;" parent="1" source="QsHZgy6GQxsVxsIJGLhV-17" target="QsHZgy6GQxsVxsIJGLhV-30" edge="1">
          <mxGeometry relative="1" as="geometry" />
        </mxCell>
        <mxCell id="QsHZgy6GQxsVxsIJGLhV-17" value="Регистрация" style="rounded=1;whiteSpace=wrap;html=1;absoluteArcSize=1;arcSize=14;strokeWidth=2;" parent="1" vertex="1">
          <mxGeometry x="435" y="430" width="130" height="70" as="geometry" />
        </mxCell>
        <mxCell id="QsHZgy6GQxsVxsIJGLhV-18" value="Ввод данных" style="html=1;strokeWidth=2;shape=manualInput;whiteSpace=wrap;rounded=1;size=26;arcSize=11;" parent="1" vertex="1">
          <mxGeometry x="265" y="390" width="120" height="70" as="geometry" />
        </mxCell>
        <mxCell id="QsHZgy6GQxsVxsIJGLhV-19" value="BookingHotelDB" style="strokeWidth=2;html=1;shape=mxgraph.flowchart.database;whiteSpace=wrap;" parent="1" vertex="1">
          <mxGeometry x="275" y="480" width="110" height="60" as="geometry" />
        </mxCell>
        <mxCell id="QsHZgy6GQxsVxsIJGLhV-20" style="edgeStyle=orthogonalEdgeStyle;rounded=0;orthogonalLoop=1;jettySize=auto;html=1;exitX=0;exitY=0.5;exitDx=0;exitDy=0;entryX=1;entryY=0.5;entryDx=0;entryDy=0;entryPerimeter=0;" parent="1" source="QsHZgy6GQxsVxsIJGLhV-17" target="QsHZgy6GQxsVxsIJGLhV-19" edge="1">
          <mxGeometry relative="1" as="geometry" />
        </mxCell>
        <mxCell id="QsHZgy6GQxsVxsIJGLhV-23" value="" style="group" parent="1" vertex="1" connectable="0">
          <mxGeometry x="610" y="395" width="125" height="60" as="geometry" />
        </mxCell>
        <mxCell id="QsHZgy6GQxsVxsIJGLhV-21" value="" style="verticalLabelPosition=bottom;verticalAlign=top;html=1;shape=offPageConnector;rounded=0;size=0.5;rotation=90;" parent="QsHZgy6GQxsVxsIJGLhV-23" vertex="1">
          <mxGeometry x="32.5" y="-32.5" width="60" height="125" as="geometry" />
        </mxCell>
        <mxCell id="QsHZgy6GQxsVxsIJGLhV-22" value="Ответ пользователю" style="text;html=1;strokeColor=none;fillColor=none;align=center;verticalAlign=middle;whiteSpace=wrap;rounded=0;" parent="QsHZgy6GQxsVxsIJGLhV-23" vertex="1">
          <mxGeometry x="52.5" y="10" width="60" height="30" as="geometry" />
        </mxCell>
        <mxCell id="QsHZgy6GQxsVxsIJGLhV-24" value="BookingHotelDB" style="strokeWidth=2;html=1;shape=mxgraph.flowchart.database;whiteSpace=wrap;" parent="1" vertex="1">
          <mxGeometry x="610" y="480" width="110" height="60" as="geometry" />
        </mxCell>
        <mxCell id="QsHZgy6GQxsVxsIJGLhV-25" style="edgeStyle=orthogonalEdgeStyle;rounded=0;orthogonalLoop=1;jettySize=auto;html=1;exitX=1;exitY=0.5;exitDx=0;exitDy=0;entryX=-0.01;entryY=0.574;entryDx=0;entryDy=0;entryPerimeter=0;" parent="1" source="QsHZgy6GQxsVxsIJGLhV-17" target="QsHZgy6GQxsVxsIJGLhV-24" edge="1">
          <mxGeometry relative="1" as="geometry" />
        </mxCell>
        <mxCell id="QsHZgy6GQxsVxsIJGLhV-28" style="edgeStyle=orthogonalEdgeStyle;rounded=0;orthogonalLoop=1;jettySize=auto;html=1;exitX=0;exitY=0.5;exitDx=0;exitDy=0;entryX=1;entryY=0.5;entryDx=0;entryDy=0;" parent="1" source="QsHZgy6GQxsVxsIJGLhV-30" target="QsHZgy6GQxsVxsIJGLhV-31" edge="1">
          <mxGeometry relative="1" as="geometry" />
        </mxCell>
        <mxCell id="QsHZgy6GQxsVxsIJGLhV-29" style="edgeStyle=orthogonalEdgeStyle;rounded=0;orthogonalLoop=1;jettySize=auto;html=1;exitX=1;exitY=0.5;exitDx=0;exitDy=0;entryX=0.5;entryY=1;entryDx=0;entryDy=0;" parent="1" source="QsHZgy6GQxsVxsIJGLhV-30" target="QsHZgy6GQxsVxsIJGLhV-35" edge="1">
          <mxGeometry relative="1" as="geometry" />
        </mxCell>
        <mxCell id="PUtHgNxa7dvuGvZpEz_O-14" style="edgeStyle=orthogonalEdgeStyle;rounded=0;orthogonalLoop=1;jettySize=auto;html=1;exitX=0.5;exitY=1;exitDx=0;exitDy=0;entryX=0.5;entryY=0;entryDx=0;entryDy=0;" parent="1" source="QsHZgy6GQxsVxsIJGLhV-30" target="PUtHgNxa7dvuGvZpEz_O-3" edge="1">
          <mxGeometry relative="1" as="geometry" />
        </mxCell>
        <mxCell id="QsHZgy6GQxsVxsIJGLhV-30" value="Создание бронирования" style="rounded=1;whiteSpace=wrap;html=1;absoluteArcSize=1;arcSize=14;strokeWidth=2;" parent="1" vertex="1">
          <mxGeometry x="435" y="590" width="130" height="70" as="geometry" />
        </mxCell>
        <mxCell id="QsHZgy6GQxsVxsIJGLhV-31" value="Ввод данных" style="html=1;strokeWidth=2;shape=manualInput;whiteSpace=wrap;rounded=1;size=26;arcSize=11;" parent="1" vertex="1">
          <mxGeometry x="265" y="550" width="120" height="70" as="geometry" />
        </mxCell>
        <mxCell id="QsHZgy6GQxsVxsIJGLhV-32" value="BookingHotelDB" style="strokeWidth=2;html=1;shape=mxgraph.flowchart.database;whiteSpace=wrap;" parent="1" vertex="1">
          <mxGeometry x="275" y="640" width="110" height="60" as="geometry" />
        </mxCell>
        <mxCell id="QsHZgy6GQxsVxsIJGLhV-33" style="edgeStyle=orthogonalEdgeStyle;rounded=0;orthogonalLoop=1;jettySize=auto;html=1;exitX=0;exitY=0.5;exitDx=0;exitDy=0;entryX=1;entryY=0.5;entryDx=0;entryDy=0;entryPerimeter=0;" parent="1" source="QsHZgy6GQxsVxsIJGLhV-30" target="QsHZgy6GQxsVxsIJGLhV-32" edge="1">
          <mxGeometry relative="1" as="geometry" />
        </mxCell>
        <mxCell id="QsHZgy6GQxsVxsIJGLhV-34" value="" style="group" parent="1" vertex="1" connectable="0">
          <mxGeometry x="610" y="555" width="125" height="60" as="geometry" />
        </mxCell>
        <mxCell id="QsHZgy6GQxsVxsIJGLhV-35" value="" style="verticalLabelPosition=bottom;verticalAlign=top;html=1;shape=offPageConnector;rounded=0;size=0.5;rotation=90;" parent="QsHZgy6GQxsVxsIJGLhV-34" vertex="1">
          <mxGeometry x="32.5" y="-32.5" width="60" height="125" as="geometry" />
        </mxCell>
        <mxCell id="QsHZgy6GQxsVxsIJGLhV-36" value="Ответ пользователю" style="text;html=1;strokeColor=none;fillColor=none;align=center;verticalAlign=middle;whiteSpace=wrap;rounded=0;" parent="QsHZgy6GQxsVxsIJGLhV-34" vertex="1">
          <mxGeometry x="52.5" y="10" width="60" height="30" as="geometry" />
        </mxCell>
        <mxCell id="QsHZgy6GQxsVxsIJGLhV-37" value="BookingHotelDB" style="strokeWidth=2;html=1;shape=mxgraph.flowchart.database;whiteSpace=wrap;" parent="1" vertex="1">
          <mxGeometry x="610" y="640" width="110" height="60" as="geometry" />
        </mxCell>
        <mxCell id="QsHZgy6GQxsVxsIJGLhV-38" style="edgeStyle=orthogonalEdgeStyle;rounded=0;orthogonalLoop=1;jettySize=auto;html=1;exitX=1;exitY=0.5;exitDx=0;exitDy=0;entryX=-0.01;entryY=0.574;entryDx=0;entryDy=0;entryPerimeter=0;" parent="1" source="QsHZgy6GQxsVxsIJGLhV-30" target="QsHZgy6GQxsVxsIJGLhV-37" edge="1">
          <mxGeometry relative="1" as="geometry" />
        </mxCell>
        <mxCell id="PUtHgNxa7dvuGvZpEz_O-1" style="edgeStyle=orthogonalEdgeStyle;rounded=0;orthogonalLoop=1;jettySize=auto;html=1;exitX=0;exitY=0.5;exitDx=0;exitDy=0;entryX=1;entryY=0.5;entryDx=0;entryDy=0;" parent="1" source="PUtHgNxa7dvuGvZpEz_O-3" target="PUtHgNxa7dvuGvZpEz_O-4" edge="1">
          <mxGeometry relative="1" as="geometry" />
        </mxCell>
        <mxCell id="PUtHgNxa7dvuGvZpEz_O-2" style="edgeStyle=orthogonalEdgeStyle;rounded=0;orthogonalLoop=1;jettySize=auto;html=1;exitX=1;exitY=0.5;exitDx=0;exitDy=0;entryX=0.5;entryY=1;entryDx=0;entryDy=0;" parent="1" source="PUtHgNxa7dvuGvZpEz_O-3" target="PUtHgNxa7dvuGvZpEz_O-8" edge="1">
          <mxGeometry relative="1" as="geometry" />
        </mxCell>
        <mxCell id="PUtHgNxa7dvuGvZpEz_O-142" style="edgeStyle=orthogonalEdgeStyle;rounded=0;orthogonalLoop=1;jettySize=auto;html=1;exitX=0.5;exitY=1;exitDx=0;exitDy=0;entryX=0.5;entryY=0;entryDx=0;entryDy=0;" parent="1" source="PUtHgNxa7dvuGvZpEz_O-3" target="PUtHgNxa7dvuGvZpEz_O-135" edge="1">
          <mxGeometry relative="1" as="geometry" />
        </mxCell>
        <mxCell id="PUtHgNxa7dvuGvZpEz_O-3" value="Вывод запросов" style="rounded=1;whiteSpace=wrap;html=1;absoluteArcSize=1;arcSize=14;strokeWidth=2;" parent="1" vertex="1">
          <mxGeometry x="435" y="750" width="130" height="70" as="geometry" />
        </mxCell>
        <mxCell id="PUtHgNxa7dvuGvZpEz_O-4" value="Ввод запроса" style="html=1;strokeWidth=2;shape=manualInput;whiteSpace=wrap;rounded=1;size=26;arcSize=11;" parent="1" vertex="1">
          <mxGeometry x="265" y="710" width="120" height="70" as="geometry" />
        </mxCell>
        <mxCell id="PUtHgNxa7dvuGvZpEz_O-5" value="BookingHotelDB" style="strokeWidth=2;html=1;shape=mxgraph.flowchart.database;whiteSpace=wrap;" parent="1" vertex="1">
          <mxGeometry x="275" y="800" width="110" height="60" as="geometry" />
        </mxCell>
        <mxCell id="PUtHgNxa7dvuGvZpEz_O-6" style="edgeStyle=orthogonalEdgeStyle;rounded=0;orthogonalLoop=1;jettySize=auto;html=1;exitX=0;exitY=0.5;exitDx=0;exitDy=0;entryX=1;entryY=0.5;entryDx=0;entryDy=0;entryPerimeter=0;" parent="1" source="PUtHgNxa7dvuGvZpEz_O-3" target="PUtHgNxa7dvuGvZpEz_O-5" edge="1">
          <mxGeometry relative="1" as="geometry" />
        </mxCell>
        <mxCell id="PUtHgNxa7dvuGvZpEz_O-7" value="" style="group" parent="1" vertex="1" connectable="0">
          <mxGeometry x="610" y="755" width="125" height="60" as="geometry" />
        </mxCell>
        <mxCell id="PUtHgNxa7dvuGvZpEz_O-8" value="" style="verticalLabelPosition=bottom;verticalAlign=top;html=1;shape=offPageConnector;rounded=0;size=0.5;rotation=90;" parent="PUtHgNxa7dvuGvZpEz_O-7" vertex="1">
          <mxGeometry x="32.5" y="-32.5" width="60" height="125" as="geometry" />
        </mxCell>
        <mxCell id="PUtHgNxa7dvuGvZpEz_O-9" value="Ответ пользователю" style="text;html=1;strokeColor=none;fillColor=none;align=center;verticalAlign=middle;whiteSpace=wrap;rounded=0;" parent="PUtHgNxa7dvuGvZpEz_O-7" vertex="1">
          <mxGeometry x="52.5" y="10" width="60" height="30" as="geometry" />
        </mxCell>
        <mxCell id="PUtHgNxa7dvuGvZpEz_O-58" style="edgeStyle=orthogonalEdgeStyle;rounded=0;orthogonalLoop=1;jettySize=auto;html=1;exitX=0.5;exitY=1;exitDx=0;exitDy=0;entryX=0.5;entryY=0;entryDx=0;entryDy=0;" parent="1" target="PUtHgNxa7dvuGvZpEz_O-27" edge="1">
          <mxGeometry relative="1" as="geometry">
            <mxPoint x="1235" y="147.5" as="sourcePoint" />
          </mxGeometry>
        </mxCell>
        <mxCell id="PUtHgNxa7dvuGvZpEz_O-25" style="edgeStyle=orthogonalEdgeStyle;rounded=0;orthogonalLoop=1;jettySize=auto;html=1;exitX=0;exitY=0.5;exitDx=0;exitDy=0;entryX=1;entryY=0.5;entryDx=0;entryDy=0;" parent="1" source="PUtHgNxa7dvuGvZpEz_O-27" target="PUtHgNxa7dvuGvZpEz_O-28" edge="1">
          <mxGeometry relative="1" as="geometry" />
        </mxCell>
        <mxCell id="PUtHgNxa7dvuGvZpEz_O-26" style="edgeStyle=orthogonalEdgeStyle;rounded=0;orthogonalLoop=1;jettySize=auto;html=1;exitX=1;exitY=0.5;exitDx=0;exitDy=0;entryX=0.5;entryY=1;entryDx=0;entryDy=0;" parent="1" source="PUtHgNxa7dvuGvZpEz_O-27" target="PUtHgNxa7dvuGvZpEz_O-32" edge="1">
          <mxGeometry relative="1" as="geometry" />
        </mxCell>
        <mxCell id="PUtHgNxa7dvuGvZpEz_O-59" style="edgeStyle=orthogonalEdgeStyle;rounded=0;orthogonalLoop=1;jettySize=auto;html=1;exitX=0.5;exitY=1;exitDx=0;exitDy=0;entryX=0.5;entryY=0;entryDx=0;entryDy=0;" parent="1" source="PUtHgNxa7dvuGvZpEz_O-27" target="PUtHgNxa7dvuGvZpEz_O-38" edge="1">
          <mxGeometry relative="1" as="geometry" />
        </mxCell>
        <mxCell id="PUtHgNxa7dvuGvZpEz_O-27" value="Создание комнаты" style="rounded=1;whiteSpace=wrap;html=1;absoluteArcSize=1;arcSize=14;strokeWidth=2;" parent="1" vertex="1">
          <mxGeometry x="1170" y="190" width="130" height="70" as="geometry" />
        </mxCell>
        <mxCell id="PUtHgNxa7dvuGvZpEz_O-28" value="Ввод данных" style="html=1;strokeWidth=2;shape=manualInput;whiteSpace=wrap;rounded=1;size=26;arcSize=11;" parent="1" vertex="1">
          <mxGeometry x="1000" y="150" width="120" height="70" as="geometry" />
        </mxCell>
        <mxCell id="PUtHgNxa7dvuGvZpEz_O-29" value="BookingHotelDB" style="strokeWidth=2;html=1;shape=mxgraph.flowchart.database;whiteSpace=wrap;" parent="1" vertex="1">
          <mxGeometry x="1010" y="240" width="110" height="60" as="geometry" />
        </mxCell>
        <mxCell id="PUtHgNxa7dvuGvZpEz_O-30" style="edgeStyle=orthogonalEdgeStyle;rounded=0;orthogonalLoop=1;jettySize=auto;html=1;exitX=0;exitY=0.5;exitDx=0;exitDy=0;entryX=1;entryY=0.5;entryDx=0;entryDy=0;entryPerimeter=0;" parent="1" source="PUtHgNxa7dvuGvZpEz_O-27" target="PUtHgNxa7dvuGvZpEz_O-29" edge="1">
          <mxGeometry relative="1" as="geometry" />
        </mxCell>
        <mxCell id="PUtHgNxa7dvuGvZpEz_O-31" value="" style="group" parent="1" vertex="1" connectable="0">
          <mxGeometry x="1345" y="155" width="125" height="60" as="geometry" />
        </mxCell>
        <mxCell id="PUtHgNxa7dvuGvZpEz_O-32" value="" style="verticalLabelPosition=bottom;verticalAlign=top;html=1;shape=offPageConnector;rounded=0;size=0.5;rotation=90;" parent="PUtHgNxa7dvuGvZpEz_O-31" vertex="1">
          <mxGeometry x="32.5" y="-32.5" width="60" height="125" as="geometry" />
        </mxCell>
        <mxCell id="PUtHgNxa7dvuGvZpEz_O-33" value="Ответ пользователю" style="text;html=1;strokeColor=none;fillColor=none;align=center;verticalAlign=middle;whiteSpace=wrap;rounded=0;" parent="PUtHgNxa7dvuGvZpEz_O-31" vertex="1">
          <mxGeometry x="52.5" y="10" width="60" height="30" as="geometry" />
        </mxCell>
        <mxCell id="PUtHgNxa7dvuGvZpEz_O-34" value="BookingHotelDB" style="strokeWidth=2;html=1;shape=mxgraph.flowchart.database;whiteSpace=wrap;" parent="1" vertex="1">
          <mxGeometry x="1345" y="240" width="110" height="60" as="geometry" />
        </mxCell>
        <mxCell id="PUtHgNxa7dvuGvZpEz_O-35" style="edgeStyle=orthogonalEdgeStyle;rounded=0;orthogonalLoop=1;jettySize=auto;html=1;exitX=1;exitY=0.5;exitDx=0;exitDy=0;entryX=-0.01;entryY=0.574;entryDx=0;entryDy=0;entryPerimeter=0;" parent="1" source="PUtHgNxa7dvuGvZpEz_O-27" target="PUtHgNxa7dvuGvZpEz_O-34" edge="1">
          <mxGeometry relative="1" as="geometry" />
        </mxCell>
        <mxCell id="PUtHgNxa7dvuGvZpEz_O-36" style="edgeStyle=orthogonalEdgeStyle;rounded=0;orthogonalLoop=1;jettySize=auto;html=1;exitX=0;exitY=0.5;exitDx=0;exitDy=0;entryX=1;entryY=0.5;entryDx=0;entryDy=0;" parent="1" source="PUtHgNxa7dvuGvZpEz_O-38" target="PUtHgNxa7dvuGvZpEz_O-39" edge="1">
          <mxGeometry relative="1" as="geometry" />
        </mxCell>
        <mxCell id="PUtHgNxa7dvuGvZpEz_O-37" style="edgeStyle=orthogonalEdgeStyle;rounded=0;orthogonalLoop=1;jettySize=auto;html=1;exitX=1;exitY=0.5;exitDx=0;exitDy=0;entryX=0.5;entryY=1;entryDx=0;entryDy=0;" parent="1" source="PUtHgNxa7dvuGvZpEz_O-38" target="PUtHgNxa7dvuGvZpEz_O-43" edge="1">
          <mxGeometry relative="1" as="geometry" />
        </mxCell>
        <mxCell id="PUtHgNxa7dvuGvZpEz_O-60" style="edgeStyle=orthogonalEdgeStyle;rounded=0;orthogonalLoop=1;jettySize=auto;html=1;exitX=0.5;exitY=1;exitDx=0;exitDy=0;entryX=0.5;entryY=0;entryDx=0;entryDy=0;" parent="1" source="PUtHgNxa7dvuGvZpEz_O-38" target="PUtHgNxa7dvuGvZpEz_O-49" edge="1">
          <mxGeometry relative="1" as="geometry" />
        </mxCell>
        <mxCell id="PUtHgNxa7dvuGvZpEz_O-38" value="Редактирование комнаты" style="rounded=1;whiteSpace=wrap;html=1;absoluteArcSize=1;arcSize=14;strokeWidth=2;" parent="1" vertex="1">
          <mxGeometry x="1170" y="350" width="130" height="70" as="geometry" />
        </mxCell>
        <mxCell id="PUtHgNxa7dvuGvZpEz_O-39" value="Ввод данных" style="html=1;strokeWidth=2;shape=manualInput;whiteSpace=wrap;rounded=1;size=26;arcSize=11;" parent="1" vertex="1">
          <mxGeometry x="1000" y="310" width="120" height="70" as="geometry" />
        </mxCell>
        <mxCell id="PUtHgNxa7dvuGvZpEz_O-40" value="BookingHotelDB" style="strokeWidth=2;html=1;shape=mxgraph.flowchart.database;whiteSpace=wrap;" parent="1" vertex="1">
          <mxGeometry x="1010" y="400" width="110" height="60" as="geometry" />
        </mxCell>
        <mxCell id="PUtHgNxa7dvuGvZpEz_O-41" style="edgeStyle=orthogonalEdgeStyle;rounded=0;orthogonalLoop=1;jettySize=auto;html=1;exitX=0;exitY=0.5;exitDx=0;exitDy=0;entryX=1;entryY=0.5;entryDx=0;entryDy=0;entryPerimeter=0;" parent="1" source="PUtHgNxa7dvuGvZpEz_O-38" target="PUtHgNxa7dvuGvZpEz_O-40" edge="1">
          <mxGeometry relative="1" as="geometry" />
        </mxCell>
        <mxCell id="PUtHgNxa7dvuGvZpEz_O-42" value="" style="group" parent="1" vertex="1" connectable="0">
          <mxGeometry x="1345" y="315" width="125" height="60" as="geometry" />
        </mxCell>
        <mxCell id="PUtHgNxa7dvuGvZpEz_O-43" value="" style="verticalLabelPosition=bottom;verticalAlign=top;html=1;shape=offPageConnector;rounded=0;size=0.5;rotation=90;" parent="PUtHgNxa7dvuGvZpEz_O-42" vertex="1">
          <mxGeometry x="32.5" y="-32.5" width="60" height="125" as="geometry" />
        </mxCell>
        <mxCell id="PUtHgNxa7dvuGvZpEz_O-44" value="Ответ пользователю" style="text;html=1;strokeColor=none;fillColor=none;align=center;verticalAlign=middle;whiteSpace=wrap;rounded=0;" parent="PUtHgNxa7dvuGvZpEz_O-42" vertex="1">
          <mxGeometry x="52.5" y="10" width="60" height="30" as="geometry" />
        </mxCell>
        <mxCell id="PUtHgNxa7dvuGvZpEz_O-45" value="BookingHotelDB" style="strokeWidth=2;html=1;shape=mxgraph.flowchart.database;whiteSpace=wrap;" parent="1" vertex="1">
          <mxGeometry x="1345" y="400" width="110" height="60" as="geometry" />
        </mxCell>
        <mxCell id="PUtHgNxa7dvuGvZpEz_O-46" style="edgeStyle=orthogonalEdgeStyle;rounded=0;orthogonalLoop=1;jettySize=auto;html=1;exitX=1;exitY=0.5;exitDx=0;exitDy=0;entryX=-0.01;entryY=0.574;entryDx=0;entryDy=0;entryPerimeter=0;" parent="1" source="PUtHgNxa7dvuGvZpEz_O-38" target="PUtHgNxa7dvuGvZpEz_O-45" edge="1">
          <mxGeometry relative="1" as="geometry" />
        </mxCell>
        <mxCell id="PUtHgNxa7dvuGvZpEz_O-47" style="edgeStyle=orthogonalEdgeStyle;rounded=0;orthogonalLoop=1;jettySize=auto;html=1;exitX=0;exitY=0.5;exitDx=0;exitDy=0;entryX=1;entryY=0.5;entryDx=0;entryDy=0;" parent="1" source="PUtHgNxa7dvuGvZpEz_O-49" target="PUtHgNxa7dvuGvZpEz_O-50" edge="1">
          <mxGeometry relative="1" as="geometry" />
        </mxCell>
        <mxCell id="PUtHgNxa7dvuGvZpEz_O-48" style="edgeStyle=orthogonalEdgeStyle;rounded=0;orthogonalLoop=1;jettySize=auto;html=1;exitX=1;exitY=0.5;exitDx=0;exitDy=0;entryX=0.5;entryY=1;entryDx=0;entryDy=0;" parent="1" source="PUtHgNxa7dvuGvZpEz_O-49" target="PUtHgNxa7dvuGvZpEz_O-54" edge="1">
          <mxGeometry relative="1" as="geometry" />
        </mxCell>
        <mxCell id="PUtHgNxa7dvuGvZpEz_O-49" value="Удаление комнаты" style="rounded=1;whiteSpace=wrap;html=1;absoluteArcSize=1;arcSize=14;strokeWidth=2;" parent="1" vertex="1">
          <mxGeometry x="1170" y="510" width="130" height="70" as="geometry" />
        </mxCell>
        <mxCell id="PUtHgNxa7dvuGvZpEz_O-50" value="Выбор данных" style="html=1;strokeWidth=2;shape=manualInput;whiteSpace=wrap;rounded=1;size=26;arcSize=11;" parent="1" vertex="1">
          <mxGeometry x="1000" y="470" width="120" height="70" as="geometry" />
        </mxCell>
        <mxCell id="PUtHgNxa7dvuGvZpEz_O-51" value="BookingHotelDB" style="strokeWidth=2;html=1;shape=mxgraph.flowchart.database;whiteSpace=wrap;" parent="1" vertex="1">
          <mxGeometry x="1010" y="560" width="110" height="60" as="geometry" />
        </mxCell>
        <mxCell id="PUtHgNxa7dvuGvZpEz_O-52" style="edgeStyle=orthogonalEdgeStyle;rounded=0;orthogonalLoop=1;jettySize=auto;html=1;exitX=0;exitY=0.5;exitDx=0;exitDy=0;entryX=1;entryY=0.5;entryDx=0;entryDy=0;entryPerimeter=0;" parent="1" source="PUtHgNxa7dvuGvZpEz_O-49" target="PUtHgNxa7dvuGvZpEz_O-51" edge="1">
          <mxGeometry relative="1" as="geometry" />
        </mxCell>
        <mxCell id="PUtHgNxa7dvuGvZpEz_O-53" value="" style="group" parent="1" vertex="1" connectable="0">
          <mxGeometry x="1345" y="475" width="125" height="60" as="geometry" />
        </mxCell>
        <mxCell id="PUtHgNxa7dvuGvZpEz_O-54" value="" style="verticalLabelPosition=bottom;verticalAlign=top;html=1;shape=offPageConnector;rounded=0;size=0.5;rotation=90;" parent="PUtHgNxa7dvuGvZpEz_O-53" vertex="1">
          <mxGeometry x="32.5" y="-32.5" width="60" height="125" as="geometry" />
        </mxCell>
        <mxCell id="PUtHgNxa7dvuGvZpEz_O-55" value="Ответ пользователю" style="text;html=1;strokeColor=none;fillColor=none;align=center;verticalAlign=middle;whiteSpace=wrap;rounded=0;" parent="PUtHgNxa7dvuGvZpEz_O-53" vertex="1">
          <mxGeometry x="52.5" y="10" width="60" height="30" as="geometry" />
        </mxCell>
        <mxCell id="PUtHgNxa7dvuGvZpEz_O-56" value="BookingHotelDB" style="strokeWidth=2;html=1;shape=mxgraph.flowchart.database;whiteSpace=wrap;" parent="1" vertex="1">
          <mxGeometry x="1345" y="560" width="110" height="60" as="geometry" />
        </mxCell>
        <mxCell id="PUtHgNxa7dvuGvZpEz_O-57" style="edgeStyle=orthogonalEdgeStyle;rounded=0;orthogonalLoop=1;jettySize=auto;html=1;exitX=1;exitY=0.5;exitDx=0;exitDy=0;entryX=-0.01;entryY=0.574;entryDx=0;entryDy=0;entryPerimeter=0;" parent="1" source="PUtHgNxa7dvuGvZpEz_O-49" target="PUtHgNxa7dvuGvZpEz_O-56" edge="1">
          <mxGeometry relative="1" as="geometry" />
        </mxCell>
        <mxCell id="PUtHgNxa7dvuGvZpEz_O-61" style="edgeStyle=orthogonalEdgeStyle;rounded=0;orthogonalLoop=1;jettySize=auto;html=1;exitX=0.5;exitY=1;exitDx=0;exitDy=0;entryX=0.5;entryY=0;entryDx=0;entryDy=0;" parent="1" source="PUtHgNxa7dvuGvZpEz_O-49" target="PUtHgNxa7dvuGvZpEz_O-65" edge="1">
          <mxGeometry relative="1" as="geometry">
            <mxPoint x="1235" y="630" as="sourcePoint" />
          </mxGeometry>
        </mxCell>
        <mxCell id="PUtHgNxa7dvuGvZpEz_O-62" style="edgeStyle=orthogonalEdgeStyle;rounded=0;orthogonalLoop=1;jettySize=auto;html=1;exitX=0;exitY=0.5;exitDx=0;exitDy=0;entryX=1;entryY=0.5;entryDx=0;entryDy=0;" parent="1" source="PUtHgNxa7dvuGvZpEz_O-65" target="PUtHgNxa7dvuGvZpEz_O-66" edge="1">
          <mxGeometry relative="1" as="geometry" />
        </mxCell>
        <mxCell id="PUtHgNxa7dvuGvZpEz_O-63" style="edgeStyle=orthogonalEdgeStyle;rounded=0;orthogonalLoop=1;jettySize=auto;html=1;exitX=1;exitY=0.5;exitDx=0;exitDy=0;entryX=0.5;entryY=1;entryDx=0;entryDy=0;" parent="1" source="PUtHgNxa7dvuGvZpEz_O-65" target="PUtHgNxa7dvuGvZpEz_O-70" edge="1">
          <mxGeometry relative="1" as="geometry" />
        </mxCell>
        <mxCell id="PUtHgNxa7dvuGvZpEz_O-64" style="edgeStyle=orthogonalEdgeStyle;rounded=0;orthogonalLoop=1;jettySize=auto;html=1;exitX=0.5;exitY=1;exitDx=0;exitDy=0;entryX=0.5;entryY=0;entryDx=0;entryDy=0;" parent="1" source="PUtHgNxa7dvuGvZpEz_O-65" target="PUtHgNxa7dvuGvZpEz_O-77" edge="1">
          <mxGeometry relative="1" as="geometry" />
        </mxCell>
        <mxCell id="PUtHgNxa7dvuGvZpEz_O-65" value="Создание акции" style="rounded=1;whiteSpace=wrap;html=1;absoluteArcSize=1;arcSize=14;strokeWidth=2;" parent="1" vertex="1">
          <mxGeometry x="1170" y="672" width="130" height="70" as="geometry" />
        </mxCell>
        <mxCell id="PUtHgNxa7dvuGvZpEz_O-66" value="Ввод данных" style="html=1;strokeWidth=2;shape=manualInput;whiteSpace=wrap;rounded=1;size=26;arcSize=11;" parent="1" vertex="1">
          <mxGeometry x="1000" y="632" width="120" height="70" as="geometry" />
        </mxCell>
        <mxCell id="PUtHgNxa7dvuGvZpEz_O-67" value="BookingHotelDB" style="strokeWidth=2;html=1;shape=mxgraph.flowchart.database;whiteSpace=wrap;" parent="1" vertex="1">
          <mxGeometry x="1010" y="722" width="110" height="60" as="geometry" />
        </mxCell>
        <mxCell id="PUtHgNxa7dvuGvZpEz_O-68" style="edgeStyle=orthogonalEdgeStyle;rounded=0;orthogonalLoop=1;jettySize=auto;html=1;exitX=0;exitY=0.5;exitDx=0;exitDy=0;entryX=1;entryY=0.5;entryDx=0;entryDy=0;entryPerimeter=0;" parent="1" source="PUtHgNxa7dvuGvZpEz_O-65" target="PUtHgNxa7dvuGvZpEz_O-67" edge="1">
          <mxGeometry relative="1" as="geometry" />
        </mxCell>
        <mxCell id="PUtHgNxa7dvuGvZpEz_O-69" value="" style="group" parent="1" vertex="1" connectable="0">
          <mxGeometry x="1345" y="637" width="125" height="60" as="geometry" />
        </mxCell>
        <mxCell id="PUtHgNxa7dvuGvZpEz_O-70" value="" style="verticalLabelPosition=bottom;verticalAlign=top;html=1;shape=offPageConnector;rounded=0;size=0.5;rotation=90;" parent="PUtHgNxa7dvuGvZpEz_O-69" vertex="1">
          <mxGeometry x="32.5" y="-32.5" width="60" height="125" as="geometry" />
        </mxCell>
        <mxCell id="PUtHgNxa7dvuGvZpEz_O-71" value="Ответ пользователю" style="text;html=1;strokeColor=none;fillColor=none;align=center;verticalAlign=middle;whiteSpace=wrap;rounded=0;" parent="PUtHgNxa7dvuGvZpEz_O-69" vertex="1">
          <mxGeometry x="52.5" y="10" width="60" height="30" as="geometry" />
        </mxCell>
        <mxCell id="PUtHgNxa7dvuGvZpEz_O-72" value="BookingHotelDB" style="strokeWidth=2;html=1;shape=mxgraph.flowchart.database;whiteSpace=wrap;" parent="1" vertex="1">
          <mxGeometry x="1345" y="722" width="110" height="60" as="geometry" />
        </mxCell>
        <mxCell id="PUtHgNxa7dvuGvZpEz_O-73" style="edgeStyle=orthogonalEdgeStyle;rounded=0;orthogonalLoop=1;jettySize=auto;html=1;exitX=1;exitY=0.5;exitDx=0;exitDy=0;entryX=-0.01;entryY=0.574;entryDx=0;entryDy=0;entryPerimeter=0;" parent="1" source="PUtHgNxa7dvuGvZpEz_O-65" target="PUtHgNxa7dvuGvZpEz_O-72" edge="1">
          <mxGeometry relative="1" as="geometry" />
        </mxCell>
        <mxCell id="PUtHgNxa7dvuGvZpEz_O-74" style="edgeStyle=orthogonalEdgeStyle;rounded=0;orthogonalLoop=1;jettySize=auto;html=1;exitX=0;exitY=0.5;exitDx=0;exitDy=0;entryX=1;entryY=0.5;entryDx=0;entryDy=0;" parent="1" source="PUtHgNxa7dvuGvZpEz_O-77" target="PUtHgNxa7dvuGvZpEz_O-78" edge="1">
          <mxGeometry relative="1" as="geometry" />
        </mxCell>
        <mxCell id="PUtHgNxa7dvuGvZpEz_O-75" style="edgeStyle=orthogonalEdgeStyle;rounded=0;orthogonalLoop=1;jettySize=auto;html=1;exitX=1;exitY=0.5;exitDx=0;exitDy=0;entryX=0.5;entryY=1;entryDx=0;entryDy=0;" parent="1" source="PUtHgNxa7dvuGvZpEz_O-77" target="PUtHgNxa7dvuGvZpEz_O-82" edge="1">
          <mxGeometry relative="1" as="geometry" />
        </mxCell>
        <mxCell id="PUtHgNxa7dvuGvZpEz_O-76" style="edgeStyle=orthogonalEdgeStyle;rounded=0;orthogonalLoop=1;jettySize=auto;html=1;exitX=0.5;exitY=1;exitDx=0;exitDy=0;entryX=0.5;entryY=0;entryDx=0;entryDy=0;" parent="1" source="PUtHgNxa7dvuGvZpEz_O-77" target="PUtHgNxa7dvuGvZpEz_O-88" edge="1">
          <mxGeometry relative="1" as="geometry" />
        </mxCell>
        <mxCell id="PUtHgNxa7dvuGvZpEz_O-77" value="Редактирование акции" style="rounded=1;whiteSpace=wrap;html=1;absoluteArcSize=1;arcSize=14;strokeWidth=2;" parent="1" vertex="1">
          <mxGeometry x="1170" y="832" width="130" height="70" as="geometry" />
        </mxCell>
        <mxCell id="PUtHgNxa7dvuGvZpEz_O-78" value="Ввод данных" style="html=1;strokeWidth=2;shape=manualInput;whiteSpace=wrap;rounded=1;size=26;arcSize=11;" parent="1" vertex="1">
          <mxGeometry x="1000" y="792" width="120" height="70" as="geometry" />
        </mxCell>
        <mxCell id="PUtHgNxa7dvuGvZpEz_O-79" value="BookingHotelDB" style="strokeWidth=2;html=1;shape=mxgraph.flowchart.database;whiteSpace=wrap;" parent="1" vertex="1">
          <mxGeometry x="1010" y="882" width="110" height="60" as="geometry" />
        </mxCell>
        <mxCell id="PUtHgNxa7dvuGvZpEz_O-80" style="edgeStyle=orthogonalEdgeStyle;rounded=0;orthogonalLoop=1;jettySize=auto;html=1;exitX=0;exitY=0.5;exitDx=0;exitDy=0;entryX=1;entryY=0.5;entryDx=0;entryDy=0;entryPerimeter=0;" parent="1" source="PUtHgNxa7dvuGvZpEz_O-77" target="PUtHgNxa7dvuGvZpEz_O-79" edge="1">
          <mxGeometry relative="1" as="geometry" />
        </mxCell>
        <mxCell id="PUtHgNxa7dvuGvZpEz_O-81" value="" style="group" parent="1" vertex="1" connectable="0">
          <mxGeometry x="1345" y="797" width="125" height="60" as="geometry" />
        </mxCell>
        <mxCell id="PUtHgNxa7dvuGvZpEz_O-82" value="" style="verticalLabelPosition=bottom;verticalAlign=top;html=1;shape=offPageConnector;rounded=0;size=0.5;rotation=90;" parent="PUtHgNxa7dvuGvZpEz_O-81" vertex="1">
          <mxGeometry x="32.5" y="-32.5" width="60" height="125" as="geometry" />
        </mxCell>
        <mxCell id="PUtHgNxa7dvuGvZpEz_O-83" value="Ответ пользователю" style="text;html=1;strokeColor=none;fillColor=none;align=center;verticalAlign=middle;whiteSpace=wrap;rounded=0;" parent="PUtHgNxa7dvuGvZpEz_O-81" vertex="1">
          <mxGeometry x="52.5" y="10" width="60" height="30" as="geometry" />
        </mxCell>
        <mxCell id="PUtHgNxa7dvuGvZpEz_O-84" value="BookingHotelDB" style="strokeWidth=2;html=1;shape=mxgraph.flowchart.database;whiteSpace=wrap;" parent="1" vertex="1">
          <mxGeometry x="1345" y="882" width="110" height="60" as="geometry" />
        </mxCell>
        <mxCell id="PUtHgNxa7dvuGvZpEz_O-85" style="edgeStyle=orthogonalEdgeStyle;rounded=0;orthogonalLoop=1;jettySize=auto;html=1;exitX=1;exitY=0.5;exitDx=0;exitDy=0;entryX=-0.01;entryY=0.574;entryDx=0;entryDy=0;entryPerimeter=0;" parent="1" source="PUtHgNxa7dvuGvZpEz_O-77" target="PUtHgNxa7dvuGvZpEz_O-84" edge="1">
          <mxGeometry relative="1" as="geometry" />
        </mxCell>
        <mxCell id="PUtHgNxa7dvuGvZpEz_O-86" style="edgeStyle=orthogonalEdgeStyle;rounded=0;orthogonalLoop=1;jettySize=auto;html=1;exitX=0;exitY=0.5;exitDx=0;exitDy=0;entryX=1;entryY=0.5;entryDx=0;entryDy=0;" parent="1" source="PUtHgNxa7dvuGvZpEz_O-88" target="PUtHgNxa7dvuGvZpEz_O-89" edge="1">
          <mxGeometry relative="1" as="geometry" />
        </mxCell>
        <mxCell id="PUtHgNxa7dvuGvZpEz_O-87" style="edgeStyle=orthogonalEdgeStyle;rounded=0;orthogonalLoop=1;jettySize=auto;html=1;exitX=1;exitY=0.5;exitDx=0;exitDy=0;entryX=0.5;entryY=1;entryDx=0;entryDy=0;" parent="1" source="PUtHgNxa7dvuGvZpEz_O-88" target="PUtHgNxa7dvuGvZpEz_O-93" edge="1">
          <mxGeometry relative="1" as="geometry" />
        </mxCell>
        <mxCell id="PUtHgNxa7dvuGvZpEz_O-158" style="edgeStyle=orthogonalEdgeStyle;rounded=0;orthogonalLoop=1;jettySize=auto;html=1;exitX=0.5;exitY=1;exitDx=0;exitDy=0;entryX=0.5;entryY=0;entryDx=0;entryDy=0;" parent="1" source="PUtHgNxa7dvuGvZpEz_O-88" target="PUtHgNxa7dvuGvZpEz_O-157" edge="1">
          <mxGeometry relative="1" as="geometry" />
        </mxCell>
        <mxCell id="PUtHgNxa7dvuGvZpEz_O-88" value="Удаление акции" style="rounded=1;whiteSpace=wrap;html=1;absoluteArcSize=1;arcSize=14;strokeWidth=2;" parent="1" vertex="1">
          <mxGeometry x="1170" y="992" width="130" height="70" as="geometry" />
        </mxCell>
        <mxCell id="PUtHgNxa7dvuGvZpEz_O-89" value="Выбор данных" style="html=1;strokeWidth=2;shape=manualInput;whiteSpace=wrap;rounded=1;size=26;arcSize=11;" parent="1" vertex="1">
          <mxGeometry x="1000" y="952" width="120" height="70" as="geometry" />
        </mxCell>
        <mxCell id="PUtHgNxa7dvuGvZpEz_O-90" value="BookingHotelDB" style="strokeWidth=2;html=1;shape=mxgraph.flowchart.database;whiteSpace=wrap;" parent="1" vertex="1">
          <mxGeometry x="1010" y="1042" width="110" height="60" as="geometry" />
        </mxCell>
        <mxCell id="PUtHgNxa7dvuGvZpEz_O-91" style="edgeStyle=orthogonalEdgeStyle;rounded=0;orthogonalLoop=1;jettySize=auto;html=1;exitX=0;exitY=0.5;exitDx=0;exitDy=0;entryX=1;entryY=0.5;entryDx=0;entryDy=0;entryPerimeter=0;" parent="1" source="PUtHgNxa7dvuGvZpEz_O-88" target="PUtHgNxa7dvuGvZpEz_O-90" edge="1">
          <mxGeometry relative="1" as="geometry" />
        </mxCell>
        <mxCell id="PUtHgNxa7dvuGvZpEz_O-92" value="" style="group" parent="1" vertex="1" connectable="0">
          <mxGeometry x="1345" y="957" width="125" height="60" as="geometry" />
        </mxCell>
        <mxCell id="PUtHgNxa7dvuGvZpEz_O-93" value="" style="verticalLabelPosition=bottom;verticalAlign=top;html=1;shape=offPageConnector;rounded=0;size=0.5;rotation=90;" parent="PUtHgNxa7dvuGvZpEz_O-92" vertex="1">
          <mxGeometry x="32.5" y="-32.5" width="60" height="125" as="geometry" />
        </mxCell>
        <mxCell id="PUtHgNxa7dvuGvZpEz_O-94" value="Ответ пользователю" style="text;html=1;strokeColor=none;fillColor=none;align=center;verticalAlign=middle;whiteSpace=wrap;rounded=0;" parent="PUtHgNxa7dvuGvZpEz_O-92" vertex="1">
          <mxGeometry x="52.5" y="10" width="60" height="30" as="geometry" />
        </mxCell>
        <mxCell id="PUtHgNxa7dvuGvZpEz_O-95" value="BookingHotelDB" style="strokeWidth=2;html=1;shape=mxgraph.flowchart.database;whiteSpace=wrap;" parent="1" vertex="1">
          <mxGeometry x="1345" y="1042" width="110" height="60" as="geometry" />
        </mxCell>
        <mxCell id="PUtHgNxa7dvuGvZpEz_O-96" style="edgeStyle=orthogonalEdgeStyle;rounded=0;orthogonalLoop=1;jettySize=auto;html=1;exitX=1;exitY=0.5;exitDx=0;exitDy=0;entryX=-0.01;entryY=0.574;entryDx=0;entryDy=0;entryPerimeter=0;" parent="1" source="PUtHgNxa7dvuGvZpEz_O-88" target="PUtHgNxa7dvuGvZpEz_O-95" edge="1">
          <mxGeometry relative="1" as="geometry" />
        </mxCell>
        <mxCell id="PUtHgNxa7dvuGvZpEz_O-98" style="edgeStyle=orthogonalEdgeStyle;rounded=0;orthogonalLoop=1;jettySize=auto;html=1;exitX=0;exitY=0.5;exitDx=0;exitDy=0;entryX=1;entryY=0.5;entryDx=0;entryDy=0;" parent="1" source="PUtHgNxa7dvuGvZpEz_O-101" target="PUtHgNxa7dvuGvZpEz_O-102" edge="1">
          <mxGeometry relative="1" as="geometry" />
        </mxCell>
        <mxCell id="PUtHgNxa7dvuGvZpEz_O-99" style="edgeStyle=orthogonalEdgeStyle;rounded=0;orthogonalLoop=1;jettySize=auto;html=1;exitX=1;exitY=0.5;exitDx=0;exitDy=0;entryX=0.5;entryY=1;entryDx=0;entryDy=0;" parent="1" source="PUtHgNxa7dvuGvZpEz_O-101" target="PUtHgNxa7dvuGvZpEz_O-106" edge="1">
          <mxGeometry relative="1" as="geometry" />
        </mxCell>
        <mxCell id="PUtHgNxa7dvuGvZpEz_O-100" style="edgeStyle=orthogonalEdgeStyle;rounded=0;orthogonalLoop=1;jettySize=auto;html=1;exitX=0.5;exitY=1;exitDx=0;exitDy=0;entryX=0.5;entryY=0;entryDx=0;entryDy=0;" parent="1" source="PUtHgNxa7dvuGvZpEz_O-101" target="PUtHgNxa7dvuGvZpEz_O-113" edge="1">
          <mxGeometry relative="1" as="geometry" />
        </mxCell>
        <mxCell id="PUtHgNxa7dvuGvZpEz_O-101" value="Создание расценки" style="rounded=1;whiteSpace=wrap;html=1;absoluteArcSize=1;arcSize=14;strokeWidth=2;" parent="1" vertex="1">
          <mxGeometry x="1880" y="197.5" width="130" height="70" as="geometry" />
        </mxCell>
        <mxCell id="PUtHgNxa7dvuGvZpEz_O-102" value="Ввод данных" style="html=1;strokeWidth=2;shape=manualInput;whiteSpace=wrap;rounded=1;size=26;arcSize=11;" parent="1" vertex="1">
          <mxGeometry x="1710" y="157.5" width="120" height="70" as="geometry" />
        </mxCell>
        <mxCell id="PUtHgNxa7dvuGvZpEz_O-103" value="BookingHotelDB" style="strokeWidth=2;html=1;shape=mxgraph.flowchart.database;whiteSpace=wrap;" parent="1" vertex="1">
          <mxGeometry x="1720" y="247.5" width="110" height="60" as="geometry" />
        </mxCell>
        <mxCell id="PUtHgNxa7dvuGvZpEz_O-104" style="edgeStyle=orthogonalEdgeStyle;rounded=0;orthogonalLoop=1;jettySize=auto;html=1;exitX=0;exitY=0.5;exitDx=0;exitDy=0;entryX=1;entryY=0.5;entryDx=0;entryDy=0;entryPerimeter=0;" parent="1" source="PUtHgNxa7dvuGvZpEz_O-101" target="PUtHgNxa7dvuGvZpEz_O-103" edge="1">
          <mxGeometry relative="1" as="geometry" />
        </mxCell>
        <mxCell id="PUtHgNxa7dvuGvZpEz_O-105" value="" style="group" parent="1" vertex="1" connectable="0">
          <mxGeometry x="2055" y="162.5" width="125" height="60" as="geometry" />
        </mxCell>
        <mxCell id="PUtHgNxa7dvuGvZpEz_O-106" value="" style="verticalLabelPosition=bottom;verticalAlign=top;html=1;shape=offPageConnector;rounded=0;size=0.5;rotation=90;" parent="PUtHgNxa7dvuGvZpEz_O-105" vertex="1">
          <mxGeometry x="32.5" y="-32.5" width="60" height="125" as="geometry" />
        </mxCell>
        <mxCell id="PUtHgNxa7dvuGvZpEz_O-107" value="Ответ пользователю" style="text;html=1;strokeColor=none;fillColor=none;align=center;verticalAlign=middle;whiteSpace=wrap;rounded=0;" parent="PUtHgNxa7dvuGvZpEz_O-105" vertex="1">
          <mxGeometry x="52.5" y="10" width="60" height="30" as="geometry" />
        </mxCell>
        <mxCell id="PUtHgNxa7dvuGvZpEz_O-108" value="BookingHotelDB" style="strokeWidth=2;html=1;shape=mxgraph.flowchart.database;whiteSpace=wrap;" parent="1" vertex="1">
          <mxGeometry x="2055" y="247.5" width="110" height="60" as="geometry" />
        </mxCell>
        <mxCell id="PUtHgNxa7dvuGvZpEz_O-109" style="edgeStyle=orthogonalEdgeStyle;rounded=0;orthogonalLoop=1;jettySize=auto;html=1;exitX=1;exitY=0.5;exitDx=0;exitDy=0;entryX=-0.01;entryY=0.574;entryDx=0;entryDy=0;entryPerimeter=0;" parent="1" source="PUtHgNxa7dvuGvZpEz_O-101" target="PUtHgNxa7dvuGvZpEz_O-108" edge="1">
          <mxGeometry relative="1" as="geometry" />
        </mxCell>
        <mxCell id="PUtHgNxa7dvuGvZpEz_O-110" style="edgeStyle=orthogonalEdgeStyle;rounded=0;orthogonalLoop=1;jettySize=auto;html=1;exitX=0;exitY=0.5;exitDx=0;exitDy=0;entryX=1;entryY=0.5;entryDx=0;entryDy=0;" parent="1" source="PUtHgNxa7dvuGvZpEz_O-113" target="PUtHgNxa7dvuGvZpEz_O-114" edge="1">
          <mxGeometry relative="1" as="geometry" />
        </mxCell>
        <mxCell id="PUtHgNxa7dvuGvZpEz_O-111" style="edgeStyle=orthogonalEdgeStyle;rounded=0;orthogonalLoop=1;jettySize=auto;html=1;exitX=1;exitY=0.5;exitDx=0;exitDy=0;entryX=0.5;entryY=1;entryDx=0;entryDy=0;" parent="1" source="PUtHgNxa7dvuGvZpEz_O-113" target="PUtHgNxa7dvuGvZpEz_O-118" edge="1">
          <mxGeometry relative="1" as="geometry" />
        </mxCell>
        <mxCell id="PUtHgNxa7dvuGvZpEz_O-112" style="edgeStyle=orthogonalEdgeStyle;rounded=0;orthogonalLoop=1;jettySize=auto;html=1;exitX=0.5;exitY=1;exitDx=0;exitDy=0;entryX=0.5;entryY=0;entryDx=0;entryDy=0;" parent="1" source="PUtHgNxa7dvuGvZpEz_O-113" target="PUtHgNxa7dvuGvZpEz_O-124" edge="1">
          <mxGeometry relative="1" as="geometry" />
        </mxCell>
        <mxCell id="PUtHgNxa7dvuGvZpEz_O-113" value="Редактирование расценки" style="rounded=1;whiteSpace=wrap;html=1;absoluteArcSize=1;arcSize=14;strokeWidth=2;" parent="1" vertex="1">
          <mxGeometry x="1880" y="357.5" width="130" height="70" as="geometry" />
        </mxCell>
        <mxCell id="PUtHgNxa7dvuGvZpEz_O-114" value="Ввод данных" style="html=1;strokeWidth=2;shape=manualInput;whiteSpace=wrap;rounded=1;size=26;arcSize=11;" parent="1" vertex="1">
          <mxGeometry x="1710" y="317.5" width="120" height="70" as="geometry" />
        </mxCell>
        <mxCell id="PUtHgNxa7dvuGvZpEz_O-115" value="BookingHotelDB" style="strokeWidth=2;html=1;shape=mxgraph.flowchart.database;whiteSpace=wrap;" parent="1" vertex="1">
          <mxGeometry x="1720" y="407.5" width="110" height="60" as="geometry" />
        </mxCell>
        <mxCell id="PUtHgNxa7dvuGvZpEz_O-116" style="edgeStyle=orthogonalEdgeStyle;rounded=0;orthogonalLoop=1;jettySize=auto;html=1;exitX=0;exitY=0.5;exitDx=0;exitDy=0;entryX=1;entryY=0.5;entryDx=0;entryDy=0;entryPerimeter=0;" parent="1" source="PUtHgNxa7dvuGvZpEz_O-113" target="PUtHgNxa7dvuGvZpEz_O-115" edge="1">
          <mxGeometry relative="1" as="geometry" />
        </mxCell>
        <mxCell id="PUtHgNxa7dvuGvZpEz_O-117" value="" style="group" parent="1" vertex="1" connectable="0">
          <mxGeometry x="2055" y="322.5" width="125" height="60" as="geometry" />
        </mxCell>
        <mxCell id="PUtHgNxa7dvuGvZpEz_O-118" value="" style="verticalLabelPosition=bottom;verticalAlign=top;html=1;shape=offPageConnector;rounded=0;size=0.5;rotation=90;" parent="PUtHgNxa7dvuGvZpEz_O-117" vertex="1">
          <mxGeometry x="32.5" y="-32.5" width="60" height="125" as="geometry" />
        </mxCell>
        <mxCell id="PUtHgNxa7dvuGvZpEz_O-119" value="Ответ пользователю" style="text;html=1;strokeColor=none;fillColor=none;align=center;verticalAlign=middle;whiteSpace=wrap;rounded=0;" parent="PUtHgNxa7dvuGvZpEz_O-117" vertex="1">
          <mxGeometry x="52.5" y="10" width="60" height="30" as="geometry" />
        </mxCell>
        <mxCell id="PUtHgNxa7dvuGvZpEz_O-120" value="BookingHotelDB" style="strokeWidth=2;html=1;shape=mxgraph.flowchart.database;whiteSpace=wrap;" parent="1" vertex="1">
          <mxGeometry x="2055" y="407.5" width="110" height="60" as="geometry" />
        </mxCell>
        <mxCell id="PUtHgNxa7dvuGvZpEz_O-121" style="edgeStyle=orthogonalEdgeStyle;rounded=0;orthogonalLoop=1;jettySize=auto;html=1;exitX=1;exitY=0.5;exitDx=0;exitDy=0;entryX=-0.01;entryY=0.574;entryDx=0;entryDy=0;entryPerimeter=0;" parent="1" source="PUtHgNxa7dvuGvZpEz_O-113" target="PUtHgNxa7dvuGvZpEz_O-120" edge="1">
          <mxGeometry relative="1" as="geometry" />
        </mxCell>
        <mxCell id="PUtHgNxa7dvuGvZpEz_O-122" style="edgeStyle=orthogonalEdgeStyle;rounded=0;orthogonalLoop=1;jettySize=auto;html=1;exitX=0;exitY=0.5;exitDx=0;exitDy=0;entryX=1;entryY=0.5;entryDx=0;entryDy=0;" parent="1" source="PUtHgNxa7dvuGvZpEz_O-124" target="PUtHgNxa7dvuGvZpEz_O-125" edge="1">
          <mxGeometry relative="1" as="geometry" />
        </mxCell>
        <mxCell id="PUtHgNxa7dvuGvZpEz_O-123" style="edgeStyle=orthogonalEdgeStyle;rounded=0;orthogonalLoop=1;jettySize=auto;html=1;exitX=1;exitY=0.5;exitDx=0;exitDy=0;entryX=0.5;entryY=1;entryDx=0;entryDy=0;" parent="1" source="PUtHgNxa7dvuGvZpEz_O-124" target="PUtHgNxa7dvuGvZpEz_O-129" edge="1">
          <mxGeometry relative="1" as="geometry" />
        </mxCell>
        <mxCell id="PUtHgNxa7dvuGvZpEz_O-124" value="Удаление расценки" style="rounded=1;whiteSpace=wrap;html=1;absoluteArcSize=1;arcSize=14;strokeWidth=2;" parent="1" vertex="1">
          <mxGeometry x="1880" y="517.5" width="130" height="70" as="geometry" />
        </mxCell>
        <mxCell id="PUtHgNxa7dvuGvZpEz_O-125" value="Выбор данных" style="html=1;strokeWidth=2;shape=manualInput;whiteSpace=wrap;rounded=1;size=26;arcSize=11;" parent="1" vertex="1">
          <mxGeometry x="1710" y="477.5" width="120" height="70" as="geometry" />
        </mxCell>
        <mxCell id="PUtHgNxa7dvuGvZpEz_O-126" value="BookingHotelDB" style="strokeWidth=2;html=1;shape=mxgraph.flowchart.database;whiteSpace=wrap;" parent="1" vertex="1">
          <mxGeometry x="1720" y="567.5" width="110" height="60" as="geometry" />
        </mxCell>
        <mxCell id="PUtHgNxa7dvuGvZpEz_O-127" style="edgeStyle=orthogonalEdgeStyle;rounded=0;orthogonalLoop=1;jettySize=auto;html=1;exitX=0;exitY=0.5;exitDx=0;exitDy=0;entryX=1;entryY=0.5;entryDx=0;entryDy=0;entryPerimeter=0;" parent="1" source="PUtHgNxa7dvuGvZpEz_O-124" target="PUtHgNxa7dvuGvZpEz_O-126" edge="1">
          <mxGeometry relative="1" as="geometry" />
        </mxCell>
        <mxCell id="PUtHgNxa7dvuGvZpEz_O-128" value="" style="group" parent="1" vertex="1" connectable="0">
          <mxGeometry x="2055" y="482.5" width="125" height="60" as="geometry" />
        </mxCell>
        <mxCell id="PUtHgNxa7dvuGvZpEz_O-129" value="" style="verticalLabelPosition=bottom;verticalAlign=top;html=1;shape=offPageConnector;rounded=0;size=0.5;rotation=90;" parent="PUtHgNxa7dvuGvZpEz_O-128" vertex="1">
          <mxGeometry x="32.5" y="-32.5" width="60" height="125" as="geometry" />
        </mxCell>
        <mxCell id="PUtHgNxa7dvuGvZpEz_O-130" value="Ответ пользователю" style="text;html=1;strokeColor=none;fillColor=none;align=center;verticalAlign=middle;whiteSpace=wrap;rounded=0;" parent="PUtHgNxa7dvuGvZpEz_O-128" vertex="1">
          <mxGeometry x="52.5" y="10" width="60" height="30" as="geometry" />
        </mxCell>
        <mxCell id="PUtHgNxa7dvuGvZpEz_O-131" value="BookingHotelDB" style="strokeWidth=2;html=1;shape=mxgraph.flowchart.database;whiteSpace=wrap;" parent="1" vertex="1">
          <mxGeometry x="2055" y="567.5" width="110" height="60" as="geometry" />
        </mxCell>
        <mxCell id="PUtHgNxa7dvuGvZpEz_O-132" style="edgeStyle=orthogonalEdgeStyle;rounded=0;orthogonalLoop=1;jettySize=auto;html=1;exitX=1;exitY=0.5;exitDx=0;exitDy=0;entryX=-0.01;entryY=0.574;entryDx=0;entryDy=0;entryPerimeter=0;" parent="1" source="PUtHgNxa7dvuGvZpEz_O-124" target="PUtHgNxa7dvuGvZpEz_O-131" edge="1">
          <mxGeometry relative="1" as="geometry" />
        </mxCell>
        <mxCell id="PUtHgNxa7dvuGvZpEz_O-133" style="edgeStyle=orthogonalEdgeStyle;rounded=0;orthogonalLoop=1;jettySize=auto;html=1;exitX=0;exitY=0.5;exitDx=0;exitDy=0;entryX=1;entryY=0.5;entryDx=0;entryDy=0;" parent="1" source="PUtHgNxa7dvuGvZpEz_O-135" target="PUtHgNxa7dvuGvZpEz_O-136" edge="1">
          <mxGeometry relative="1" as="geometry" />
        </mxCell>
        <mxCell id="PUtHgNxa7dvuGvZpEz_O-134" style="edgeStyle=orthogonalEdgeStyle;rounded=0;orthogonalLoop=1;jettySize=auto;html=1;exitX=1;exitY=0.5;exitDx=0;exitDy=0;entryX=0.5;entryY=1;entryDx=0;entryDy=0;" parent="1" source="PUtHgNxa7dvuGvZpEz_O-135" target="PUtHgNxa7dvuGvZpEz_O-140" edge="1">
          <mxGeometry relative="1" as="geometry" />
        </mxCell>
        <mxCell id="PUtHgNxa7dvuGvZpEz_O-150" style="edgeStyle=orthogonalEdgeStyle;rounded=0;orthogonalLoop=1;jettySize=auto;html=1;exitX=0.5;exitY=1;exitDx=0;exitDy=0;entryX=0.5;entryY=0;entryDx=0;entryDy=0;" parent="1" source="PUtHgNxa7dvuGvZpEz_O-135" target="PUtHgNxa7dvuGvZpEz_O-144" edge="1">
          <mxGeometry relative="1" as="geometry" />
        </mxCell>
        <mxCell id="PUtHgNxa7dvuGvZpEz_O-135" value="Вывод справки" style="rounded=1;whiteSpace=wrap;html=1;absoluteArcSize=1;arcSize=14;strokeWidth=2;" parent="1" vertex="1">
          <mxGeometry x="435" y="912" width="130" height="70" as="geometry" />
        </mxCell>
        <mxCell id="PUtHgNxa7dvuGvZpEz_O-136" value="Выбор пункта" style="html=1;strokeWidth=2;shape=manualInput;whiteSpace=wrap;rounded=1;size=26;arcSize=11;" parent="1" vertex="1">
          <mxGeometry x="265" y="872" width="120" height="70" as="geometry" />
        </mxCell>
        <mxCell id="PUtHgNxa7dvuGvZpEz_O-137" value="BookingHotelDB" style="strokeWidth=2;html=1;shape=mxgraph.flowchart.database;whiteSpace=wrap;" parent="1" vertex="1">
          <mxGeometry x="275" y="962" width="110" height="60" as="geometry" />
        </mxCell>
        <mxCell id="PUtHgNxa7dvuGvZpEz_O-138" style="edgeStyle=orthogonalEdgeStyle;rounded=0;orthogonalLoop=1;jettySize=auto;html=1;exitX=0;exitY=0.5;exitDx=0;exitDy=0;entryX=1;entryY=0.5;entryDx=0;entryDy=0;entryPerimeter=0;" parent="1" source="PUtHgNxa7dvuGvZpEz_O-135" target="PUtHgNxa7dvuGvZpEz_O-137" edge="1">
          <mxGeometry relative="1" as="geometry" />
        </mxCell>
        <mxCell id="PUtHgNxa7dvuGvZpEz_O-139" value="" style="group" parent="1" vertex="1" connectable="0">
          <mxGeometry x="610" y="917" width="125" height="60" as="geometry" />
        </mxCell>
        <mxCell id="PUtHgNxa7dvuGvZpEz_O-140" value="" style="verticalLabelPosition=bottom;verticalAlign=top;html=1;shape=offPageConnector;rounded=0;size=0.5;rotation=90;" parent="PUtHgNxa7dvuGvZpEz_O-139" vertex="1">
          <mxGeometry x="32.5" y="-32.5" width="60" height="125" as="geometry" />
        </mxCell>
        <mxCell id="PUtHgNxa7dvuGvZpEz_O-141" value="Ответ пользователю" style="text;html=1;strokeColor=none;fillColor=none;align=center;verticalAlign=middle;whiteSpace=wrap;rounded=0;" parent="PUtHgNxa7dvuGvZpEz_O-139" vertex="1">
          <mxGeometry x="52.5" y="10" width="60" height="30" as="geometry" />
        </mxCell>
        <mxCell id="PUtHgNxa7dvuGvZpEz_O-143" style="edgeStyle=orthogonalEdgeStyle;rounded=0;orthogonalLoop=1;jettySize=auto;html=1;exitX=1;exitY=0.5;exitDx=0;exitDy=0;entryX=0.5;entryY=1;entryDx=0;entryDy=0;" parent="1" source="PUtHgNxa7dvuGvZpEz_O-144" target="PUtHgNxa7dvuGvZpEz_O-148" edge="1">
          <mxGeometry relative="1" as="geometry" />
        </mxCell>
        <mxCell id="PUtHgNxa7dvuGvZpEz_O-153" style="edgeStyle=orthogonalEdgeStyle;rounded=0;orthogonalLoop=1;jettySize=auto;html=1;exitX=0.5;exitY=1;exitDx=0;exitDy=0;entryX=0.5;entryY=0;entryDx=0;entryDy=0;" parent="1" source="PUtHgNxa7dvuGvZpEz_O-144" target="PUtHgNxa7dvuGvZpEz_O-152" edge="1">
          <mxGeometry relative="1" as="geometry" />
        </mxCell>
        <mxCell id="PUtHgNxa7dvuGvZpEz_O-144" value="Вывод на печать" style="rounded=1;whiteSpace=wrap;html=1;absoluteArcSize=1;arcSize=14;strokeWidth=2;" parent="1" vertex="1">
          <mxGeometry x="435" y="1032" width="130" height="70" as="geometry" />
        </mxCell>
        <mxCell id="PUtHgNxa7dvuGvZpEz_O-145" value="BookingHotelDB" style="strokeWidth=2;html=1;shape=mxgraph.flowchart.database;whiteSpace=wrap;" parent="1" vertex="1">
          <mxGeometry x="275" y="1037" width="110" height="60" as="geometry" />
        </mxCell>
        <mxCell id="PUtHgNxa7dvuGvZpEz_O-146" style="edgeStyle=orthogonalEdgeStyle;rounded=0;orthogonalLoop=1;jettySize=auto;html=1;exitX=0;exitY=0.5;exitDx=0;exitDy=0;entryX=1;entryY=0.5;entryDx=0;entryDy=0;entryPerimeter=0;" parent="1" source="PUtHgNxa7dvuGvZpEz_O-144" target="PUtHgNxa7dvuGvZpEz_O-145" edge="1">
          <mxGeometry relative="1" as="geometry" />
        </mxCell>
        <mxCell id="PUtHgNxa7dvuGvZpEz_O-147" value="" style="group" parent="1" vertex="1" connectable="0">
          <mxGeometry x="610" y="1037" width="125" height="60" as="geometry" />
        </mxCell>
        <mxCell id="PUtHgNxa7dvuGvZpEz_O-148" value="" style="verticalLabelPosition=bottom;verticalAlign=top;html=1;shape=offPageConnector;rounded=0;size=0.5;rotation=90;" parent="PUtHgNxa7dvuGvZpEz_O-147" vertex="1">
          <mxGeometry x="32.5" y="-32.5" width="60" height="125" as="geometry" />
        </mxCell>
        <mxCell id="PUtHgNxa7dvuGvZpEz_O-149" value="Ответ пользователю" style="text;html=1;strokeColor=none;fillColor=none;align=center;verticalAlign=middle;whiteSpace=wrap;rounded=0;" parent="PUtHgNxa7dvuGvZpEz_O-147" vertex="1">
          <mxGeometry x="52.5" y="10" width="60" height="30" as="geometry" />
        </mxCell>
        <mxCell id="PUtHgNxa7dvuGvZpEz_O-152" value="" style="verticalLabelPosition=bottom;verticalAlign=top;html=1;shape=offPageConnector;rounded=0;size=0.5;" parent="1" vertex="1">
          <mxGeometry x="470" y="1130" width="60" height="60" as="geometry" />
        </mxCell>
        <mxCell id="PUtHgNxa7dvuGvZpEz_O-154" value="1" style="text;html=1;strokeColor=none;fillColor=none;align=center;verticalAlign=middle;whiteSpace=wrap;rounded=0;" parent="1" vertex="1">
          <mxGeometry x="470" y="1139" width="60" height="30" as="geometry" />
        </mxCell>
        <mxCell id="PUtHgNxa7dvuGvZpEz_O-155" value="" style="verticalLabelPosition=bottom;verticalAlign=top;html=1;shape=offPageConnector;rounded=0;size=0.5;rotation=-180;" parent="1" vertex="1">
          <mxGeometry x="1205" y="90" width="60" height="60" as="geometry" />
        </mxCell>
        <mxCell id="PUtHgNxa7dvuGvZpEz_O-156" value="1" style="text;html=1;strokeColor=none;fillColor=none;align=center;verticalAlign=middle;whiteSpace=wrap;rounded=0;" parent="1" vertex="1">
          <mxGeometry x="1205" y="110" width="60" height="30" as="geometry" />
        </mxCell>
        <mxCell id="PUtHgNxa7dvuGvZpEz_O-157" value="" style="verticalLabelPosition=bottom;verticalAlign=top;html=1;shape=offPageConnector;rounded=0;size=0.5;" parent="1" vertex="1">
          <mxGeometry x="1205" y="1124" width="60" height="60" as="geometry" />
        </mxCell>
        <mxCell id="PUtHgNxa7dvuGvZpEz_O-159" value="2" style="text;html=1;strokeColor=none;fillColor=none;align=center;verticalAlign=middle;whiteSpace=wrap;rounded=0;" parent="1" vertex="1">
          <mxGeometry x="1205" y="1130" width="60" height="30" as="geometry" />
        </mxCell>
        <mxCell id="PUtHgNxa7dvuGvZpEz_O-161" style="edgeStyle=orthogonalEdgeStyle;rounded=0;orthogonalLoop=1;jettySize=auto;html=1;exitX=0.5;exitY=0;exitDx=0;exitDy=0;entryX=0.5;entryY=0;entryDx=0;entryDy=0;" parent="1" source="PUtHgNxa7dvuGvZpEz_O-160" target="PUtHgNxa7dvuGvZpEz_O-101" edge="1">
          <mxGeometry relative="1" as="geometry" />
        </mxCell>
        <mxCell id="PUtHgNxa7dvuGvZpEz_O-160" value="" style="verticalLabelPosition=bottom;verticalAlign=top;html=1;shape=offPageConnector;rounded=0;size=0.5;rotation=-180;" parent="1" vertex="1">
          <mxGeometry x="1915" y="90" width="60" height="60" as="geometry" />
        </mxCell>
        <mxCell id="PUtHgNxa7dvuGvZpEz_O-162" value="2" style="text;html=1;strokeColor=none;fillColor=none;align=center;verticalAlign=middle;whiteSpace=wrap;rounded=0;" parent="1" vertex="1">
          <mxGeometry x="1915" y="110" width="60" height="30" as="geometry" />
        </mxCell>
        <mxCell id="PUtHgNxa7dvuGvZpEz_O-163" value="Конец" style="strokeWidth=2;html=1;shape=mxgraph.flowchart.terminator;whiteSpace=wrap;" parent="1" vertex="1">
          <mxGeometry x="1895" y="627.5" width="100" height="60" as="geometry" />
        </mxCell>
        <mxCell id="PUtHgNxa7dvuGvZpEz_O-164" style="edgeStyle=orthogonalEdgeStyle;rounded=0;orthogonalLoop=1;jettySize=auto;html=1;exitX=0.5;exitY=1;exitDx=0;exitDy=0;entryX=0.5;entryY=0;entryDx=0;entryDy=0;entryPerimeter=0;" parent="1" source="PUtHgNxa7dvuGvZpEz_O-124" target="PUtHgNxa7dvuGvZpEz_O-163" edge="1">
          <mxGeometry relative="1" as="geometry" />
        </mxCell>
      </root>
    </mxGraphModel>
  </diagram>
  <diagram id="Xsle8I0MUeO57JsYtm29" name="Страница — 2">
    <mxGraphModel dx="1887" dy="853" grid="1" gridSize="10" guides="1" tooltips="1" connect="1" arrows="1" fold="1" page="1" pageScale="1" pageWidth="827" pageHeight="1169" math="0" shadow="0">
      <root>
        <mxCell id="0" />
        <mxCell id="1" parent="0" />
        <mxCell id="9N4F_QEtPgm_CZuRJI3r-79" style="edgeStyle=orthogonalEdgeStyle;rounded=0;orthogonalLoop=1;jettySize=auto;html=1;exitX=0.5;exitY=1;exitDx=0;exitDy=0;entryX=0.5;entryY=0;entryDx=0;entryDy=0;" parent="1" source="9N4F_QEtPgm_CZuRJI3r-1" target="9N4F_QEtPgm_CZuRJI3r-2" edge="1">
          <mxGeometry relative="1" as="geometry" />
        </mxCell>
        <mxCell id="9N4F_QEtPgm_CZuRJI3r-80" style="edgeStyle=orthogonalEdgeStyle;rounded=0;orthogonalLoop=1;jettySize=auto;html=1;exitX=0.5;exitY=1;exitDx=0;exitDy=0;entryX=0.5;entryY=0;entryDx=0;entryDy=0;" parent="1" source="9N4F_QEtPgm_CZuRJI3r-1" target="9N4F_QEtPgm_CZuRJI3r-8" edge="1">
          <mxGeometry relative="1" as="geometry" />
        </mxCell>
        <mxCell id="9N4F_QEtPgm_CZuRJI3r-81" style="edgeStyle=orthogonalEdgeStyle;rounded=0;orthogonalLoop=1;jettySize=auto;html=1;exitX=0.5;exitY=1;exitDx=0;exitDy=0;entryX=0.5;entryY=0;entryDx=0;entryDy=0;" parent="1" source="9N4F_QEtPgm_CZuRJI3r-1" target="9N4F_QEtPgm_CZuRJI3r-3" edge="1">
          <mxGeometry relative="1" as="geometry" />
        </mxCell>
        <mxCell id="9N4F_QEtPgm_CZuRJI3r-82" style="edgeStyle=orthogonalEdgeStyle;rounded=0;orthogonalLoop=1;jettySize=auto;html=1;exitX=0.5;exitY=1;exitDx=0;exitDy=0;entryX=0.5;entryY=0;entryDx=0;entryDy=0;" parent="1" source="9N4F_QEtPgm_CZuRJI3r-1" target="9N4F_QEtPgm_CZuRJI3r-50" edge="1">
          <mxGeometry relative="1" as="geometry" />
        </mxCell>
        <mxCell id="9N4F_QEtPgm_CZuRJI3r-83" style="edgeStyle=orthogonalEdgeStyle;rounded=0;orthogonalLoop=1;jettySize=auto;html=1;exitX=0.5;exitY=1;exitDx=0;exitDy=0;entryX=0.5;entryY=0;entryDx=0;entryDy=0;" parent="1" source="9N4F_QEtPgm_CZuRJI3r-1" target="9N4F_QEtPgm_CZuRJI3r-4" edge="1">
          <mxGeometry relative="1" as="geometry" />
        </mxCell>
        <mxCell id="9N4F_QEtPgm_CZuRJI3r-84" style="edgeStyle=orthogonalEdgeStyle;rounded=0;orthogonalLoop=1;jettySize=auto;html=1;exitX=0.5;exitY=1;exitDx=0;exitDy=0;entryX=0.5;entryY=0;entryDx=0;entryDy=0;" parent="1" source="9N4F_QEtPgm_CZuRJI3r-1" target="9N4F_QEtPgm_CZuRJI3r-5" edge="1">
          <mxGeometry relative="1" as="geometry" />
        </mxCell>
        <mxCell id="9N4F_QEtPgm_CZuRJI3r-85" style="edgeStyle=orthogonalEdgeStyle;rounded=0;orthogonalLoop=1;jettySize=auto;html=1;exitX=0.5;exitY=1;exitDx=0;exitDy=0;entryX=0.5;entryY=0;entryDx=0;entryDy=0;" parent="1" source="9N4F_QEtPgm_CZuRJI3r-1" target="9N4F_QEtPgm_CZuRJI3r-6" edge="1">
          <mxGeometry relative="1" as="geometry" />
        </mxCell>
        <mxCell id="9N4F_QEtPgm_CZuRJI3r-86" style="edgeStyle=orthogonalEdgeStyle;rounded=0;orthogonalLoop=1;jettySize=auto;html=1;exitX=0.5;exitY=1;exitDx=0;exitDy=0;entryX=0.5;entryY=0;entryDx=0;entryDy=0;" parent="1" source="9N4F_QEtPgm_CZuRJI3r-1" target="9N4F_QEtPgm_CZuRJI3r-7" edge="1">
          <mxGeometry relative="1" as="geometry" />
        </mxCell>
        <mxCell id="9N4F_QEtPgm_CZuRJI3r-1" value="Учет работ гостиницы" style="rounded=1;whiteSpace=wrap;html=1;absoluteArcSize=1;arcSize=14;strokeWidth=2;" parent="1" vertex="1">
          <mxGeometry x="710" y="150" width="130" height="70" as="geometry" />
        </mxCell>
        <mxCell id="9N4F_QEtPgm_CZuRJI3r-10" style="edgeStyle=orthogonalEdgeStyle;rounded=0;orthogonalLoop=1;jettySize=auto;html=1;exitX=0.25;exitY=1;exitDx=0;exitDy=0;entryX=0;entryY=0.5;entryDx=0;entryDy=0;" parent="1" source="9N4F_QEtPgm_CZuRJI3r-2" target="9N4F_QEtPgm_CZuRJI3r-9" edge="1">
          <mxGeometry relative="1" as="geometry" />
        </mxCell>
        <mxCell id="9N4F_QEtPgm_CZuRJI3r-54" style="edgeStyle=orthogonalEdgeStyle;rounded=0;orthogonalLoop=1;jettySize=auto;html=1;exitX=0.25;exitY=1;exitDx=0;exitDy=0;entryX=0;entryY=0.5;entryDx=0;entryDy=0;" parent="1" source="9N4F_QEtPgm_CZuRJI3r-2" target="9N4F_QEtPgm_CZuRJI3r-11" edge="1">
          <mxGeometry relative="1" as="geometry" />
        </mxCell>
        <mxCell id="9N4F_QEtPgm_CZuRJI3r-2" value="Подсистема авторизации" style="rounded=1;whiteSpace=wrap;html=1;absoluteArcSize=1;arcSize=14;strokeWidth=2;" parent="1" vertex="1">
          <mxGeometry x="110" y="260" width="130" height="70" as="geometry" />
        </mxCell>
        <mxCell id="9N4F_QEtPgm_CZuRJI3r-13" style="edgeStyle=orthogonalEdgeStyle;rounded=0;orthogonalLoop=1;jettySize=auto;html=1;exitX=0.25;exitY=1;exitDx=0;exitDy=0;entryX=0;entryY=0.5;entryDx=0;entryDy=0;" parent="1" source="9N4F_QEtPgm_CZuRJI3r-3" target="9N4F_QEtPgm_CZuRJI3r-12" edge="1">
          <mxGeometry relative="1" as="geometry" />
        </mxCell>
        <mxCell id="9N4F_QEtPgm_CZuRJI3r-55" style="edgeStyle=orthogonalEdgeStyle;rounded=0;orthogonalLoop=1;jettySize=auto;html=1;exitX=0.25;exitY=1;exitDx=0;exitDy=0;entryX=0;entryY=0.5;entryDx=0;entryDy=0;" parent="1" source="9N4F_QEtPgm_CZuRJI3r-3" target="9N4F_QEtPgm_CZuRJI3r-14" edge="1">
          <mxGeometry relative="1" as="geometry" />
        </mxCell>
        <mxCell id="9N4F_QEtPgm_CZuRJI3r-3" value="Подсистема регистрации" style="rounded=1;whiteSpace=wrap;html=1;absoluteArcSize=1;arcSize=14;strokeWidth=2;" parent="1" vertex="1">
          <mxGeometry x="280" y="260" width="130" height="70" as="geometry" />
        </mxCell>
        <mxCell id="9N4F_QEtPgm_CZuRJI3r-21" style="edgeStyle=orthogonalEdgeStyle;rounded=0;orthogonalLoop=1;jettySize=auto;html=1;exitX=0.25;exitY=1;exitDx=0;exitDy=0;entryX=0;entryY=0.5;entryDx=0;entryDy=0;" parent="1" source="9N4F_QEtPgm_CZuRJI3r-4" target="9N4F_QEtPgm_CZuRJI3r-15" edge="1">
          <mxGeometry relative="1" as="geometry" />
        </mxCell>
        <mxCell id="9N4F_QEtPgm_CZuRJI3r-56" style="edgeStyle=orthogonalEdgeStyle;rounded=0;orthogonalLoop=1;jettySize=auto;html=1;exitX=0.25;exitY=1;exitDx=0;exitDy=0;entryX=0;entryY=0.5;entryDx=0;entryDy=0;" parent="1" source="9N4F_QEtPgm_CZuRJI3r-4" target="9N4F_QEtPgm_CZuRJI3r-16" edge="1">
          <mxGeometry relative="1" as="geometry" />
        </mxCell>
        <mxCell id="9N4F_QEtPgm_CZuRJI3r-57" style="edgeStyle=orthogonalEdgeStyle;rounded=0;orthogonalLoop=1;jettySize=auto;html=1;exitX=0.25;exitY=1;exitDx=0;exitDy=0;entryX=0;entryY=0.5;entryDx=0;entryDy=0;" parent="1" source="9N4F_QEtPgm_CZuRJI3r-4" target="9N4F_QEtPgm_CZuRJI3r-17" edge="1">
          <mxGeometry relative="1" as="geometry" />
        </mxCell>
        <mxCell id="9N4F_QEtPgm_CZuRJI3r-59" style="edgeStyle=orthogonalEdgeStyle;rounded=0;orthogonalLoop=1;jettySize=auto;html=1;exitX=0.25;exitY=1;exitDx=0;exitDy=0;entryX=0;entryY=0.5;entryDx=0;entryDy=0;" parent="1" source="9N4F_QEtPgm_CZuRJI3r-4" target="9N4F_QEtPgm_CZuRJI3r-18" edge="1">
          <mxGeometry relative="1" as="geometry" />
        </mxCell>
        <mxCell id="9N4F_QEtPgm_CZuRJI3r-61" style="edgeStyle=orthogonalEdgeStyle;rounded=0;orthogonalLoop=1;jettySize=auto;html=1;exitX=0.25;exitY=1;exitDx=0;exitDy=0;entryX=0;entryY=0.5;entryDx=0;entryDy=0;" parent="1" source="9N4F_QEtPgm_CZuRJI3r-4" target="9N4F_QEtPgm_CZuRJI3r-19" edge="1">
          <mxGeometry relative="1" as="geometry" />
        </mxCell>
        <mxCell id="9N4F_QEtPgm_CZuRJI3r-63" style="edgeStyle=orthogonalEdgeStyle;rounded=0;orthogonalLoop=1;jettySize=auto;html=1;exitX=0.25;exitY=1;exitDx=0;exitDy=0;entryX=0;entryY=0.5;entryDx=0;entryDy=0;" parent="1" source="9N4F_QEtPgm_CZuRJI3r-4" target="9N4F_QEtPgm_CZuRJI3r-20" edge="1">
          <mxGeometry relative="1" as="geometry" />
        </mxCell>
        <mxCell id="9N4F_QEtPgm_CZuRJI3r-4" value="Подсистема создания комнат" style="rounded=1;whiteSpace=wrap;html=1;absoluteArcSize=1;arcSize=14;strokeWidth=2;" parent="1" vertex="1">
          <mxGeometry x="450" y="260" width="130" height="70" as="geometry" />
        </mxCell>
        <mxCell id="9N4F_QEtPgm_CZuRJI3r-28" style="edgeStyle=orthogonalEdgeStyle;rounded=0;orthogonalLoop=1;jettySize=auto;html=1;exitX=0.25;exitY=1;exitDx=0;exitDy=0;entryX=0;entryY=0.5;entryDx=0;entryDy=0;" parent="1" source="9N4F_QEtPgm_CZuRJI3r-5" target="9N4F_QEtPgm_CZuRJI3r-22" edge="1">
          <mxGeometry relative="1" as="geometry" />
        </mxCell>
        <mxCell id="9N4F_QEtPgm_CZuRJI3r-58" style="edgeStyle=orthogonalEdgeStyle;rounded=0;orthogonalLoop=1;jettySize=auto;html=1;exitX=0.25;exitY=1;exitDx=0;exitDy=0;entryX=0;entryY=0.5;entryDx=0;entryDy=0;" parent="1" source="9N4F_QEtPgm_CZuRJI3r-5" target="9N4F_QEtPgm_CZuRJI3r-23" edge="1">
          <mxGeometry relative="1" as="geometry" />
        </mxCell>
        <mxCell id="9N4F_QEtPgm_CZuRJI3r-60" style="edgeStyle=orthogonalEdgeStyle;rounded=0;orthogonalLoop=1;jettySize=auto;html=1;exitX=0.25;exitY=1;exitDx=0;exitDy=0;entryX=0;entryY=0.5;entryDx=0;entryDy=0;" parent="1" source="9N4F_QEtPgm_CZuRJI3r-5" target="9N4F_QEtPgm_CZuRJI3r-24" edge="1">
          <mxGeometry relative="1" as="geometry" />
        </mxCell>
        <mxCell id="9N4F_QEtPgm_CZuRJI3r-62" style="edgeStyle=orthogonalEdgeStyle;rounded=0;orthogonalLoop=1;jettySize=auto;html=1;exitX=0.25;exitY=1;exitDx=0;exitDy=0;entryX=0;entryY=0.5;entryDx=0;entryDy=0;" parent="1" source="9N4F_QEtPgm_CZuRJI3r-5" target="9N4F_QEtPgm_CZuRJI3r-25" edge="1">
          <mxGeometry relative="1" as="geometry" />
        </mxCell>
        <mxCell id="9N4F_QEtPgm_CZuRJI3r-64" style="edgeStyle=orthogonalEdgeStyle;rounded=0;orthogonalLoop=1;jettySize=auto;html=1;exitX=0.25;exitY=1;exitDx=0;exitDy=0;entryX=0;entryY=0.5;entryDx=0;entryDy=0;" parent="1" source="9N4F_QEtPgm_CZuRJI3r-5" target="9N4F_QEtPgm_CZuRJI3r-26" edge="1">
          <mxGeometry relative="1" as="geometry" />
        </mxCell>
        <mxCell id="9N4F_QEtPgm_CZuRJI3r-66" style="edgeStyle=orthogonalEdgeStyle;rounded=0;orthogonalLoop=1;jettySize=auto;html=1;exitX=0.25;exitY=1;exitDx=0;exitDy=0;entryX=0;entryY=0.5;entryDx=0;entryDy=0;" parent="1" source="9N4F_QEtPgm_CZuRJI3r-5" target="9N4F_QEtPgm_CZuRJI3r-27" edge="1">
          <mxGeometry relative="1" as="geometry" />
        </mxCell>
        <mxCell id="9N4F_QEtPgm_CZuRJI3r-5" value="Подсистема создания акций" style="rounded=1;whiteSpace=wrap;html=1;absoluteArcSize=1;arcSize=14;strokeWidth=2;" parent="1" vertex="1">
          <mxGeometry x="620" y="260" width="130" height="70" as="geometry" />
        </mxCell>
        <mxCell id="9N4F_QEtPgm_CZuRJI3r-47" style="edgeStyle=orthogonalEdgeStyle;rounded=0;orthogonalLoop=1;jettySize=auto;html=1;exitX=0.25;exitY=1;exitDx=0;exitDy=0;entryX=0;entryY=0.5;entryDx=0;entryDy=0;" parent="1" source="9N4F_QEtPgm_CZuRJI3r-6" target="9N4F_QEtPgm_CZuRJI3r-29" edge="1">
          <mxGeometry relative="1" as="geometry" />
        </mxCell>
        <mxCell id="9N4F_QEtPgm_CZuRJI3r-65" style="edgeStyle=orthogonalEdgeStyle;rounded=0;orthogonalLoop=1;jettySize=auto;html=1;exitX=0.25;exitY=1;exitDx=0;exitDy=0;entryX=0;entryY=0.5;entryDx=0;entryDy=0;" parent="1" source="9N4F_QEtPgm_CZuRJI3r-6" target="9N4F_QEtPgm_CZuRJI3r-30" edge="1">
          <mxGeometry relative="1" as="geometry" />
        </mxCell>
        <mxCell id="9N4F_QEtPgm_CZuRJI3r-67" style="edgeStyle=orthogonalEdgeStyle;rounded=0;orthogonalLoop=1;jettySize=auto;html=1;exitX=0.25;exitY=1;exitDx=0;exitDy=0;entryX=0;entryY=0.5;entryDx=0;entryDy=0;" parent="1" source="9N4F_QEtPgm_CZuRJI3r-6" target="9N4F_QEtPgm_CZuRJI3r-31" edge="1">
          <mxGeometry relative="1" as="geometry" />
        </mxCell>
        <mxCell id="9N4F_QEtPgm_CZuRJI3r-69" style="edgeStyle=orthogonalEdgeStyle;rounded=0;orthogonalLoop=1;jettySize=auto;html=1;exitX=0.25;exitY=1;exitDx=0;exitDy=0;entryX=0;entryY=0.5;entryDx=0;entryDy=0;" parent="1" source="9N4F_QEtPgm_CZuRJI3r-6" target="9N4F_QEtPgm_CZuRJI3r-32" edge="1">
          <mxGeometry relative="1" as="geometry" />
        </mxCell>
        <mxCell id="9N4F_QEtPgm_CZuRJI3r-71" style="edgeStyle=orthogonalEdgeStyle;rounded=0;orthogonalLoop=1;jettySize=auto;html=1;exitX=0.25;exitY=1;exitDx=0;exitDy=0;entryX=0;entryY=0.5;entryDx=0;entryDy=0;" parent="1" source="9N4F_QEtPgm_CZuRJI3r-6" target="9N4F_QEtPgm_CZuRJI3r-33" edge="1">
          <mxGeometry relative="1" as="geometry" />
        </mxCell>
        <mxCell id="9N4F_QEtPgm_CZuRJI3r-73" style="edgeStyle=orthogonalEdgeStyle;rounded=0;orthogonalLoop=1;jettySize=auto;html=1;exitX=0.25;exitY=1;exitDx=0;exitDy=0;entryX=0;entryY=0.5;entryDx=0;entryDy=0;" parent="1" source="9N4F_QEtPgm_CZuRJI3r-6" target="9N4F_QEtPgm_CZuRJI3r-34" edge="1">
          <mxGeometry relative="1" as="geometry" />
        </mxCell>
        <mxCell id="9N4F_QEtPgm_CZuRJI3r-6" value="Подсистема создания расценок" style="rounded=1;whiteSpace=wrap;html=1;absoluteArcSize=1;arcSize=14;strokeWidth=2;" parent="1" vertex="1">
          <mxGeometry x="790" y="260" width="130" height="70" as="geometry" />
        </mxCell>
        <mxCell id="9N4F_QEtPgm_CZuRJI3r-48" style="edgeStyle=orthogonalEdgeStyle;rounded=0;orthogonalLoop=1;jettySize=auto;html=1;exitX=0.25;exitY=1;exitDx=0;exitDy=0;entryX=0;entryY=0.5;entryDx=0;entryDy=0;" parent="1" source="9N4F_QEtPgm_CZuRJI3r-7" target="9N4F_QEtPgm_CZuRJI3r-35" edge="1">
          <mxGeometry relative="1" as="geometry" />
        </mxCell>
        <mxCell id="9N4F_QEtPgm_CZuRJI3r-68" style="edgeStyle=orthogonalEdgeStyle;rounded=0;orthogonalLoop=1;jettySize=auto;html=1;exitX=0.25;exitY=1;exitDx=0;exitDy=0;entryX=0;entryY=0.5;entryDx=0;entryDy=0;" parent="1" source="9N4F_QEtPgm_CZuRJI3r-7" target="9N4F_QEtPgm_CZuRJI3r-37" edge="1">
          <mxGeometry relative="1" as="geometry" />
        </mxCell>
        <mxCell id="9N4F_QEtPgm_CZuRJI3r-70" style="edgeStyle=orthogonalEdgeStyle;rounded=0;orthogonalLoop=1;jettySize=auto;html=1;exitX=0.25;exitY=1;exitDx=0;exitDy=0;entryX=0;entryY=0.5;entryDx=0;entryDy=0;" parent="1" source="9N4F_QEtPgm_CZuRJI3r-7" target="9N4F_QEtPgm_CZuRJI3r-38" edge="1">
          <mxGeometry relative="1" as="geometry" />
        </mxCell>
        <mxCell id="9N4F_QEtPgm_CZuRJI3r-72" style="edgeStyle=orthogonalEdgeStyle;rounded=0;orthogonalLoop=1;jettySize=auto;html=1;exitX=0.25;exitY=1;exitDx=0;exitDy=0;entryX=0;entryY=0.5;entryDx=0;entryDy=0;" parent="1" source="9N4F_QEtPgm_CZuRJI3r-7" target="9N4F_QEtPgm_CZuRJI3r-39" edge="1">
          <mxGeometry relative="1" as="geometry" />
        </mxCell>
        <mxCell id="9N4F_QEtPgm_CZuRJI3r-74" style="edgeStyle=orthogonalEdgeStyle;rounded=0;orthogonalLoop=1;jettySize=auto;html=1;exitX=0.25;exitY=1;exitDx=0;exitDy=0;entryX=0;entryY=0.5;entryDx=0;entryDy=0;" parent="1" source="9N4F_QEtPgm_CZuRJI3r-7" target="9N4F_QEtPgm_CZuRJI3r-40" edge="1">
          <mxGeometry relative="1" as="geometry" />
        </mxCell>
        <mxCell id="9N4F_QEtPgm_CZuRJI3r-7" value="Подсистема гости" style="rounded=1;whiteSpace=wrap;html=1;absoluteArcSize=1;arcSize=14;strokeWidth=2;" parent="1" vertex="1">
          <mxGeometry x="960" y="260" width="130" height="70" as="geometry" />
        </mxCell>
        <mxCell id="9N4F_QEtPgm_CZuRJI3r-76" style="edgeStyle=orthogonalEdgeStyle;rounded=0;orthogonalLoop=1;jettySize=auto;html=1;exitX=0.25;exitY=1;exitDx=0;exitDy=0;entryX=0;entryY=0.5;entryDx=0;entryDy=0;" parent="1" source="9N4F_QEtPgm_CZuRJI3r-8" target="9N4F_QEtPgm_CZuRJI3r-41" edge="1">
          <mxGeometry relative="1" as="geometry" />
        </mxCell>
        <mxCell id="9N4F_QEtPgm_CZuRJI3r-8" value="Подсистема справки" style="rounded=1;whiteSpace=wrap;html=1;absoluteArcSize=1;arcSize=14;strokeWidth=2;" parent="1" vertex="1">
          <mxGeometry x="1300" y="260" width="130" height="70" as="geometry" />
        </mxCell>
        <mxCell id="9N4F_QEtPgm_CZuRJI3r-9" value="Ввод логина и пароля" style="rounded=1;whiteSpace=wrap;html=1;absoluteArcSize=1;arcSize=14;strokeWidth=2;" parent="1" vertex="1">
          <mxGeometry x="170" y="340" width="130" height="70" as="geometry" />
        </mxCell>
        <mxCell id="9N4F_QEtPgm_CZuRJI3r-11" value="Вход" style="rounded=1;whiteSpace=wrap;html=1;absoluteArcSize=1;arcSize=14;strokeWidth=2;" parent="1" vertex="1">
          <mxGeometry x="170" y="420" width="130" height="70" as="geometry" />
        </mxCell>
        <mxCell id="9N4F_QEtPgm_CZuRJI3r-12" value="Ввод логина, почты, пароля" style="rounded=1;whiteSpace=wrap;html=1;absoluteArcSize=1;arcSize=14;strokeWidth=2;" parent="1" vertex="1">
          <mxGeometry x="340" y="340" width="130" height="70" as="geometry" />
        </mxCell>
        <mxCell id="9N4F_QEtPgm_CZuRJI3r-14" value="Регистрация" style="rounded=1;whiteSpace=wrap;html=1;absoluteArcSize=1;arcSize=14;strokeWidth=2;" parent="1" vertex="1">
          <mxGeometry x="340" y="420" width="130" height="70" as="geometry" />
        </mxCell>
        <mxCell id="9N4F_QEtPgm_CZuRJI3r-15" value="Создание комнаты" style="rounded=1;whiteSpace=wrap;html=1;absoluteArcSize=1;arcSize=14;strokeWidth=2;" parent="1" vertex="1">
          <mxGeometry x="510" y="340" width="130" height="70" as="geometry" />
        </mxCell>
        <mxCell id="9N4F_QEtPgm_CZuRJI3r-16" value="Редактирование комнаты" style="rounded=1;whiteSpace=wrap;html=1;absoluteArcSize=1;arcSize=14;strokeWidth=2;" parent="1" vertex="1">
          <mxGeometry x="510" y="420" width="130" height="70" as="geometry" />
        </mxCell>
        <mxCell id="9N4F_QEtPgm_CZuRJI3r-17" value="Удаление" style="rounded=1;whiteSpace=wrap;html=1;absoluteArcSize=1;arcSize=14;strokeWidth=2;" parent="1" vertex="1">
          <mxGeometry x="510" y="500" width="130" height="70" as="geometry" />
        </mxCell>
        <mxCell id="9N4F_QEtPgm_CZuRJI3r-18" value="Поиск" style="rounded=1;whiteSpace=wrap;html=1;absoluteArcSize=1;arcSize=14;strokeWidth=2;" parent="1" vertex="1">
          <mxGeometry x="510" y="580" width="130" height="70" as="geometry" />
        </mxCell>
        <mxCell id="9N4F_QEtPgm_CZuRJI3r-19" value="Вывод в PDF" style="rounded=1;whiteSpace=wrap;html=1;absoluteArcSize=1;arcSize=14;strokeWidth=2;" parent="1" vertex="1">
          <mxGeometry x="510" y="660" width="130" height="70" as="geometry" />
        </mxCell>
        <mxCell id="9N4F_QEtPgm_CZuRJI3r-20" value="Печать" style="rounded=1;whiteSpace=wrap;html=1;absoluteArcSize=1;arcSize=14;strokeWidth=2;" parent="1" vertex="1">
          <mxGeometry x="510" y="740" width="130" height="70" as="geometry" />
        </mxCell>
        <mxCell id="9N4F_QEtPgm_CZuRJI3r-22" value="Создание акции" style="rounded=1;whiteSpace=wrap;html=1;absoluteArcSize=1;arcSize=14;strokeWidth=2;" parent="1" vertex="1">
          <mxGeometry x="680" y="340" width="130" height="70" as="geometry" />
        </mxCell>
        <mxCell id="9N4F_QEtPgm_CZuRJI3r-23" value="Редактирование акции" style="rounded=1;whiteSpace=wrap;html=1;absoluteArcSize=1;arcSize=14;strokeWidth=2;" parent="1" vertex="1">
          <mxGeometry x="680" y="420" width="130" height="70" as="geometry" />
        </mxCell>
        <mxCell id="9N4F_QEtPgm_CZuRJI3r-24" value="Удаление" style="rounded=1;whiteSpace=wrap;html=1;absoluteArcSize=1;arcSize=14;strokeWidth=2;" parent="1" vertex="1">
          <mxGeometry x="680" y="500" width="130" height="70" as="geometry" />
        </mxCell>
        <mxCell id="9N4F_QEtPgm_CZuRJI3r-25" value="Поиск" style="rounded=1;whiteSpace=wrap;html=1;absoluteArcSize=1;arcSize=14;strokeWidth=2;" parent="1" vertex="1">
          <mxGeometry x="680" y="580" width="130" height="70" as="geometry" />
        </mxCell>
        <mxCell id="9N4F_QEtPgm_CZuRJI3r-26" value="Вывод в PDF" style="rounded=1;whiteSpace=wrap;html=1;absoluteArcSize=1;arcSize=14;strokeWidth=2;" parent="1" vertex="1">
          <mxGeometry x="680" y="660" width="130" height="70" as="geometry" />
        </mxCell>
        <mxCell id="9N4F_QEtPgm_CZuRJI3r-27" value="Печать" style="rounded=1;whiteSpace=wrap;html=1;absoluteArcSize=1;arcSize=14;strokeWidth=2;" parent="1" vertex="1">
          <mxGeometry x="680" y="740" width="130" height="70" as="geometry" />
        </mxCell>
        <mxCell id="9N4F_QEtPgm_CZuRJI3r-29" value="Создание расценки" style="rounded=1;whiteSpace=wrap;html=1;absoluteArcSize=1;arcSize=14;strokeWidth=2;" parent="1" vertex="1">
          <mxGeometry x="850" y="340" width="130" height="70" as="geometry" />
        </mxCell>
        <mxCell id="9N4F_QEtPgm_CZuRJI3r-30" value="Редактирование расценки" style="rounded=1;whiteSpace=wrap;html=1;absoluteArcSize=1;arcSize=14;strokeWidth=2;" parent="1" vertex="1">
          <mxGeometry x="850" y="420" width="130" height="70" as="geometry" />
        </mxCell>
        <mxCell id="9N4F_QEtPgm_CZuRJI3r-31" value="Удаление" style="rounded=1;whiteSpace=wrap;html=1;absoluteArcSize=1;arcSize=14;strokeWidth=2;" parent="1" vertex="1">
          <mxGeometry x="850" y="500" width="130" height="70" as="geometry" />
        </mxCell>
        <mxCell id="9N4F_QEtPgm_CZuRJI3r-32" value="Поиск" style="rounded=1;whiteSpace=wrap;html=1;absoluteArcSize=1;arcSize=14;strokeWidth=2;" parent="1" vertex="1">
          <mxGeometry x="850" y="580" width="130" height="70" as="geometry" />
        </mxCell>
        <mxCell id="9N4F_QEtPgm_CZuRJI3r-33" value="Вывод в PDF" style="rounded=1;whiteSpace=wrap;html=1;absoluteArcSize=1;arcSize=14;strokeWidth=2;" parent="1" vertex="1">
          <mxGeometry x="850" y="660" width="130" height="70" as="geometry" />
        </mxCell>
        <mxCell id="9N4F_QEtPgm_CZuRJI3r-34" value="Печать" style="rounded=1;whiteSpace=wrap;html=1;absoluteArcSize=1;arcSize=14;strokeWidth=2;" parent="1" vertex="1">
          <mxGeometry x="850" y="740" width="130" height="70" as="geometry" />
        </mxCell>
        <mxCell id="9N4F_QEtPgm_CZuRJI3r-35" value="Отображение гостей" style="rounded=1;whiteSpace=wrap;html=1;absoluteArcSize=1;arcSize=14;strokeWidth=2;" parent="1" vertex="1">
          <mxGeometry x="1020" y="340" width="130" height="70" as="geometry" />
        </mxCell>
        <mxCell id="9N4F_QEtPgm_CZuRJI3r-37" value="Удаление" style="rounded=1;whiteSpace=wrap;html=1;absoluteArcSize=1;arcSize=14;strokeWidth=2;" parent="1" vertex="1">
          <mxGeometry x="1020" y="420" width="130" height="70" as="geometry" />
        </mxCell>
        <mxCell id="9N4F_QEtPgm_CZuRJI3r-38" value="Поиск" style="rounded=1;whiteSpace=wrap;html=1;absoluteArcSize=1;arcSize=14;strokeWidth=2;" parent="1" vertex="1">
          <mxGeometry x="1020" y="500" width="130" height="70" as="geometry" />
        </mxCell>
        <mxCell id="9N4F_QEtPgm_CZuRJI3r-39" value="Вывод в PDF" style="rounded=1;whiteSpace=wrap;html=1;absoluteArcSize=1;arcSize=14;strokeWidth=2;" parent="1" vertex="1">
          <mxGeometry x="1020" y="580" width="130" height="70" as="geometry" />
        </mxCell>
        <mxCell id="9N4F_QEtPgm_CZuRJI3r-40" value="Печать" style="rounded=1;whiteSpace=wrap;html=1;absoluteArcSize=1;arcSize=14;strokeWidth=2;" parent="1" vertex="1">
          <mxGeometry x="1020" y="660" width="130" height="70" as="geometry" />
        </mxCell>
        <mxCell id="9N4F_QEtPgm_CZuRJI3r-41" value="Вывод справки" style="rounded=1;whiteSpace=wrap;html=1;absoluteArcSize=1;arcSize=14;strokeWidth=2;" parent="1" vertex="1">
          <mxGeometry x="1360" y="340" width="130" height="70" as="geometry" />
        </mxCell>
        <mxCell id="9N4F_QEtPgm_CZuRJI3r-75" style="edgeStyle=orthogonalEdgeStyle;rounded=0;orthogonalLoop=1;jettySize=auto;html=1;exitX=0.25;exitY=1;exitDx=0;exitDy=0;entryX=0;entryY=0.5;entryDx=0;entryDy=0;" parent="1" source="9N4F_QEtPgm_CZuRJI3r-50" target="9N4F_QEtPgm_CZuRJI3r-51" edge="1">
          <mxGeometry relative="1" as="geometry" />
        </mxCell>
        <mxCell id="9N4F_QEtPgm_CZuRJI3r-77" style="edgeStyle=orthogonalEdgeStyle;rounded=0;orthogonalLoop=1;jettySize=auto;html=1;exitX=0.25;exitY=1;exitDx=0;exitDy=0;entryX=0;entryY=0.5;entryDx=0;entryDy=0;" parent="1" source="9N4F_QEtPgm_CZuRJI3r-50" target="9N4F_QEtPgm_CZuRJI3r-52" edge="1">
          <mxGeometry relative="1" as="geometry" />
        </mxCell>
        <mxCell id="9N4F_QEtPgm_CZuRJI3r-78" style="edgeStyle=orthogonalEdgeStyle;rounded=0;orthogonalLoop=1;jettySize=auto;html=1;exitX=0.25;exitY=1;exitDx=0;exitDy=0;entryX=0;entryY=0.5;entryDx=0;entryDy=0;" parent="1" source="9N4F_QEtPgm_CZuRJI3r-50" target="9N4F_QEtPgm_CZuRJI3r-53" edge="1">
          <mxGeometry relative="1" as="geometry" />
        </mxCell>
        <mxCell id="9N4F_QEtPgm_CZuRJI3r-50" value="Подсистема бронирования" style="rounded=1;whiteSpace=wrap;html=1;absoluteArcSize=1;arcSize=14;strokeWidth=2;" parent="1" vertex="1">
          <mxGeometry x="1130" y="260" width="130" height="70" as="geometry" />
        </mxCell>
        <mxCell id="9N4F_QEtPgm_CZuRJI3r-51" value="Создание бронирования" style="rounded=1;whiteSpace=wrap;html=1;absoluteArcSize=1;arcSize=14;strokeWidth=2;" parent="1" vertex="1">
          <mxGeometry x="1190" y="340" width="130" height="70" as="geometry" />
        </mxCell>
        <mxCell id="9N4F_QEtPgm_CZuRJI3r-52" value="Создание гостя" style="rounded=1;whiteSpace=wrap;html=1;absoluteArcSize=1;arcSize=14;strokeWidth=2;" parent="1" vertex="1">
          <mxGeometry x="1190" y="420" width="130" height="70" as="geometry" />
        </mxCell>
        <mxCell id="9N4F_QEtPgm_CZuRJI3r-53" value="Просмотр броней" style="rounded=1;whiteSpace=wrap;html=1;absoluteArcSize=1;arcSize=14;strokeWidth=2;" parent="1" vertex="1">
          <mxGeometry x="1190" y="500" width="130" height="70" as="geometry" />
        </mxCell>
      </root>
    </mxGraphModel>
  </diagram>
  <diagram id="8RW3VuqGOmsyi4bL9nMa" name="Страница — 3">
    <mxGraphModel dx="4174" dy="1706" grid="0" gridSize="10" guides="1" tooltips="1" connect="1" arrows="1" fold="1" page="0" pageScale="1" pageWidth="827" pageHeight="1169" math="0" shadow="0">
      <root>
        <mxCell id="0" />
        <mxCell id="1" parent="0" />
        <mxCell id="rFqdk_0CaIqM8_NlbTHl-4" value="Начало" style="strokeWidth=2;html=1;shape=mxgraph.flowchart.terminator;whiteSpace=wrap;" vertex="1" parent="1">
          <mxGeometry x="290" y="230" width="100" height="60" as="geometry" />
        </mxCell>
        <mxCell id="rFqdk_0CaIqM8_NlbTHl-9" style="edgeStyle=orthogonalEdgeStyle;rounded=0;orthogonalLoop=1;jettySize=auto;html=1;exitX=1;exitY=0.5;exitDx=0;exitDy=0;exitPerimeter=0;entryX=0.5;entryY=0;entryDx=0;entryDy=0;" edge="1" parent="1" source="rFqdk_0CaIqM8_NlbTHl-5" target="rFqdk_0CaIqM8_NlbTHl-6">
          <mxGeometry relative="1" as="geometry" />
        </mxCell>
        <mxCell id="rFqdk_0CaIqM8_NlbTHl-15" style="edgeStyle=orthogonalEdgeStyle;rounded=0;orthogonalLoop=1;jettySize=auto;html=1;exitX=0;exitY=0.5;exitDx=0;exitDy=0;exitPerimeter=0;entryX=0.5;entryY=0;entryDx=0;entryDy=0;" edge="1" parent="1" source="rFqdk_0CaIqM8_NlbTHl-5" target="rFqdk_0CaIqM8_NlbTHl-12">
          <mxGeometry relative="1" as="geometry" />
        </mxCell>
        <mxCell id="rFqdk_0CaIqM8_NlbTHl-5" value="Пользователь авторизован?" style="strokeWidth=2;html=1;shape=mxgraph.flowchart.decision;whiteSpace=wrap;" vertex="1" parent="1">
          <mxGeometry x="275" y="320" width="130" height="100" as="geometry" />
        </mxCell>
        <mxCell id="rFqdk_0CaIqM8_NlbTHl-6" value="Отображение страницы авторизации" style="rounded=1;whiteSpace=wrap;html=1;absoluteArcSize=1;arcSize=14;strokeWidth=2;" vertex="1" parent="1">
          <mxGeometry x="380" y="400" width="140" height="80" as="geometry" />
        </mxCell>
        <mxCell id="rFqdk_0CaIqM8_NlbTHl-11" style="edgeStyle=orthogonalEdgeStyle;rounded=0;orthogonalLoop=1;jettySize=auto;html=1;exitX=1;exitY=0.5;exitDx=0;exitDy=0;exitPerimeter=0;entryX=0.5;entryY=0;entryDx=0;entryDy=0;" edge="1" parent="1" source="rFqdk_0CaIqM8_NlbTHl-7" target="rFqdk_0CaIqM8_NlbTHl-8">
          <mxGeometry relative="1" as="geometry" />
        </mxCell>
        <mxCell id="rFqdk_0CaIqM8_NlbTHl-19" style="edgeStyle=orthogonalEdgeStyle;rounded=0;orthogonalLoop=1;jettySize=auto;html=1;exitX=0;exitY=0.5;exitDx=0;exitDy=0;exitPerimeter=0;entryX=0.5;entryY=0;entryDx=0;entryDy=0;" edge="1" parent="1" source="rFqdk_0CaIqM8_NlbTHl-7" target="rFqdk_0CaIqM8_NlbTHl-18">
          <mxGeometry relative="1" as="geometry" />
        </mxCell>
        <mxCell id="rFqdk_0CaIqM8_NlbTHl-7" value="Пользователь зарегистрирован?" style="strokeWidth=2;html=1;shape=mxgraph.flowchart.decision;whiteSpace=wrap;" vertex="1" parent="1">
          <mxGeometry x="385" y="500" width="130" height="100" as="geometry" />
        </mxCell>
        <mxCell id="rFqdk_0CaIqM8_NlbTHl-8" value="Отображение страницы регистрации" style="rounded=1;whiteSpace=wrap;html=1;absoluteArcSize=1;arcSize=14;strokeWidth=2;" vertex="1" parent="1">
          <mxGeometry x="490" y="580" width="140" height="80" as="geometry" />
        </mxCell>
        <mxCell id="rFqdk_0CaIqM8_NlbTHl-10" style="edgeStyle=orthogonalEdgeStyle;rounded=0;orthogonalLoop=1;jettySize=auto;html=1;exitX=0.5;exitY=1;exitDx=0;exitDy=0;entryX=0.5;entryY=0;entryDx=0;entryDy=0;entryPerimeter=0;" edge="1" parent="1" source="rFqdk_0CaIqM8_NlbTHl-6" target="rFqdk_0CaIqM8_NlbTHl-7">
          <mxGeometry relative="1" as="geometry" />
        </mxCell>
        <mxCell id="rFqdk_0CaIqM8_NlbTHl-12" value="Отображение главной страницы &quot;Обзор&quot;" style="rounded=1;whiteSpace=wrap;html=1;absoluteArcSize=1;arcSize=14;strokeWidth=2;" vertex="1" parent="1">
          <mxGeometry x="110" y="700" width="140" height="80" as="geometry" />
        </mxCell>
        <mxCell id="rFqdk_0CaIqM8_NlbTHl-13" style="edgeStyle=orthogonalEdgeStyle;rounded=0;orthogonalLoop=1;jettySize=auto;html=1;exitX=0.5;exitY=1;exitDx=0;exitDy=0;entryX=0.5;entryY=0;entryDx=0;entryDy=0;entryPerimeter=0;" edge="1" parent="1" source="rFqdk_0CaIqM8_NlbTHl-8" target="rFqdk_0CaIqM8_NlbTHl-7">
          <mxGeometry relative="1" as="geometry">
            <Array as="points">
              <mxPoint x="560" y="670" />
              <mxPoint x="640" y="670" />
              <mxPoint x="640" y="490" />
              <mxPoint x="450" y="490" />
            </Array>
          </mxGeometry>
        </mxCell>
        <mxCell id="rFqdk_0CaIqM8_NlbTHl-14" style="edgeStyle=orthogonalEdgeStyle;rounded=0;orthogonalLoop=1;jettySize=auto;html=1;exitX=0.5;exitY=1;exitDx=0;exitDy=0;exitPerimeter=0;entryX=0.5;entryY=0;entryDx=0;entryDy=0;entryPerimeter=0;" edge="1" parent="1" source="rFqdk_0CaIqM8_NlbTHl-4" target="rFqdk_0CaIqM8_NlbTHl-5">
          <mxGeometry relative="1" as="geometry" />
        </mxCell>
        <mxCell id="rFqdk_0CaIqM8_NlbTHl-20" style="edgeStyle=orthogonalEdgeStyle;rounded=0;orthogonalLoop=1;jettySize=auto;html=1;exitX=0.5;exitY=1;exitDx=0;exitDy=0;entryX=0.5;entryY=0;entryDx=0;entryDy=0;" edge="1" parent="1" source="rFqdk_0CaIqM8_NlbTHl-18" target="rFqdk_0CaIqM8_NlbTHl-12">
          <mxGeometry relative="1" as="geometry">
            <Array as="points">
              <mxPoint x="344" y="680" />
              <mxPoint x="180" y="680" />
            </Array>
          </mxGeometry>
        </mxCell>
        <mxCell id="rFqdk_0CaIqM8_NlbTHl-18" value="Авторизация" style="rounded=1;whiteSpace=wrap;html=1;absoluteArcSize=1;arcSize=14;strokeWidth=2;" vertex="1" parent="1">
          <mxGeometry x="274" y="585" width="140" height="80" as="geometry" />
        </mxCell>
        <mxCell id="rFqdk_0CaIqM8_NlbTHl-24" style="edgeStyle=orthogonalEdgeStyle;rounded=0;orthogonalLoop=1;jettySize=auto;html=1;exitX=0.5;exitY=1;exitDx=0;exitDy=0;exitPerimeter=0;entryX=1;entryY=0.5;entryDx=0;entryDy=0;" edge="1" parent="1" source="rFqdk_0CaIqM8_NlbTHl-21" target="rFqdk_0CaIqM8_NlbTHl-23">
          <mxGeometry relative="1" as="geometry" />
        </mxCell>
        <mxCell id="rFqdk_0CaIqM8_NlbTHl-30" style="edgeStyle=orthogonalEdgeStyle;rounded=0;orthogonalLoop=1;jettySize=auto;html=1;exitX=0.5;exitY=1;exitDx=0;exitDy=0;exitPerimeter=0;entryX=0;entryY=0.5;entryDx=0;entryDy=0;" edge="1" parent="1" source="rFqdk_0CaIqM8_NlbTHl-21" target="rFqdk_0CaIqM8_NlbTHl-29">
          <mxGeometry relative="1" as="geometry" />
        </mxCell>
        <mxCell id="rFqdk_0CaIqM8_NlbTHl-113" style="edgeStyle=orthogonalEdgeStyle;rounded=0;orthogonalLoop=1;jettySize=auto;html=1;exitX=0.5;exitY=1;exitDx=0;exitDy=0;exitPerimeter=0;entryX=1;entryY=0.5;entryDx=0;entryDy=0;" edge="1" parent="1" source="rFqdk_0CaIqM8_NlbTHl-21" target="rFqdk_0CaIqM8_NlbTHl-112">
          <mxGeometry relative="1" as="geometry" />
        </mxCell>
        <mxCell id="rFqdk_0CaIqM8_NlbTHl-21" value="Выбор действия" style="strokeWidth=2;html=1;shape=mxgraph.flowchart.decision;whiteSpace=wrap;" vertex="1" parent="1">
          <mxGeometry x="115" y="810" width="130" height="100" as="geometry" />
        </mxCell>
        <mxCell id="rFqdk_0CaIqM8_NlbTHl-22" style="edgeStyle=orthogonalEdgeStyle;rounded=0;orthogonalLoop=1;jettySize=auto;html=1;exitX=0.5;exitY=1;exitDx=0;exitDy=0;entryX=0.5;entryY=0;entryDx=0;entryDy=0;entryPerimeter=0;" edge="1" parent="1" source="rFqdk_0CaIqM8_NlbTHl-12" target="rFqdk_0CaIqM8_NlbTHl-21">
          <mxGeometry relative="1" as="geometry" />
        </mxCell>
        <mxCell id="rFqdk_0CaIqM8_NlbTHl-23" value="Выйти из аккаунта" style="rounded=1;whiteSpace=wrap;html=1;absoluteArcSize=1;arcSize=14;strokeWidth=2;" vertex="1" parent="1">
          <mxGeometry y="890" width="140" height="80" as="geometry" />
        </mxCell>
        <mxCell id="rFqdk_0CaIqM8_NlbTHl-25" value="Да" style="text;html=1;strokeColor=none;fillColor=none;align=center;verticalAlign=middle;whiteSpace=wrap;rounded=0;" vertex="1" parent="1">
          <mxGeometry x="260" y="320" width="60" height="30" as="geometry" />
        </mxCell>
        <mxCell id="rFqdk_0CaIqM8_NlbTHl-26" value="Да" style="text;html=1;strokeColor=none;fillColor=none;align=center;verticalAlign=middle;whiteSpace=wrap;rounded=0;" vertex="1" parent="1">
          <mxGeometry x="370" y="500" width="60" height="30" as="geometry" />
        </mxCell>
        <mxCell id="rFqdk_0CaIqM8_NlbTHl-27" value="Нет" style="text;html=1;strokeColor=none;fillColor=none;align=center;verticalAlign=middle;whiteSpace=wrap;rounded=0;" vertex="1" parent="1">
          <mxGeometry x="370" y="320" width="60" height="30" as="geometry" />
        </mxCell>
        <mxCell id="rFqdk_0CaIqM8_NlbTHl-28" value="Нет" style="text;html=1;strokeColor=none;fillColor=none;align=center;verticalAlign=middle;whiteSpace=wrap;rounded=0;" vertex="1" parent="1">
          <mxGeometry x="480" y="500" width="60" height="30" as="geometry" />
        </mxCell>
        <mxCell id="rFqdk_0CaIqM8_NlbTHl-29" value="Переключить страницу" style="rounded=1;whiteSpace=wrap;html=1;absoluteArcSize=1;arcSize=14;strokeWidth=2;" vertex="1" parent="1">
          <mxGeometry x="220" y="890" width="140" height="80" as="geometry" />
        </mxCell>
        <mxCell id="rFqdk_0CaIqM8_NlbTHl-40" style="edgeStyle=orthogonalEdgeStyle;rounded=0;orthogonalLoop=1;jettySize=auto;html=1;exitX=0.5;exitY=1;exitDx=0;exitDy=0;exitPerimeter=0;entryX=0;entryY=0.5;entryDx=0;entryDy=0;" edge="1" parent="1" source="rFqdk_0CaIqM8_NlbTHl-31" target="rFqdk_0CaIqM8_NlbTHl-34">
          <mxGeometry relative="1" as="geometry" />
        </mxCell>
        <mxCell id="rFqdk_0CaIqM8_NlbTHl-41" style="edgeStyle=orthogonalEdgeStyle;rounded=0;orthogonalLoop=1;jettySize=auto;html=1;exitX=0.5;exitY=1;exitDx=0;exitDy=0;exitPerimeter=0;entryX=0;entryY=0.5;entryDx=0;entryDy=0;" edge="1" parent="1" source="rFqdk_0CaIqM8_NlbTHl-31" target="rFqdk_0CaIqM8_NlbTHl-35">
          <mxGeometry relative="1" as="geometry" />
        </mxCell>
        <mxCell id="rFqdk_0CaIqM8_NlbTHl-42" style="edgeStyle=orthogonalEdgeStyle;rounded=0;orthogonalLoop=1;jettySize=auto;html=1;exitX=0.5;exitY=1;exitDx=0;exitDy=0;exitPerimeter=0;entryX=0;entryY=0.5;entryDx=0;entryDy=0;" edge="1" parent="1" source="rFqdk_0CaIqM8_NlbTHl-31" target="rFqdk_0CaIqM8_NlbTHl-36">
          <mxGeometry relative="1" as="geometry" />
        </mxCell>
        <mxCell id="rFqdk_0CaIqM8_NlbTHl-43" style="edgeStyle=orthogonalEdgeStyle;rounded=0;orthogonalLoop=1;jettySize=auto;html=1;exitX=0.5;exitY=1;exitDx=0;exitDy=0;exitPerimeter=0;entryX=0;entryY=0.5;entryDx=0;entryDy=0;" edge="1" parent="1" source="rFqdk_0CaIqM8_NlbTHl-31" target="rFqdk_0CaIqM8_NlbTHl-37">
          <mxGeometry relative="1" as="geometry" />
        </mxCell>
        <mxCell id="rFqdk_0CaIqM8_NlbTHl-44" style="edgeStyle=orthogonalEdgeStyle;rounded=0;orthogonalLoop=1;jettySize=auto;html=1;exitX=0.5;exitY=1;exitDx=0;exitDy=0;exitPerimeter=0;entryX=0;entryY=0.5;entryDx=0;entryDy=0;" edge="1" parent="1" source="rFqdk_0CaIqM8_NlbTHl-31" target="rFqdk_0CaIqM8_NlbTHl-38">
          <mxGeometry relative="1" as="geometry" />
        </mxCell>
        <mxCell id="rFqdk_0CaIqM8_NlbTHl-45" style="edgeStyle=orthogonalEdgeStyle;rounded=0;orthogonalLoop=1;jettySize=auto;html=1;exitX=0.5;exitY=1;exitDx=0;exitDy=0;exitPerimeter=0;entryX=0;entryY=0.5;entryDx=0;entryDy=0;" edge="1" parent="1" source="rFqdk_0CaIqM8_NlbTHl-31" target="rFqdk_0CaIqM8_NlbTHl-39">
          <mxGeometry relative="1" as="geometry" />
        </mxCell>
        <mxCell id="rFqdk_0CaIqM8_NlbTHl-31" value="Выбор страницы" style="strokeWidth=2;html=1;shape=mxgraph.flowchart.decision;whiteSpace=wrap;" vertex="1" parent="1">
          <mxGeometry x="225" y="990" width="130" height="100" as="geometry" />
        </mxCell>
        <mxCell id="rFqdk_0CaIqM8_NlbTHl-32" style="edgeStyle=orthogonalEdgeStyle;rounded=0;orthogonalLoop=1;jettySize=auto;html=1;exitX=0.5;exitY=0;exitDx=0;exitDy=0;entryX=0.5;entryY=0;entryDx=0;entryDy=0;entryPerimeter=0;" edge="1" parent="1" source="rFqdk_0CaIqM8_NlbTHl-23" target="rFqdk_0CaIqM8_NlbTHl-5">
          <mxGeometry relative="1" as="geometry" />
        </mxCell>
        <mxCell id="rFqdk_0CaIqM8_NlbTHl-33" style="edgeStyle=orthogonalEdgeStyle;rounded=0;orthogonalLoop=1;jettySize=auto;html=1;exitX=0.5;exitY=1;exitDx=0;exitDy=0;entryX=0.5;entryY=0;entryDx=0;entryDy=0;entryPerimeter=0;" edge="1" parent="1" source="rFqdk_0CaIqM8_NlbTHl-29" target="rFqdk_0CaIqM8_NlbTHl-31">
          <mxGeometry relative="1" as="geometry" />
        </mxCell>
        <mxCell id="rFqdk_0CaIqM8_NlbTHl-34" value="Обзор" style="rounded=1;whiteSpace=wrap;html=1;absoluteArcSize=1;arcSize=14;strokeWidth=2;" vertex="1" parent="1">
          <mxGeometry x="330" y="1070" width="140" height="80" as="geometry" />
        </mxCell>
        <mxCell id="rFqdk_0CaIqM8_NlbTHl-35" value="Оформление" style="rounded=1;whiteSpace=wrap;html=1;absoluteArcSize=1;arcSize=14;strokeWidth=2;" vertex="1" parent="1">
          <mxGeometry x="330" y="1160" width="140" height="80" as="geometry" />
        </mxCell>
        <mxCell id="rFqdk_0CaIqM8_NlbTHl-36" value="Гости" style="rounded=1;whiteSpace=wrap;html=1;absoluteArcSize=1;arcSize=14;strokeWidth=2;" vertex="1" parent="1">
          <mxGeometry x="330" y="1250" width="140" height="80" as="geometry" />
        </mxCell>
        <mxCell id="rFqdk_0CaIqM8_NlbTHl-37" value="Комнаты" style="rounded=1;whiteSpace=wrap;html=1;absoluteArcSize=1;arcSize=14;strokeWidth=2;" vertex="1" parent="1">
          <mxGeometry x="330" y="1340" width="140" height="80" as="geometry" />
        </mxCell>
        <mxCell id="rFqdk_0CaIqM8_NlbTHl-38" value="Акции" style="rounded=1;whiteSpace=wrap;html=1;absoluteArcSize=1;arcSize=14;strokeWidth=2;" vertex="1" parent="1">
          <mxGeometry x="330" y="1430" width="140" height="80" as="geometry" />
        </mxCell>
        <mxCell id="rFqdk_0CaIqM8_NlbTHl-39" value="Расценки" style="rounded=1;whiteSpace=wrap;html=1;absoluteArcSize=1;arcSize=14;strokeWidth=2;" vertex="1" parent="1">
          <mxGeometry x="330" y="1520" width="140" height="80" as="geometry" />
        </mxCell>
        <mxCell id="rFqdk_0CaIqM8_NlbTHl-60" style="edgeStyle=orthogonalEdgeStyle;rounded=0;orthogonalLoop=1;jettySize=auto;html=1;exitX=0.5;exitY=1;exitDx=0;exitDy=0;exitPerimeter=0;entryX=0;entryY=0.5;entryDx=0;entryDy=0;" edge="1" parent="1" source="rFqdk_0CaIqM8_NlbTHl-46" target="rFqdk_0CaIqM8_NlbTHl-49">
          <mxGeometry relative="1" as="geometry" />
        </mxCell>
        <mxCell id="rFqdk_0CaIqM8_NlbTHl-61" style="edgeStyle=orthogonalEdgeStyle;rounded=0;orthogonalLoop=1;jettySize=auto;html=1;exitX=0.5;exitY=1;exitDx=0;exitDy=0;exitPerimeter=0;entryX=1;entryY=0.5;entryDx=0;entryDy=0;" edge="1" parent="1" source="rFqdk_0CaIqM8_NlbTHl-46" target="rFqdk_0CaIqM8_NlbTHl-54">
          <mxGeometry relative="1" as="geometry" />
        </mxCell>
        <mxCell id="rFqdk_0CaIqM8_NlbTHl-62" style="edgeStyle=orthogonalEdgeStyle;rounded=0;orthogonalLoop=1;jettySize=auto;html=1;exitX=0.5;exitY=1;exitDx=0;exitDy=0;exitPerimeter=0;entryX=0;entryY=0.5;entryDx=0;entryDy=0;" edge="1" parent="1" source="rFqdk_0CaIqM8_NlbTHl-46" target="rFqdk_0CaIqM8_NlbTHl-50">
          <mxGeometry relative="1" as="geometry" />
        </mxCell>
        <mxCell id="rFqdk_0CaIqM8_NlbTHl-63" style="edgeStyle=orthogonalEdgeStyle;rounded=0;orthogonalLoop=1;jettySize=auto;html=1;exitX=0.5;exitY=1;exitDx=0;exitDy=0;exitPerimeter=0;entryX=1;entryY=0.5;entryDx=0;entryDy=0;" edge="1" parent="1" source="rFqdk_0CaIqM8_NlbTHl-46" target="rFqdk_0CaIqM8_NlbTHl-56">
          <mxGeometry relative="1" as="geometry" />
        </mxCell>
        <mxCell id="rFqdk_0CaIqM8_NlbTHl-64" style="edgeStyle=orthogonalEdgeStyle;rounded=0;orthogonalLoop=1;jettySize=auto;html=1;exitX=0.5;exitY=1;exitDx=0;exitDy=0;exitPerimeter=0;entryX=0;entryY=0.5;entryDx=0;entryDy=0;" edge="1" parent="1" source="rFqdk_0CaIqM8_NlbTHl-46" target="rFqdk_0CaIqM8_NlbTHl-51">
          <mxGeometry relative="1" as="geometry" />
        </mxCell>
        <mxCell id="rFqdk_0CaIqM8_NlbTHl-65" style="edgeStyle=orthogonalEdgeStyle;rounded=0;orthogonalLoop=1;jettySize=auto;html=1;exitX=0.5;exitY=1;exitDx=0;exitDy=0;exitPerimeter=0;entryX=1;entryY=0.5;entryDx=0;entryDy=0;" edge="1" parent="1" source="rFqdk_0CaIqM8_NlbTHl-46" target="rFqdk_0CaIqM8_NlbTHl-57">
          <mxGeometry relative="1" as="geometry" />
        </mxCell>
        <mxCell id="rFqdk_0CaIqM8_NlbTHl-66" style="edgeStyle=orthogonalEdgeStyle;rounded=0;orthogonalLoop=1;jettySize=auto;html=1;exitX=0.5;exitY=1;exitDx=0;exitDy=0;exitPerimeter=0;entryX=0;entryY=0.5;entryDx=0;entryDy=0;" edge="1" parent="1" source="rFqdk_0CaIqM8_NlbTHl-46" target="rFqdk_0CaIqM8_NlbTHl-52">
          <mxGeometry relative="1" as="geometry" />
        </mxCell>
        <mxCell id="rFqdk_0CaIqM8_NlbTHl-67" style="edgeStyle=orthogonalEdgeStyle;rounded=0;orthogonalLoop=1;jettySize=auto;html=1;exitX=0.5;exitY=1;exitDx=0;exitDy=0;exitPerimeter=0;entryX=1;entryY=0.5;entryDx=0;entryDy=0;" edge="1" parent="1" source="rFqdk_0CaIqM8_NlbTHl-46" target="rFqdk_0CaIqM8_NlbTHl-58">
          <mxGeometry relative="1" as="geometry" />
        </mxCell>
        <mxCell id="rFqdk_0CaIqM8_NlbTHl-68" style="edgeStyle=orthogonalEdgeStyle;rounded=0;orthogonalLoop=1;jettySize=auto;html=1;exitX=0.5;exitY=1;exitDx=0;exitDy=0;exitPerimeter=0;entryX=0;entryY=0.5;entryDx=0;entryDy=0;" edge="1" parent="1" source="rFqdk_0CaIqM8_NlbTHl-46" target="rFqdk_0CaIqM8_NlbTHl-53">
          <mxGeometry relative="1" as="geometry" />
        </mxCell>
        <mxCell id="rFqdk_0CaIqM8_NlbTHl-69" style="edgeStyle=orthogonalEdgeStyle;rounded=0;orthogonalLoop=1;jettySize=auto;html=1;exitX=0.5;exitY=1;exitDx=0;exitDy=0;exitPerimeter=0;entryX=1;entryY=0.5;entryDx=0;entryDy=0;" edge="1" parent="1" source="rFqdk_0CaIqM8_NlbTHl-46" target="rFqdk_0CaIqM8_NlbTHl-59">
          <mxGeometry relative="1" as="geometry" />
        </mxCell>
        <mxCell id="rFqdk_0CaIqM8_NlbTHl-46" value="Выбор действия" style="strokeWidth=2;html=1;shape=mxgraph.flowchart.decision;whiteSpace=wrap;" vertex="1" parent="1">
          <mxGeometry x="3280" y="1130" width="130" height="100" as="geometry" />
        </mxCell>
        <mxCell id="rFqdk_0CaIqM8_NlbTHl-49" value="Вывод таблицы Гости в PDF и/или на печать" style="rounded=1;whiteSpace=wrap;html=1;absoluteArcSize=1;arcSize=14;strokeWidth=2;" vertex="1" parent="1">
          <mxGeometry x="3380" y="1220" width="140" height="80" as="geometry" />
        </mxCell>
        <mxCell id="rFqdk_0CaIqM8_NlbTHl-50" value="Вывод таблицы Комнаты в PDF и/или на печать" style="rounded=1;whiteSpace=wrap;html=1;absoluteArcSize=1;arcSize=14;strokeWidth=2;" vertex="1" parent="1">
          <mxGeometry x="3380" y="1310" width="140" height="80" as="geometry" />
        </mxCell>
        <mxCell id="rFqdk_0CaIqM8_NlbTHl-51" value="Вывод таблицы Акции в PDF и/или на печать" style="rounded=1;whiteSpace=wrap;html=1;absoluteArcSize=1;arcSize=14;strokeWidth=2;" vertex="1" parent="1">
          <mxGeometry x="3380" y="1400" width="140" height="80" as="geometry" />
        </mxCell>
        <mxCell id="rFqdk_0CaIqM8_NlbTHl-52" value="Вывод таблицы Расценки в PDF и/или на печать" style="rounded=1;whiteSpace=wrap;html=1;absoluteArcSize=1;arcSize=14;strokeWidth=2;" vertex="1" parent="1">
          <mxGeometry x="3380" y="1490" width="140" height="80" as="geometry" />
        </mxCell>
        <mxCell id="rFqdk_0CaIqM8_NlbTHl-53" value="Вывод таблицы Пользователи в PDF и/или на печать" style="rounded=1;whiteSpace=wrap;html=1;absoluteArcSize=1;arcSize=14;strokeWidth=2;" vertex="1" parent="1">
          <mxGeometry x="3380" y="1580" width="140" height="80" as="geometry" />
        </mxCell>
        <mxCell id="rFqdk_0CaIqM8_NlbTHl-54" value="Выполнить запрос &quot;Самое дорогое бронирование&quot;" style="rounded=1;whiteSpace=wrap;html=1;absoluteArcSize=1;arcSize=14;strokeWidth=2;" vertex="1" parent="1">
          <mxGeometry x="3170" y="1220" width="140" height="80" as="geometry" />
        </mxCell>
        <mxCell id="rFqdk_0CaIqM8_NlbTHl-56" value="Выполнить запрос &quot;Самый выбираемый номер за все время&quot;" style="rounded=1;whiteSpace=wrap;html=1;absoluteArcSize=1;arcSize=14;strokeWidth=2;" vertex="1" parent="1">
          <mxGeometry x="3170" y="1310" width="140" height="80" as="geometry" />
        </mxCell>
        <mxCell id="rFqdk_0CaIqM8_NlbTHl-57" value="Выполнить запрос &quot;Самый выбираемый номер за этот месяц&quot;" style="rounded=1;whiteSpace=wrap;html=1;absoluteArcSize=1;arcSize=14;strokeWidth=2;" vertex="1" parent="1">
          <mxGeometry x="3170" y="1400" width="140" height="80" as="geometry" />
        </mxCell>
        <mxCell id="rFqdk_0CaIqM8_NlbTHl-58" value="Выполнить запрос &quot;Средний чек за день в этом месяце&quot;" style="rounded=1;whiteSpace=wrap;html=1;absoluteArcSize=1;arcSize=14;strokeWidth=2;" vertex="1" parent="1">
          <mxGeometry x="3170" y="1490" width="140" height="80" as="geometry" />
        </mxCell>
        <mxCell id="rFqdk_0CaIqM8_NlbTHl-59" value="Выполнить запрос &quot;Самый посещаемый день за все время&quot;" style="rounded=1;whiteSpace=wrap;html=1;absoluteArcSize=1;arcSize=14;strokeWidth=2;" vertex="1" parent="1">
          <mxGeometry x="3170" y="1580" width="140" height="80" as="geometry" />
        </mxCell>
        <mxCell id="rFqdk_0CaIqM8_NlbTHl-73" style="edgeStyle=orthogonalEdgeStyle;rounded=0;orthogonalLoop=1;jettySize=auto;html=1;exitX=0.5;exitY=1;exitDx=0;exitDy=0;exitPerimeter=0;entryX=0;entryY=0.5;entryDx=0;entryDy=0;" edge="1" parent="1" source="rFqdk_0CaIqM8_NlbTHl-70" target="rFqdk_0CaIqM8_NlbTHl-71">
          <mxGeometry relative="1" as="geometry" />
        </mxCell>
        <mxCell id="rFqdk_0CaIqM8_NlbTHl-74" style="edgeStyle=orthogonalEdgeStyle;rounded=0;orthogonalLoop=1;jettySize=auto;html=1;exitX=0.5;exitY=1;exitDx=0;exitDy=0;exitPerimeter=0;entryX=0;entryY=0.5;entryDx=0;entryDy=0;" edge="1" parent="1" source="rFqdk_0CaIqM8_NlbTHl-70" target="rFqdk_0CaIqM8_NlbTHl-72">
          <mxGeometry relative="1" as="geometry" />
        </mxCell>
        <mxCell id="rFqdk_0CaIqM8_NlbTHl-70" value="Выбор действия" style="strokeWidth=2;html=1;shape=mxgraph.flowchart.decision;whiteSpace=wrap;" vertex="1" parent="1">
          <mxGeometry x="2880" y="1138.46" width="130" height="100" as="geometry" />
        </mxCell>
        <mxCell id="rFqdk_0CaIqM8_NlbTHl-71" value="Просмотр данных о бронированиях" style="rounded=1;whiteSpace=wrap;html=1;absoluteArcSize=1;arcSize=14;strokeWidth=2;" vertex="1" parent="1">
          <mxGeometry x="2980" y="1228.46" width="140" height="80" as="geometry" />
        </mxCell>
        <mxCell id="rFqdk_0CaIqM8_NlbTHl-72" value="Оформить комнату" style="rounded=1;whiteSpace=wrap;html=1;absoluteArcSize=1;arcSize=14;strokeWidth=2;" vertex="1" parent="1">
          <mxGeometry x="2980" y="1318.46" width="140" height="80" as="geometry" />
        </mxCell>
        <mxCell id="rFqdk_0CaIqM8_NlbTHl-81" style="edgeStyle=orthogonalEdgeStyle;rounded=0;orthogonalLoop=1;jettySize=auto;html=1;exitX=0;exitY=0.5;exitDx=0;exitDy=0;exitPerimeter=0;entryX=0.5;entryY=0;entryDx=0;entryDy=0;" edge="1" parent="1" source="rFqdk_0CaIqM8_NlbTHl-75" target="rFqdk_0CaIqM8_NlbTHl-78">
          <mxGeometry relative="1" as="geometry" />
        </mxCell>
        <mxCell id="rFqdk_0CaIqM8_NlbTHl-75" value="Была ли сделана проверка свободности номера" style="strokeWidth=2;html=1;shape=mxgraph.flowchart.decision;whiteSpace=wrap;" vertex="1" parent="1">
          <mxGeometry x="2985" y="1438.46" width="130" height="100" as="geometry" />
        </mxCell>
        <mxCell id="rFqdk_0CaIqM8_NlbTHl-76" style="edgeStyle=orthogonalEdgeStyle;rounded=0;orthogonalLoop=1;jettySize=auto;html=1;exitX=0.5;exitY=1;exitDx=0;exitDy=0;entryX=0.5;entryY=0;entryDx=0;entryDy=0;entryPerimeter=0;" edge="1" parent="1" source="rFqdk_0CaIqM8_NlbTHl-72" target="rFqdk_0CaIqM8_NlbTHl-75">
          <mxGeometry relative="1" as="geometry" />
        </mxCell>
        <mxCell id="rFqdk_0CaIqM8_NlbTHl-77" style="edgeStyle=orthogonalEdgeStyle;rounded=0;orthogonalLoop=1;jettySize=auto;html=1;exitX=1;exitY=0.5;exitDx=0;exitDy=0;exitPerimeter=0;entryX=0.5;entryY=0;entryDx=0;entryDy=0;entryPerimeter=0;" edge="1" parent="1" source="rFqdk_0CaIqM8_NlbTHl-75" target="rFqdk_0CaIqM8_NlbTHl-75">
          <mxGeometry relative="1" as="geometry">
            <Array as="points">
              <mxPoint x="3135" y="1488.46" />
              <mxPoint x="3135" y="1418.46" />
              <mxPoint x="3050" y="1418.46" />
            </Array>
          </mxGeometry>
        </mxCell>
        <mxCell id="rFqdk_0CaIqM8_NlbTHl-82" style="edgeStyle=orthogonalEdgeStyle;rounded=0;orthogonalLoop=1;jettySize=auto;html=1;exitX=0.5;exitY=1;exitDx=0;exitDy=0;entryX=0.5;entryY=0;entryDx=0;entryDy=0;" edge="1" parent="1" source="rFqdk_0CaIqM8_NlbTHl-78" target="rFqdk_0CaIqM8_NlbTHl-79">
          <mxGeometry relative="1" as="geometry" />
        </mxCell>
        <mxCell id="rFqdk_0CaIqM8_NlbTHl-78" value="Выбор акции" style="rounded=1;whiteSpace=wrap;html=1;absoluteArcSize=1;arcSize=14;strokeWidth=2;" vertex="1" parent="1">
          <mxGeometry x="2860" y="1518.46" width="140" height="80" as="geometry" />
        </mxCell>
        <mxCell id="rFqdk_0CaIqM8_NlbTHl-83" style="edgeStyle=orthogonalEdgeStyle;rounded=0;orthogonalLoop=1;jettySize=auto;html=1;exitX=0.5;exitY=1;exitDx=0;exitDy=0;entryX=0.5;entryY=0;entryDx=0;entryDy=0;" edge="1" parent="1" source="rFqdk_0CaIqM8_NlbTHl-79" target="rFqdk_0CaIqM8_NlbTHl-80">
          <mxGeometry relative="1" as="geometry" />
        </mxCell>
        <mxCell id="rFqdk_0CaIqM8_NlbTHl-79" value="Ввод контактных данных" style="rounded=1;whiteSpace=wrap;html=1;absoluteArcSize=1;arcSize=14;strokeWidth=2;" vertex="1" parent="1">
          <mxGeometry x="2860" y="1618.46" width="140" height="80" as="geometry" />
        </mxCell>
        <mxCell id="rFqdk_0CaIqM8_NlbTHl-80" value="Оформление" style="rounded=1;whiteSpace=wrap;html=1;absoluteArcSize=1;arcSize=14;strokeWidth=2;" vertex="1" parent="1">
          <mxGeometry x="2860" y="1721.96" width="140" height="80" as="geometry" />
        </mxCell>
        <mxCell id="rFqdk_0CaIqM8_NlbTHl-84" style="edgeStyle=orthogonalEdgeStyle;rounded=0;orthogonalLoop=1;jettySize=auto;html=1;exitX=0.5;exitY=1;exitDx=0;exitDy=0;entryX=0.5;entryY=0;entryDx=0;entryDy=0;entryPerimeter=0;" edge="1" parent="1" source="rFqdk_0CaIqM8_NlbTHl-80" target="rFqdk_0CaIqM8_NlbTHl-70">
          <mxGeometry relative="1" as="geometry">
            <Array as="points">
              <mxPoint x="2930" y="1821.46" />
              <mxPoint x="2850" y="1821.46" />
              <mxPoint x="2850" y="1118.46" />
              <mxPoint x="2945" y="1118.46" />
            </Array>
          </mxGeometry>
        </mxCell>
        <mxCell id="rFqdk_0CaIqM8_NlbTHl-85" style="edgeStyle=orthogonalEdgeStyle;rounded=0;orthogonalLoop=1;jettySize=auto;html=1;exitX=0;exitY=0.5;exitDx=0;exitDy=0;entryX=0.5;entryY=0;entryDx=0;entryDy=0;entryPerimeter=0;" edge="1" parent="1" source="rFqdk_0CaIqM8_NlbTHl-59" target="rFqdk_0CaIqM8_NlbTHl-46">
          <mxGeometry relative="1" as="geometry" />
        </mxCell>
        <mxCell id="rFqdk_0CaIqM8_NlbTHl-88" style="edgeStyle=orthogonalEdgeStyle;rounded=0;orthogonalLoop=1;jettySize=auto;html=1;exitX=0;exitY=0.5;exitDx=0;exitDy=0;entryX=0.5;entryY=0;entryDx=0;entryDy=0;entryPerimeter=0;" edge="1" parent="1" source="rFqdk_0CaIqM8_NlbTHl-58" target="rFqdk_0CaIqM8_NlbTHl-46">
          <mxGeometry relative="1" as="geometry" />
        </mxCell>
        <mxCell id="rFqdk_0CaIqM8_NlbTHl-89" style="edgeStyle=orthogonalEdgeStyle;rounded=0;orthogonalLoop=1;jettySize=auto;html=1;exitX=0;exitY=0.5;exitDx=0;exitDy=0;entryX=0.5;entryY=0;entryDx=0;entryDy=0;entryPerimeter=0;" edge="1" parent="1" source="rFqdk_0CaIqM8_NlbTHl-57" target="rFqdk_0CaIqM8_NlbTHl-46">
          <mxGeometry relative="1" as="geometry" />
        </mxCell>
        <mxCell id="rFqdk_0CaIqM8_NlbTHl-90" style="edgeStyle=orthogonalEdgeStyle;rounded=0;orthogonalLoop=1;jettySize=auto;html=1;exitX=0;exitY=0.5;exitDx=0;exitDy=0;entryX=0.5;entryY=0;entryDx=0;entryDy=0;entryPerimeter=0;" edge="1" parent="1" source="rFqdk_0CaIqM8_NlbTHl-56" target="rFqdk_0CaIqM8_NlbTHl-46">
          <mxGeometry relative="1" as="geometry" />
        </mxCell>
        <mxCell id="rFqdk_0CaIqM8_NlbTHl-91" style="edgeStyle=orthogonalEdgeStyle;rounded=0;orthogonalLoop=1;jettySize=auto;html=1;exitX=0;exitY=0.5;exitDx=0;exitDy=0;entryX=0.5;entryY=0;entryDx=0;entryDy=0;entryPerimeter=0;" edge="1" parent="1" source="rFqdk_0CaIqM8_NlbTHl-54" target="rFqdk_0CaIqM8_NlbTHl-46">
          <mxGeometry relative="1" as="geometry" />
        </mxCell>
        <mxCell id="rFqdk_0CaIqM8_NlbTHl-92" style="edgeStyle=orthogonalEdgeStyle;rounded=0;orthogonalLoop=1;jettySize=auto;html=1;exitX=1;exitY=0.5;exitDx=0;exitDy=0;entryX=0.5;entryY=0;entryDx=0;entryDy=0;entryPerimeter=0;" edge="1" parent="1" source="rFqdk_0CaIqM8_NlbTHl-49" target="rFqdk_0CaIqM8_NlbTHl-46">
          <mxGeometry relative="1" as="geometry" />
        </mxCell>
        <mxCell id="rFqdk_0CaIqM8_NlbTHl-95" style="edgeStyle=orthogonalEdgeStyle;rounded=0;orthogonalLoop=1;jettySize=auto;html=1;exitX=1;exitY=0.5;exitDx=0;exitDy=0;entryX=0.5;entryY=0;entryDx=0;entryDy=0;entryPerimeter=0;" edge="1" parent="1" source="rFqdk_0CaIqM8_NlbTHl-50" target="rFqdk_0CaIqM8_NlbTHl-46">
          <mxGeometry relative="1" as="geometry" />
        </mxCell>
        <mxCell id="rFqdk_0CaIqM8_NlbTHl-96" style="edgeStyle=orthogonalEdgeStyle;rounded=0;orthogonalLoop=1;jettySize=auto;html=1;exitX=1;exitY=0.5;exitDx=0;exitDy=0;entryX=0.5;entryY=0;entryDx=0;entryDy=0;entryPerimeter=0;" edge="1" parent="1" source="rFqdk_0CaIqM8_NlbTHl-51" target="rFqdk_0CaIqM8_NlbTHl-46">
          <mxGeometry relative="1" as="geometry" />
        </mxCell>
        <mxCell id="rFqdk_0CaIqM8_NlbTHl-97" style="edgeStyle=orthogonalEdgeStyle;rounded=0;orthogonalLoop=1;jettySize=auto;html=1;exitX=1;exitY=0.5;exitDx=0;exitDy=0;entryX=0.5;entryY=0;entryDx=0;entryDy=0;entryPerimeter=0;" edge="1" parent="1" source="rFqdk_0CaIqM8_NlbTHl-52" target="rFqdk_0CaIqM8_NlbTHl-46">
          <mxGeometry relative="1" as="geometry" />
        </mxCell>
        <mxCell id="rFqdk_0CaIqM8_NlbTHl-98" style="edgeStyle=orthogonalEdgeStyle;rounded=0;orthogonalLoop=1;jettySize=auto;html=1;exitX=1;exitY=0.5;exitDx=0;exitDy=0;entryX=0.5;entryY=0;entryDx=0;entryDy=0;entryPerimeter=0;" edge="1" parent="1" source="rFqdk_0CaIqM8_NlbTHl-53" target="rFqdk_0CaIqM8_NlbTHl-46">
          <mxGeometry relative="1" as="geometry" />
        </mxCell>
        <mxCell id="rFqdk_0CaIqM8_NlbTHl-99" style="edgeStyle=orthogonalEdgeStyle;rounded=0;orthogonalLoop=1;jettySize=auto;html=1;exitX=0.5;exitY=1;exitDx=0;exitDy=0;exitPerimeter=0;entryX=0;entryY=0.5;entryDx=0;entryDy=0;" edge="1" parent="1" source="rFqdk_0CaIqM8_NlbTHl-100" target="rFqdk_0CaIqM8_NlbTHl-102">
          <mxGeometry relative="1" as="geometry" />
        </mxCell>
        <mxCell id="rFqdk_0CaIqM8_NlbTHl-103" style="edgeStyle=orthogonalEdgeStyle;rounded=0;orthogonalLoop=1;jettySize=auto;html=1;exitX=0.5;exitY=1;exitDx=0;exitDy=0;exitPerimeter=0;entryX=0;entryY=0.5;entryDx=0;entryDy=0;" edge="1" parent="1" source="rFqdk_0CaIqM8_NlbTHl-100" target="rFqdk_0CaIqM8_NlbTHl-101">
          <mxGeometry relative="1" as="geometry" />
        </mxCell>
        <mxCell id="rFqdk_0CaIqM8_NlbTHl-105" style="edgeStyle=orthogonalEdgeStyle;rounded=0;orthogonalLoop=1;jettySize=auto;html=1;exitX=0.5;exitY=1;exitDx=0;exitDy=0;exitPerimeter=0;entryX=0;entryY=0.5;entryDx=0;entryDy=0;" edge="1" parent="1" source="rFqdk_0CaIqM8_NlbTHl-100" target="rFqdk_0CaIqM8_NlbTHl-104">
          <mxGeometry relative="1" as="geometry" />
        </mxCell>
        <mxCell id="rFqdk_0CaIqM8_NlbTHl-100" value="Выбор действия" style="strokeWidth=2;html=1;shape=mxgraph.flowchart.decision;whiteSpace=wrap;" vertex="1" parent="1">
          <mxGeometry x="2550" y="1140" width="130" height="100" as="geometry" />
        </mxCell>
        <mxCell id="rFqdk_0CaIqM8_NlbTHl-101" value="Просмотр данных о гостях" style="rounded=1;whiteSpace=wrap;html=1;absoluteArcSize=1;arcSize=14;strokeWidth=2;" vertex="1" parent="1">
          <mxGeometry x="2650" y="1230" width="140" height="80" as="geometry" />
        </mxCell>
        <mxCell id="rFqdk_0CaIqM8_NlbTHl-102" value="Поиск" style="rounded=1;whiteSpace=wrap;html=1;absoluteArcSize=1;arcSize=14;strokeWidth=2;" vertex="1" parent="1">
          <mxGeometry x="2650" y="1320" width="140" height="80" as="geometry" />
        </mxCell>
        <mxCell id="rFqdk_0CaIqM8_NlbTHl-104" value="Удаление" style="rounded=1;whiteSpace=wrap;html=1;absoluteArcSize=1;arcSize=14;strokeWidth=2;" vertex="1" parent="1">
          <mxGeometry x="2650" y="1410" width="140" height="80" as="geometry" />
        </mxCell>
        <mxCell id="rFqdk_0CaIqM8_NlbTHl-106" value="Фильтровать данные" style="rounded=1;whiteSpace=wrap;html=1;absoluteArcSize=1;arcSize=14;strokeWidth=2;" vertex="1" parent="1">
          <mxGeometry x="2650" y="1500" width="140" height="80" as="geometry" />
        </mxCell>
        <mxCell id="rFqdk_0CaIqM8_NlbTHl-107" style="edgeStyle=orthogonalEdgeStyle;rounded=0;orthogonalLoop=1;jettySize=auto;html=1;exitX=0.5;exitY=1;exitDx=0;exitDy=0;exitPerimeter=0;entryX=0.001;entryY=0.574;entryDx=0;entryDy=0;entryPerimeter=0;" edge="1" parent="1" source="rFqdk_0CaIqM8_NlbTHl-100" target="rFqdk_0CaIqM8_NlbTHl-106">
          <mxGeometry relative="1" as="geometry" />
        </mxCell>
        <mxCell id="rFqdk_0CaIqM8_NlbTHl-108" style="edgeStyle=orthogonalEdgeStyle;rounded=0;orthogonalLoop=1;jettySize=auto;html=1;exitX=1;exitY=0.5;exitDx=0;exitDy=0;entryX=0.5;entryY=0;entryDx=0;entryDy=0;entryPerimeter=0;" edge="1" parent="1" source="rFqdk_0CaIqM8_NlbTHl-101" target="rFqdk_0CaIqM8_NlbTHl-100">
          <mxGeometry relative="1" as="geometry" />
        </mxCell>
        <mxCell id="rFqdk_0CaIqM8_NlbTHl-109" style="edgeStyle=orthogonalEdgeStyle;rounded=0;orthogonalLoop=1;jettySize=auto;html=1;exitX=1;exitY=0.5;exitDx=0;exitDy=0;entryX=0.5;entryY=0;entryDx=0;entryDy=0;entryPerimeter=0;" edge="1" parent="1" source="rFqdk_0CaIqM8_NlbTHl-102" target="rFqdk_0CaIqM8_NlbTHl-100">
          <mxGeometry relative="1" as="geometry" />
        </mxCell>
        <mxCell id="rFqdk_0CaIqM8_NlbTHl-110" style="edgeStyle=orthogonalEdgeStyle;rounded=0;orthogonalLoop=1;jettySize=auto;html=1;exitX=1;exitY=0.5;exitDx=0;exitDy=0;entryX=0.5;entryY=0;entryDx=0;entryDy=0;entryPerimeter=0;" edge="1" parent="1" source="rFqdk_0CaIqM8_NlbTHl-104" target="rFqdk_0CaIqM8_NlbTHl-100">
          <mxGeometry relative="1" as="geometry" />
        </mxCell>
        <mxCell id="rFqdk_0CaIqM8_NlbTHl-111" style="edgeStyle=orthogonalEdgeStyle;rounded=0;orthogonalLoop=1;jettySize=auto;html=1;exitX=1;exitY=0.5;exitDx=0;exitDy=0;entryX=0.5;entryY=0;entryDx=0;entryDy=0;entryPerimeter=0;" edge="1" parent="1" source="rFqdk_0CaIqM8_NlbTHl-106" target="rFqdk_0CaIqM8_NlbTHl-100">
          <mxGeometry relative="1" as="geometry" />
        </mxCell>
        <mxCell id="rFqdk_0CaIqM8_NlbTHl-112" value="Закрыть страницу" style="rounded=1;whiteSpace=wrap;html=1;absoluteArcSize=1;arcSize=14;strokeWidth=2;" vertex="1" parent="1">
          <mxGeometry y="980" width="140" height="80" as="geometry" />
        </mxCell>
        <mxCell id="rFqdk_0CaIqM8_NlbTHl-115" value="Выход" style="strokeWidth=2;html=1;shape=mxgraph.flowchart.terminator;whiteSpace=wrap;" vertex="1" parent="1">
          <mxGeometry x="20" y="1090" width="100" height="60" as="geometry" />
        </mxCell>
        <mxCell id="rFqdk_0CaIqM8_NlbTHl-116" style="edgeStyle=orthogonalEdgeStyle;rounded=0;orthogonalLoop=1;jettySize=auto;html=1;exitX=0.5;exitY=1;exitDx=0;exitDy=0;entryX=0.5;entryY=0;entryDx=0;entryDy=0;entryPerimeter=0;" edge="1" parent="1" source="rFqdk_0CaIqM8_NlbTHl-112" target="rFqdk_0CaIqM8_NlbTHl-115">
          <mxGeometry relative="1" as="geometry" />
        </mxCell>
        <mxCell id="rFqdk_0CaIqM8_NlbTHl-125" style="edgeStyle=orthogonalEdgeStyle;rounded=0;orthogonalLoop=1;jettySize=auto;html=1;exitX=0.5;exitY=1;exitDx=0;exitDy=0;exitPerimeter=0;entryX=0;entryY=0.5;entryDx=0;entryDy=0;" edge="1" parent="1" source="rFqdk_0CaIqM8_NlbTHl-118" target="rFqdk_0CaIqM8_NlbTHl-120">
          <mxGeometry relative="1" as="geometry" />
        </mxCell>
        <mxCell id="rFqdk_0CaIqM8_NlbTHl-126" style="edgeStyle=orthogonalEdgeStyle;rounded=0;orthogonalLoop=1;jettySize=auto;html=1;exitX=0.5;exitY=1;exitDx=0;exitDy=0;exitPerimeter=0;entryX=0;entryY=0.5;entryDx=0;entryDy=0;" edge="1" parent="1" source="rFqdk_0CaIqM8_NlbTHl-118" target="rFqdk_0CaIqM8_NlbTHl-121">
          <mxGeometry relative="1" as="geometry" />
        </mxCell>
        <mxCell id="rFqdk_0CaIqM8_NlbTHl-127" style="edgeStyle=orthogonalEdgeStyle;rounded=0;orthogonalLoop=1;jettySize=auto;html=1;exitX=0.5;exitY=1;exitDx=0;exitDy=0;exitPerimeter=0;entryX=0;entryY=0.5;entryDx=0;entryDy=0;" edge="1" parent="1" source="rFqdk_0CaIqM8_NlbTHl-118" target="rFqdk_0CaIqM8_NlbTHl-119">
          <mxGeometry relative="1" as="geometry" />
        </mxCell>
        <mxCell id="rFqdk_0CaIqM8_NlbTHl-132" style="edgeStyle=orthogonalEdgeStyle;rounded=0;orthogonalLoop=1;jettySize=auto;html=1;exitX=0.5;exitY=1;exitDx=0;exitDy=0;exitPerimeter=0;entryX=0;entryY=0.5;entryDx=0;entryDy=0;" edge="1" parent="1" source="rFqdk_0CaIqM8_NlbTHl-118" target="rFqdk_0CaIqM8_NlbTHl-131">
          <mxGeometry relative="1" as="geometry" />
        </mxCell>
        <mxCell id="rFqdk_0CaIqM8_NlbTHl-134" style="edgeStyle=orthogonalEdgeStyle;rounded=0;orthogonalLoop=1;jettySize=auto;html=1;exitX=0.5;exitY=1;exitDx=0;exitDy=0;exitPerimeter=0;entryX=0;entryY=0.5;entryDx=0;entryDy=0;" edge="1" parent="1" source="rFqdk_0CaIqM8_NlbTHl-118" target="rFqdk_0CaIqM8_NlbTHl-133">
          <mxGeometry relative="1" as="geometry" />
        </mxCell>
        <mxCell id="rFqdk_0CaIqM8_NlbTHl-118" value="Выбор действия" style="strokeWidth=2;html=1;shape=mxgraph.flowchart.decision;whiteSpace=wrap;" vertex="1" parent="1">
          <mxGeometry x="3181" y="346.5" width="130" height="100" as="geometry" />
        </mxCell>
        <mxCell id="rFqdk_0CaIqM8_NlbTHl-119" value="Просмотр данных о&amp;nbsp; комнатах" style="rounded=1;whiteSpace=wrap;html=1;absoluteArcSize=1;arcSize=14;strokeWidth=2;" vertex="1" parent="1">
          <mxGeometry x="3281" y="436.5" width="140" height="80" as="geometry" />
        </mxCell>
        <mxCell id="rFqdk_0CaIqM8_NlbTHl-120" value="Поиск" style="rounded=1;whiteSpace=wrap;html=1;absoluteArcSize=1;arcSize=14;strokeWidth=2;" vertex="1" parent="1">
          <mxGeometry x="3281" y="526.5" width="140" height="80" as="geometry" />
        </mxCell>
        <mxCell id="rFqdk_0CaIqM8_NlbTHl-121" value="Удаление" style="rounded=1;whiteSpace=wrap;html=1;absoluteArcSize=1;arcSize=14;strokeWidth=2;" vertex="1" parent="1">
          <mxGeometry x="3281" y="616.5" width="140" height="80" as="geometry" />
        </mxCell>
        <mxCell id="rFqdk_0CaIqM8_NlbTHl-122" value="Фильтровать данные" style="rounded=1;whiteSpace=wrap;html=1;absoluteArcSize=1;arcSize=14;strokeWidth=2;" vertex="1" parent="1">
          <mxGeometry x="3281" y="706.5" width="140" height="80" as="geometry" />
        </mxCell>
        <mxCell id="rFqdk_0CaIqM8_NlbTHl-123" style="edgeStyle=orthogonalEdgeStyle;rounded=0;orthogonalLoop=1;jettySize=auto;html=1;exitX=0.5;exitY=1;exitDx=0;exitDy=0;exitPerimeter=0;entryX=0.001;entryY=0.574;entryDx=0;entryDy=0;entryPerimeter=0;" edge="1" parent="1" source="rFqdk_0CaIqM8_NlbTHl-118" target="rFqdk_0CaIqM8_NlbTHl-122">
          <mxGeometry relative="1" as="geometry" />
        </mxCell>
        <mxCell id="rFqdk_0CaIqM8_NlbTHl-124" style="edgeStyle=orthogonalEdgeStyle;rounded=0;orthogonalLoop=1;jettySize=auto;html=1;exitX=1;exitY=0.5;exitDx=0;exitDy=0;entryX=0.5;entryY=0;entryDx=0;entryDy=0;entryPerimeter=0;" edge="1" parent="1" source="rFqdk_0CaIqM8_NlbTHl-122" target="rFqdk_0CaIqM8_NlbTHl-118">
          <mxGeometry relative="1" as="geometry" />
        </mxCell>
        <mxCell id="rFqdk_0CaIqM8_NlbTHl-128" style="edgeStyle=orthogonalEdgeStyle;rounded=0;orthogonalLoop=1;jettySize=auto;html=1;exitX=1;exitY=0.5;exitDx=0;exitDy=0;entryX=0.5;entryY=0;entryDx=0;entryDy=0;entryPerimeter=0;" edge="1" parent="1" source="rFqdk_0CaIqM8_NlbTHl-121" target="rFqdk_0CaIqM8_NlbTHl-118">
          <mxGeometry relative="1" as="geometry" />
        </mxCell>
        <mxCell id="rFqdk_0CaIqM8_NlbTHl-129" style="edgeStyle=orthogonalEdgeStyle;rounded=0;orthogonalLoop=1;jettySize=auto;html=1;exitX=1;exitY=0.5;exitDx=0;exitDy=0;entryX=0.5;entryY=0;entryDx=0;entryDy=0;entryPerimeter=0;" edge="1" parent="1" source="rFqdk_0CaIqM8_NlbTHl-120" target="rFqdk_0CaIqM8_NlbTHl-118">
          <mxGeometry relative="1" as="geometry" />
        </mxCell>
        <mxCell id="rFqdk_0CaIqM8_NlbTHl-130" style="edgeStyle=orthogonalEdgeStyle;rounded=0;orthogonalLoop=1;jettySize=auto;html=1;exitX=1;exitY=0.5;exitDx=0;exitDy=0;entryX=0.5;entryY=0;entryDx=0;entryDy=0;entryPerimeter=0;" edge="1" parent="1" source="rFqdk_0CaIqM8_NlbTHl-119" target="rFqdk_0CaIqM8_NlbTHl-118">
          <mxGeometry relative="1" as="geometry" />
        </mxCell>
        <mxCell id="rFqdk_0CaIqM8_NlbTHl-131" value="Создание комнаты" style="rounded=1;whiteSpace=wrap;html=1;absoluteArcSize=1;arcSize=14;strokeWidth=2;" vertex="1" parent="1">
          <mxGeometry x="3281" y="796.5" width="140" height="80" as="geometry" />
        </mxCell>
        <mxCell id="rFqdk_0CaIqM8_NlbTHl-133" value="Редактирование комнаты" style="rounded=1;whiteSpace=wrap;html=1;absoluteArcSize=1;arcSize=14;strokeWidth=2;" vertex="1" parent="1">
          <mxGeometry x="3281" y="886.5" width="140" height="80" as="geometry" />
        </mxCell>
        <mxCell id="rFqdk_0CaIqM8_NlbTHl-135" style="edgeStyle=orthogonalEdgeStyle;rounded=0;orthogonalLoop=1;jettySize=auto;html=1;exitX=1;exitY=0.5;exitDx=0;exitDy=0;entryX=0.5;entryY=0;entryDx=0;entryDy=0;entryPerimeter=0;" edge="1" parent="1" source="rFqdk_0CaIqM8_NlbTHl-131" target="rFqdk_0CaIqM8_NlbTHl-118">
          <mxGeometry relative="1" as="geometry" />
        </mxCell>
        <mxCell id="rFqdk_0CaIqM8_NlbTHl-136" style="edgeStyle=orthogonalEdgeStyle;rounded=0;orthogonalLoop=1;jettySize=auto;html=1;exitX=1;exitY=0.5;exitDx=0;exitDy=0;entryX=0.5;entryY=0;entryDx=0;entryDy=0;entryPerimeter=0;" edge="1" parent="1" source="rFqdk_0CaIqM8_NlbTHl-133" target="rFqdk_0CaIqM8_NlbTHl-118">
          <mxGeometry relative="1" as="geometry" />
        </mxCell>
        <mxCell id="rFqdk_0CaIqM8_NlbTHl-137" style="edgeStyle=orthogonalEdgeStyle;rounded=0;orthogonalLoop=1;jettySize=auto;html=1;exitX=0.5;exitY=1;exitDx=0;exitDy=0;exitPerimeter=0;entryX=0;entryY=0.5;entryDx=0;entryDy=0;" edge="1" parent="1" source="rFqdk_0CaIqM8_NlbTHl-142" target="rFqdk_0CaIqM8_NlbTHl-144">
          <mxGeometry relative="1" as="geometry" />
        </mxCell>
        <mxCell id="rFqdk_0CaIqM8_NlbTHl-138" style="edgeStyle=orthogonalEdgeStyle;rounded=0;orthogonalLoop=1;jettySize=auto;html=1;exitX=0.5;exitY=1;exitDx=0;exitDy=0;exitPerimeter=0;entryX=0;entryY=0.5;entryDx=0;entryDy=0;" edge="1" parent="1" source="rFqdk_0CaIqM8_NlbTHl-142" target="rFqdk_0CaIqM8_NlbTHl-145">
          <mxGeometry relative="1" as="geometry" />
        </mxCell>
        <mxCell id="rFqdk_0CaIqM8_NlbTHl-139" style="edgeStyle=orthogonalEdgeStyle;rounded=0;orthogonalLoop=1;jettySize=auto;html=1;exitX=0.5;exitY=1;exitDx=0;exitDy=0;exitPerimeter=0;entryX=0;entryY=0.5;entryDx=0;entryDy=0;" edge="1" parent="1" source="rFqdk_0CaIqM8_NlbTHl-142" target="rFqdk_0CaIqM8_NlbTHl-143">
          <mxGeometry relative="1" as="geometry" />
        </mxCell>
        <mxCell id="rFqdk_0CaIqM8_NlbTHl-140" style="edgeStyle=orthogonalEdgeStyle;rounded=0;orthogonalLoop=1;jettySize=auto;html=1;exitX=0.5;exitY=1;exitDx=0;exitDy=0;exitPerimeter=0;entryX=0;entryY=0.5;entryDx=0;entryDy=0;" edge="1" parent="1" source="rFqdk_0CaIqM8_NlbTHl-142" target="rFqdk_0CaIqM8_NlbTHl-152">
          <mxGeometry relative="1" as="geometry" />
        </mxCell>
        <mxCell id="rFqdk_0CaIqM8_NlbTHl-141" style="edgeStyle=orthogonalEdgeStyle;rounded=0;orthogonalLoop=1;jettySize=auto;html=1;exitX=0.5;exitY=1;exitDx=0;exitDy=0;exitPerimeter=0;entryX=0;entryY=0.5;entryDx=0;entryDy=0;" edge="1" parent="1" source="rFqdk_0CaIqM8_NlbTHl-142" target="rFqdk_0CaIqM8_NlbTHl-153">
          <mxGeometry relative="1" as="geometry" />
        </mxCell>
        <mxCell id="rFqdk_0CaIqM8_NlbTHl-157" style="edgeStyle=orthogonalEdgeStyle;rounded=0;orthogonalLoop=1;jettySize=auto;html=1;exitX=0.5;exitY=1;exitDx=0;exitDy=0;exitPerimeter=0;entryX=0;entryY=0.5;entryDx=0;entryDy=0;" edge="1" parent="1" source="rFqdk_0CaIqM8_NlbTHl-142" target="rFqdk_0CaIqM8_NlbTHl-156">
          <mxGeometry relative="1" as="geometry" />
        </mxCell>
        <mxCell id="rFqdk_0CaIqM8_NlbTHl-142" value="Выбор действия" style="strokeWidth=2;html=1;shape=mxgraph.flowchart.decision;whiteSpace=wrap;" vertex="1" parent="1">
          <mxGeometry x="2898" y="346.5" width="130" height="100" as="geometry" />
        </mxCell>
        <mxCell id="rFqdk_0CaIqM8_NlbTHl-143" value="Просмотр данных о&amp;nbsp; акциях" style="rounded=1;whiteSpace=wrap;html=1;absoluteArcSize=1;arcSize=14;strokeWidth=2;" vertex="1" parent="1">
          <mxGeometry x="2998" y="436.5" width="140" height="80" as="geometry" />
        </mxCell>
        <mxCell id="rFqdk_0CaIqM8_NlbTHl-144" value="Поиск" style="rounded=1;whiteSpace=wrap;html=1;absoluteArcSize=1;arcSize=14;strokeWidth=2;" vertex="1" parent="1">
          <mxGeometry x="2998" y="526.5" width="140" height="80" as="geometry" />
        </mxCell>
        <mxCell id="rFqdk_0CaIqM8_NlbTHl-145" value="Удаление" style="rounded=1;whiteSpace=wrap;html=1;absoluteArcSize=1;arcSize=14;strokeWidth=2;" vertex="1" parent="1">
          <mxGeometry x="2998" y="616.5" width="140" height="80" as="geometry" />
        </mxCell>
        <mxCell id="rFqdk_0CaIqM8_NlbTHl-146" value="Фильтровать данные" style="rounded=1;whiteSpace=wrap;html=1;absoluteArcSize=1;arcSize=14;strokeWidth=2;" vertex="1" parent="1">
          <mxGeometry x="2998" y="706.5" width="140" height="80" as="geometry" />
        </mxCell>
        <mxCell id="rFqdk_0CaIqM8_NlbTHl-147" style="edgeStyle=orthogonalEdgeStyle;rounded=0;orthogonalLoop=1;jettySize=auto;html=1;exitX=0.5;exitY=1;exitDx=0;exitDy=0;exitPerimeter=0;entryX=0.001;entryY=0.574;entryDx=0;entryDy=0;entryPerimeter=0;" edge="1" parent="1" source="rFqdk_0CaIqM8_NlbTHl-142" target="rFqdk_0CaIqM8_NlbTHl-146">
          <mxGeometry relative="1" as="geometry" />
        </mxCell>
        <mxCell id="rFqdk_0CaIqM8_NlbTHl-148" style="edgeStyle=orthogonalEdgeStyle;rounded=0;orthogonalLoop=1;jettySize=auto;html=1;exitX=1;exitY=0.5;exitDx=0;exitDy=0;entryX=0.5;entryY=0;entryDx=0;entryDy=0;entryPerimeter=0;" edge="1" parent="1" source="rFqdk_0CaIqM8_NlbTHl-146" target="rFqdk_0CaIqM8_NlbTHl-142">
          <mxGeometry relative="1" as="geometry" />
        </mxCell>
        <mxCell id="rFqdk_0CaIqM8_NlbTHl-149" style="edgeStyle=orthogonalEdgeStyle;rounded=0;orthogonalLoop=1;jettySize=auto;html=1;exitX=1;exitY=0.5;exitDx=0;exitDy=0;entryX=0.5;entryY=0;entryDx=0;entryDy=0;entryPerimeter=0;" edge="1" parent="1" source="rFqdk_0CaIqM8_NlbTHl-145" target="rFqdk_0CaIqM8_NlbTHl-142">
          <mxGeometry relative="1" as="geometry" />
        </mxCell>
        <mxCell id="rFqdk_0CaIqM8_NlbTHl-150" style="edgeStyle=orthogonalEdgeStyle;rounded=0;orthogonalLoop=1;jettySize=auto;html=1;exitX=1;exitY=0.5;exitDx=0;exitDy=0;entryX=0.5;entryY=0;entryDx=0;entryDy=0;entryPerimeter=0;" edge="1" parent="1" source="rFqdk_0CaIqM8_NlbTHl-144" target="rFqdk_0CaIqM8_NlbTHl-142">
          <mxGeometry relative="1" as="geometry" />
        </mxCell>
        <mxCell id="rFqdk_0CaIqM8_NlbTHl-151" style="edgeStyle=orthogonalEdgeStyle;rounded=0;orthogonalLoop=1;jettySize=auto;html=1;exitX=1;exitY=0.5;exitDx=0;exitDy=0;entryX=0.5;entryY=0;entryDx=0;entryDy=0;entryPerimeter=0;" edge="1" parent="1" source="rFqdk_0CaIqM8_NlbTHl-143" target="rFqdk_0CaIqM8_NlbTHl-142">
          <mxGeometry relative="1" as="geometry" />
        </mxCell>
        <mxCell id="rFqdk_0CaIqM8_NlbTHl-152" value="Создание акции" style="rounded=1;whiteSpace=wrap;html=1;absoluteArcSize=1;arcSize=14;strokeWidth=2;" vertex="1" parent="1">
          <mxGeometry x="2998" y="796.5" width="140" height="80" as="geometry" />
        </mxCell>
        <mxCell id="rFqdk_0CaIqM8_NlbTHl-153" value="Редактирование акции" style="rounded=1;whiteSpace=wrap;html=1;absoluteArcSize=1;arcSize=14;strokeWidth=2;" vertex="1" parent="1">
          <mxGeometry x="2998" y="886.5" width="140" height="80" as="geometry" />
        </mxCell>
        <mxCell id="rFqdk_0CaIqM8_NlbTHl-154" style="edgeStyle=orthogonalEdgeStyle;rounded=0;orthogonalLoop=1;jettySize=auto;html=1;exitX=1;exitY=0.5;exitDx=0;exitDy=0;entryX=0.5;entryY=0;entryDx=0;entryDy=0;entryPerimeter=0;" edge="1" parent="1" source="rFqdk_0CaIqM8_NlbTHl-152" target="rFqdk_0CaIqM8_NlbTHl-142">
          <mxGeometry relative="1" as="geometry" />
        </mxCell>
        <mxCell id="rFqdk_0CaIqM8_NlbTHl-155" style="edgeStyle=orthogonalEdgeStyle;rounded=0;orthogonalLoop=1;jettySize=auto;html=1;exitX=1;exitY=0.5;exitDx=0;exitDy=0;entryX=0.5;entryY=0;entryDx=0;entryDy=0;entryPerimeter=0;" edge="1" parent="1" source="rFqdk_0CaIqM8_NlbTHl-153" target="rFqdk_0CaIqM8_NlbTHl-142">
          <mxGeometry relative="1" as="geometry" />
        </mxCell>
        <mxCell id="rFqdk_0CaIqM8_NlbTHl-156" value="Просмотр подробной информации об акции" style="rounded=1;whiteSpace=wrap;html=1;absoluteArcSize=1;arcSize=14;strokeWidth=2;" vertex="1" parent="1">
          <mxGeometry x="2998" y="980" width="140" height="80" as="geometry" />
        </mxCell>
        <mxCell id="rFqdk_0CaIqM8_NlbTHl-158" style="edgeStyle=orthogonalEdgeStyle;rounded=0;orthogonalLoop=1;jettySize=auto;html=1;exitX=1;exitY=0.5;exitDx=0;exitDy=0;entryX=0.5;entryY=0;entryDx=0;entryDy=0;entryPerimeter=0;" edge="1" parent="1" source="rFqdk_0CaIqM8_NlbTHl-156" target="rFqdk_0CaIqM8_NlbTHl-142">
          <mxGeometry relative="1" as="geometry" />
        </mxCell>
        <mxCell id="rFqdk_0CaIqM8_NlbTHl-177" style="edgeStyle=orthogonalEdgeStyle;rounded=0;orthogonalLoop=1;jettySize=auto;html=1;exitX=0.5;exitY=1;exitDx=0;exitDy=0;exitPerimeter=0;entryX=0;entryY=0.5;entryDx=0;entryDy=0;" edge="1" parent="1" source="rFqdk_0CaIqM8_NlbTHl-181" target="rFqdk_0CaIqM8_NlbTHl-184">
          <mxGeometry relative="1" as="geometry" />
        </mxCell>
        <mxCell id="rFqdk_0CaIqM8_NlbTHl-178" style="edgeStyle=orthogonalEdgeStyle;rounded=0;orthogonalLoop=1;jettySize=auto;html=1;exitX=0.5;exitY=1;exitDx=0;exitDy=0;exitPerimeter=0;entryX=0;entryY=0.5;entryDx=0;entryDy=0;" edge="1" parent="1" source="rFqdk_0CaIqM8_NlbTHl-181" target="rFqdk_0CaIqM8_NlbTHl-182">
          <mxGeometry relative="1" as="geometry" />
        </mxCell>
        <mxCell id="rFqdk_0CaIqM8_NlbTHl-179" style="edgeStyle=orthogonalEdgeStyle;rounded=0;orthogonalLoop=1;jettySize=auto;html=1;exitX=0.5;exitY=1;exitDx=0;exitDy=0;exitPerimeter=0;entryX=0;entryY=0.5;entryDx=0;entryDy=0;" edge="1" parent="1" source="rFqdk_0CaIqM8_NlbTHl-181" target="rFqdk_0CaIqM8_NlbTHl-191">
          <mxGeometry relative="1" as="geometry" />
        </mxCell>
        <mxCell id="rFqdk_0CaIqM8_NlbTHl-180" style="edgeStyle=orthogonalEdgeStyle;rounded=0;orthogonalLoop=1;jettySize=auto;html=1;exitX=0.5;exitY=1;exitDx=0;exitDy=0;exitPerimeter=0;entryX=0;entryY=0.5;entryDx=0;entryDy=0;" edge="1" parent="1" source="rFqdk_0CaIqM8_NlbTHl-181" target="rFqdk_0CaIqM8_NlbTHl-192">
          <mxGeometry relative="1" as="geometry" />
        </mxCell>
        <mxCell id="rFqdk_0CaIqM8_NlbTHl-181" value="Выбор действия" style="strokeWidth=2;html=1;shape=mxgraph.flowchart.decision;whiteSpace=wrap;" vertex="1" parent="1">
          <mxGeometry x="2630" y="344.96000000000004" width="130" height="100" as="geometry" />
        </mxCell>
        <mxCell id="rFqdk_0CaIqM8_NlbTHl-182" value="Просмотр данных о&amp;nbsp; расценках" style="rounded=1;whiteSpace=wrap;html=1;absoluteArcSize=1;arcSize=14;strokeWidth=2;" vertex="1" parent="1">
          <mxGeometry x="2730" y="436.5" width="140" height="80" as="geometry" />
        </mxCell>
        <mxCell id="rFqdk_0CaIqM8_NlbTHl-184" value="Удаление" style="rounded=1;whiteSpace=wrap;html=1;absoluteArcSize=1;arcSize=14;strokeWidth=2;" vertex="1" parent="1">
          <mxGeometry x="2730" y="526.5" width="140" height="80" as="geometry" />
        </mxCell>
        <mxCell id="rFqdk_0CaIqM8_NlbTHl-188" style="edgeStyle=orthogonalEdgeStyle;rounded=0;orthogonalLoop=1;jettySize=auto;html=1;exitX=1;exitY=0.5;exitDx=0;exitDy=0;entryX=0.5;entryY=0;entryDx=0;entryDy=0;entryPerimeter=0;" edge="1" parent="1" source="rFqdk_0CaIqM8_NlbTHl-184" target="rFqdk_0CaIqM8_NlbTHl-181">
          <mxGeometry relative="1" as="geometry" />
        </mxCell>
        <mxCell id="rFqdk_0CaIqM8_NlbTHl-190" style="edgeStyle=orthogonalEdgeStyle;rounded=0;orthogonalLoop=1;jettySize=auto;html=1;exitX=1;exitY=0.5;exitDx=0;exitDy=0;entryX=0.5;entryY=0;entryDx=0;entryDy=0;entryPerimeter=0;" edge="1" parent="1" source="rFqdk_0CaIqM8_NlbTHl-182" target="rFqdk_0CaIqM8_NlbTHl-181">
          <mxGeometry relative="1" as="geometry" />
        </mxCell>
        <mxCell id="rFqdk_0CaIqM8_NlbTHl-191" value="Создание расценки" style="rounded=1;whiteSpace=wrap;html=1;absoluteArcSize=1;arcSize=14;strokeWidth=2;" vertex="1" parent="1">
          <mxGeometry x="2730" y="616.5" width="140" height="80" as="geometry" />
        </mxCell>
        <mxCell id="rFqdk_0CaIqM8_NlbTHl-192" value="Редактирование расценки" style="rounded=1;whiteSpace=wrap;html=1;absoluteArcSize=1;arcSize=14;strokeWidth=2;" vertex="1" parent="1">
          <mxGeometry x="2730" y="706.5" width="140" height="80" as="geometry" />
        </mxCell>
        <mxCell id="rFqdk_0CaIqM8_NlbTHl-193" style="edgeStyle=orthogonalEdgeStyle;rounded=0;orthogonalLoop=1;jettySize=auto;html=1;exitX=1;exitY=0.5;exitDx=0;exitDy=0;entryX=0.5;entryY=0;entryDx=0;entryDy=0;entryPerimeter=0;" edge="1" parent="1" source="rFqdk_0CaIqM8_NlbTHl-191" target="rFqdk_0CaIqM8_NlbTHl-181">
          <mxGeometry relative="1" as="geometry" />
        </mxCell>
        <mxCell id="rFqdk_0CaIqM8_NlbTHl-194" style="edgeStyle=orthogonalEdgeStyle;rounded=0;orthogonalLoop=1;jettySize=auto;html=1;exitX=1;exitY=0.5;exitDx=0;exitDy=0;entryX=0.5;entryY=0;entryDx=0;entryDy=0;entryPerimeter=0;" edge="1" parent="1" source="rFqdk_0CaIqM8_NlbTHl-192" target="rFqdk_0CaIqM8_NlbTHl-181">
          <mxGeometry relative="1" as="geometry" />
        </mxCell>
        <mxCell id="rFqdk_0CaIqM8_NlbTHl-195" value="" style="verticalLabelPosition=bottom;verticalAlign=top;html=1;shape=mxgraph.flowchart.on-page_reference;" vertex="1" parent="1">
          <mxGeometry x="500" y="1080" width="60" height="60" as="geometry" />
        </mxCell>
        <mxCell id="rFqdk_0CaIqM8_NlbTHl-196" value="" style="verticalLabelPosition=bottom;verticalAlign=top;html=1;shape=mxgraph.flowchart.on-page_reference;" vertex="1" parent="1">
          <mxGeometry x="500" y="1170" width="60" height="60" as="geometry" />
        </mxCell>
        <mxCell id="rFqdk_0CaIqM8_NlbTHl-197" value="" style="verticalLabelPosition=bottom;verticalAlign=top;html=1;shape=mxgraph.flowchart.on-page_reference;" vertex="1" parent="1">
          <mxGeometry x="500" y="1260" width="60" height="60" as="geometry" />
        </mxCell>
        <mxCell id="rFqdk_0CaIqM8_NlbTHl-198" value="" style="verticalLabelPosition=bottom;verticalAlign=top;html=1;shape=mxgraph.flowchart.on-page_reference;" vertex="1" parent="1">
          <mxGeometry x="500" y="1350" width="60" height="60" as="geometry" />
        </mxCell>
        <mxCell id="rFqdk_0CaIqM8_NlbTHl-199" value="" style="verticalLabelPosition=bottom;verticalAlign=top;html=1;shape=mxgraph.flowchart.on-page_reference;" vertex="1" parent="1">
          <mxGeometry x="500" y="1440" width="60" height="60" as="geometry" />
        </mxCell>
        <mxCell id="rFqdk_0CaIqM8_NlbTHl-200" value="" style="verticalLabelPosition=bottom;verticalAlign=top;html=1;shape=mxgraph.flowchart.on-page_reference;" vertex="1" parent="1">
          <mxGeometry x="500" y="1530" width="60" height="60" as="geometry" />
        </mxCell>
        <mxCell id="rFqdk_0CaIqM8_NlbTHl-201" style="edgeStyle=orthogonalEdgeStyle;rounded=0;orthogonalLoop=1;jettySize=auto;html=1;exitX=1;exitY=0.5;exitDx=0;exitDy=0;entryX=0;entryY=0.5;entryDx=0;entryDy=0;entryPerimeter=0;" edge="1" parent="1" source="rFqdk_0CaIqM8_NlbTHl-34" target="rFqdk_0CaIqM8_NlbTHl-195">
          <mxGeometry relative="1" as="geometry" />
        </mxCell>
        <mxCell id="rFqdk_0CaIqM8_NlbTHl-202" style="edgeStyle=orthogonalEdgeStyle;rounded=0;orthogonalLoop=1;jettySize=auto;html=1;exitX=1;exitY=0.5;exitDx=0;exitDy=0;entryX=0;entryY=0.5;entryDx=0;entryDy=0;entryPerimeter=0;" edge="1" parent="1" source="rFqdk_0CaIqM8_NlbTHl-35" target="rFqdk_0CaIqM8_NlbTHl-196">
          <mxGeometry relative="1" as="geometry" />
        </mxCell>
        <mxCell id="rFqdk_0CaIqM8_NlbTHl-203" style="edgeStyle=orthogonalEdgeStyle;rounded=0;orthogonalLoop=1;jettySize=auto;html=1;exitX=1;exitY=0.5;exitDx=0;exitDy=0;entryX=0;entryY=0.5;entryDx=0;entryDy=0;entryPerimeter=0;" edge="1" parent="1" source="rFqdk_0CaIqM8_NlbTHl-36" target="rFqdk_0CaIqM8_NlbTHl-197">
          <mxGeometry relative="1" as="geometry" />
        </mxCell>
        <mxCell id="rFqdk_0CaIqM8_NlbTHl-204" style="edgeStyle=orthogonalEdgeStyle;rounded=0;orthogonalLoop=1;jettySize=auto;html=1;exitX=1;exitY=0.5;exitDx=0;exitDy=0;entryX=0;entryY=0.5;entryDx=0;entryDy=0;entryPerimeter=0;" edge="1" parent="1" source="rFqdk_0CaIqM8_NlbTHl-37" target="rFqdk_0CaIqM8_NlbTHl-198">
          <mxGeometry relative="1" as="geometry" />
        </mxCell>
        <mxCell id="rFqdk_0CaIqM8_NlbTHl-205" style="edgeStyle=orthogonalEdgeStyle;rounded=0;orthogonalLoop=1;jettySize=auto;html=1;exitX=1;exitY=0.5;exitDx=0;exitDy=0;entryX=0;entryY=0.5;entryDx=0;entryDy=0;entryPerimeter=0;" edge="1" parent="1" source="rFqdk_0CaIqM8_NlbTHl-38" target="rFqdk_0CaIqM8_NlbTHl-199">
          <mxGeometry relative="1" as="geometry" />
        </mxCell>
        <mxCell id="rFqdk_0CaIqM8_NlbTHl-206" style="edgeStyle=orthogonalEdgeStyle;rounded=0;orthogonalLoop=1;jettySize=auto;html=1;exitX=1;exitY=0.5;exitDx=0;exitDy=0;entryX=0;entryY=0.5;entryDx=0;entryDy=0;entryPerimeter=0;" edge="1" parent="1" source="rFqdk_0CaIqM8_NlbTHl-39" target="rFqdk_0CaIqM8_NlbTHl-200">
          <mxGeometry relative="1" as="geometry" />
        </mxCell>
        <mxCell id="rFqdk_0CaIqM8_NlbTHl-207" value="&lt;font style=&quot;font-size: 18px;&quot;&gt;A&lt;/font&gt;" style="text;html=1;strokeColor=none;fillColor=none;align=center;verticalAlign=middle;whiteSpace=wrap;rounded=0;" vertex="1" parent="1">
          <mxGeometry x="500" y="1095" width="60" height="30" as="geometry" />
        </mxCell>
        <mxCell id="rFqdk_0CaIqM8_NlbTHl-208" value="&lt;span style=&quot;font-size: 18px;&quot;&gt;Б&lt;/span&gt;" style="text;html=1;strokeColor=none;fillColor=none;align=center;verticalAlign=middle;whiteSpace=wrap;rounded=0;" vertex="1" parent="1">
          <mxGeometry x="500" y="1185" width="60" height="30" as="geometry" />
        </mxCell>
        <mxCell id="rFqdk_0CaIqM8_NlbTHl-209" value="&lt;font style=&quot;font-size: 18px;&quot;&gt;В&lt;/font&gt;" style="text;html=1;strokeColor=none;fillColor=none;align=center;verticalAlign=middle;whiteSpace=wrap;rounded=0;" vertex="1" parent="1">
          <mxGeometry x="500" y="1275" width="60" height="30" as="geometry" />
        </mxCell>
        <mxCell id="rFqdk_0CaIqM8_NlbTHl-210" value="&lt;font style=&quot;font-size: 18px;&quot;&gt;Г&lt;/font&gt;" style="text;html=1;strokeColor=none;fillColor=none;align=center;verticalAlign=middle;whiteSpace=wrap;rounded=0;" vertex="1" parent="1">
          <mxGeometry x="500" y="1365" width="60" height="30" as="geometry" />
        </mxCell>
        <mxCell id="rFqdk_0CaIqM8_NlbTHl-211" value="&lt;font style=&quot;font-size: 18px;&quot;&gt;Д&lt;/font&gt;" style="text;html=1;strokeColor=none;fillColor=none;align=center;verticalAlign=middle;whiteSpace=wrap;rounded=0;" vertex="1" parent="1">
          <mxGeometry x="500" y="1455" width="60" height="30" as="geometry" />
        </mxCell>
        <mxCell id="rFqdk_0CaIqM8_NlbTHl-212" value="&lt;span style=&quot;font-size: 18px;&quot;&gt;Е&lt;/span&gt;" style="text;html=1;strokeColor=none;fillColor=none;align=center;verticalAlign=middle;whiteSpace=wrap;rounded=0;" vertex="1" parent="1">
          <mxGeometry x="500" y="1545" width="60" height="30" as="geometry" />
        </mxCell>
        <mxCell id="rFqdk_0CaIqM8_NlbTHl-213" value="" style="verticalLabelPosition=bottom;verticalAlign=top;html=1;shape=mxgraph.flowchart.on-page_reference;" vertex="1" parent="1">
          <mxGeometry x="3315" y="1040" width="60" height="60" as="geometry" />
        </mxCell>
        <mxCell id="rFqdk_0CaIqM8_NlbTHl-214" value="&lt;font style=&quot;font-size: 18px;&quot;&gt;A&lt;/font&gt;" style="text;html=1;strokeColor=none;fillColor=none;align=center;verticalAlign=middle;whiteSpace=wrap;rounded=0;" vertex="1" parent="1">
          <mxGeometry x="3315" y="1055" width="60" height="30" as="geometry" />
        </mxCell>
        <mxCell id="rFqdk_0CaIqM8_NlbTHl-215" style="edgeStyle=orthogonalEdgeStyle;rounded=0;orthogonalLoop=1;jettySize=auto;html=1;exitX=0.5;exitY=1;exitDx=0;exitDy=0;exitPerimeter=0;entryX=0.5;entryY=0;entryDx=0;entryDy=0;entryPerimeter=0;" edge="1" parent="1" source="rFqdk_0CaIqM8_NlbTHl-213" target="rFqdk_0CaIqM8_NlbTHl-46">
          <mxGeometry relative="1" as="geometry" />
        </mxCell>
        <mxCell id="rFqdk_0CaIqM8_NlbTHl-216" value="" style="verticalLabelPosition=bottom;verticalAlign=top;html=1;shape=mxgraph.flowchart.on-page_reference;" vertex="1" parent="1">
          <mxGeometry x="2915" y="1040" width="60" height="60" as="geometry" />
        </mxCell>
        <mxCell id="rFqdk_0CaIqM8_NlbTHl-217" value="&lt;span style=&quot;font-size: 18px;&quot;&gt;Б&lt;/span&gt;" style="text;html=1;strokeColor=none;fillColor=none;align=center;verticalAlign=middle;whiteSpace=wrap;rounded=0;" vertex="1" parent="1">
          <mxGeometry x="2915" y="1055" width="60" height="30" as="geometry" />
        </mxCell>
        <mxCell id="rFqdk_0CaIqM8_NlbTHl-222" value="" style="verticalLabelPosition=bottom;verticalAlign=top;html=1;shape=mxgraph.flowchart.on-page_reference;" vertex="1" parent="1">
          <mxGeometry x="2585" y="1040" width="60" height="60" as="geometry" />
        </mxCell>
        <mxCell id="rFqdk_0CaIqM8_NlbTHl-223" value="&lt;font style=&quot;font-size: 18px;&quot;&gt;В&lt;/font&gt;" style="text;html=1;strokeColor=none;fillColor=none;align=center;verticalAlign=middle;whiteSpace=wrap;rounded=0;" vertex="1" parent="1">
          <mxGeometry x="2585" y="1055" width="60" height="30" as="geometry" />
        </mxCell>
        <mxCell id="rFqdk_0CaIqM8_NlbTHl-224" style="edgeStyle=orthogonalEdgeStyle;rounded=0;orthogonalLoop=1;jettySize=auto;html=1;exitX=0.5;exitY=1;exitDx=0;exitDy=0;exitPerimeter=0;entryX=0.5;entryY=0;entryDx=0;entryDy=0;entryPerimeter=0;" edge="1" parent="1" source="rFqdk_0CaIqM8_NlbTHl-216" target="rFqdk_0CaIqM8_NlbTHl-70">
          <mxGeometry relative="1" as="geometry" />
        </mxCell>
        <mxCell id="rFqdk_0CaIqM8_NlbTHl-229" style="edgeStyle=orthogonalEdgeStyle;rounded=0;orthogonalLoop=1;jettySize=auto;html=1;exitX=0.5;exitY=1;exitDx=0;exitDy=0;exitPerimeter=0;entryX=0.5;entryY=0;entryDx=0;entryDy=0;entryPerimeter=0;" edge="1" parent="1" source="rFqdk_0CaIqM8_NlbTHl-222" target="rFqdk_0CaIqM8_NlbTHl-100">
          <mxGeometry relative="1" as="geometry" />
        </mxCell>
        <mxCell id="rFqdk_0CaIqM8_NlbTHl-230" value="" style="verticalLabelPosition=bottom;verticalAlign=top;html=1;shape=mxgraph.flowchart.on-page_reference;" vertex="1" parent="1">
          <mxGeometry x="3216" y="250" width="60" height="60" as="geometry" />
        </mxCell>
        <mxCell id="rFqdk_0CaIqM8_NlbTHl-231" value="" style="verticalLabelPosition=bottom;verticalAlign=top;html=1;shape=mxgraph.flowchart.on-page_reference;" vertex="1" parent="1">
          <mxGeometry x="2933" y="250" width="60" height="60" as="geometry" />
        </mxCell>
        <mxCell id="rFqdk_0CaIqM8_NlbTHl-232" value="" style="verticalLabelPosition=bottom;verticalAlign=top;html=1;shape=mxgraph.flowchart.on-page_reference;" vertex="1" parent="1">
          <mxGeometry x="2665" y="250" width="60" height="60" as="geometry" />
        </mxCell>
        <mxCell id="rFqdk_0CaIqM8_NlbTHl-233" value="&lt;font style=&quot;font-size: 18px;&quot;&gt;Г&lt;/font&gt;" style="text;html=1;strokeColor=none;fillColor=none;align=center;verticalAlign=middle;whiteSpace=wrap;rounded=0;" vertex="1" parent="1">
          <mxGeometry x="3216" y="265" width="60" height="30" as="geometry" />
        </mxCell>
        <mxCell id="rFqdk_0CaIqM8_NlbTHl-234" value="&lt;font style=&quot;font-size: 18px;&quot;&gt;Д&lt;/font&gt;" style="text;html=1;strokeColor=none;fillColor=none;align=center;verticalAlign=middle;whiteSpace=wrap;rounded=0;" vertex="1" parent="1">
          <mxGeometry x="2933" y="265" width="60" height="30" as="geometry" />
        </mxCell>
        <mxCell id="rFqdk_0CaIqM8_NlbTHl-235" value="&lt;span style=&quot;font-size: 18px;&quot;&gt;Е&lt;/span&gt;" style="text;html=1;strokeColor=none;fillColor=none;align=center;verticalAlign=middle;whiteSpace=wrap;rounded=0;" vertex="1" parent="1">
          <mxGeometry x="2665" y="265" width="60" height="30" as="geometry" />
        </mxCell>
        <mxCell id="rFqdk_0CaIqM8_NlbTHl-236" style="edgeStyle=orthogonalEdgeStyle;rounded=0;orthogonalLoop=1;jettySize=auto;html=1;exitX=0.5;exitY=1;exitDx=0;exitDy=0;exitPerimeter=0;entryX=0.5;entryY=0;entryDx=0;entryDy=0;entryPerimeter=0;" edge="1" parent="1" source="rFqdk_0CaIqM8_NlbTHl-230" target="rFqdk_0CaIqM8_NlbTHl-118">
          <mxGeometry relative="1" as="geometry" />
        </mxCell>
        <mxCell id="rFqdk_0CaIqM8_NlbTHl-237" style="edgeStyle=orthogonalEdgeStyle;rounded=0;orthogonalLoop=1;jettySize=auto;html=1;exitX=0.5;exitY=1;exitDx=0;exitDy=0;exitPerimeter=0;entryX=0.5;entryY=0;entryDx=0;entryDy=0;entryPerimeter=0;" edge="1" parent="1" source="rFqdk_0CaIqM8_NlbTHl-231" target="rFqdk_0CaIqM8_NlbTHl-142">
          <mxGeometry relative="1" as="geometry" />
        </mxCell>
        <mxCell id="rFqdk_0CaIqM8_NlbTHl-238" style="edgeStyle=orthogonalEdgeStyle;rounded=0;orthogonalLoop=1;jettySize=auto;html=1;exitX=0.5;exitY=1;exitDx=0;exitDy=0;exitPerimeter=0;entryX=0.5;entryY=0;entryDx=0;entryDy=0;entryPerimeter=0;" edge="1" parent="1" source="rFqdk_0CaIqM8_NlbTHl-232" target="rFqdk_0CaIqM8_NlbTHl-181">
          <mxGeometry relative="1" as="geometry" />
        </mxCell>
      </root>
    </mxGraphModel>
  </diagram>
</mxfile>
